**ABCDEFGHIJKLMNOPQRSTUVWXYZabcdefghijklmnopqrstuvwxyz**************************
**PARASOLID !"#$%&'()*+,-./:;<=>?@[\]^_`{|}~0123456789**************************
**PART1;
MC=AMD64;
MC_MODEL=Intel64 Family 6 Model 60 Stepping 3, GenuineIntel;
MC_ID=unknown;
OS=Windows_NT;
OS_RELEASE=unknown;
FRU=Parasolid Version 30.0, build 298, 12-15-2017;
APPL=SOLIDWORKS 2018-2018134;
SITE=;
USER=unknown;
FORMAT=text;
GUISE=transmit;
KEY=Bateria 18650 3.7 V 1300 mAh d.18 mm;
FILE=Bateria 18650 3.7 V 1300 mAh d.18 mm.x_t;
DATE=Mon Sep 16 17:33:55 2019;
**PART2;
SCH=SCH_3000298_30000;
USFLD_SIZE=0;
**PART3;
**END_OF_HEADER*****************************************************************
T51 : TRANSMIT FILE created by modeller version 300029823 SCH_3000298_30000_1300
6205 0 12 33 CCCCCCI4 mesh1006 0 I8 polyline1008 0 CCCCCCCDI5 owner1040 0 CCCCCC
I13 boundary_mesh1006 0 I17 boundary_polyline1008 0 CCCA16 index_map_offset0 0 1
 dA9 index_map82 0 A17 node_id_index_map82 0 A20 schema_embedding_map82 0 A5 chi
ld12 0 A14 lowest_node_id0 0 1 dZ1 1693 2 3 4 0 0 0 0 0 1e3 1e-8 0 5 0 1 0 1 1 6
 7 8 0 0 0 9 10 0 0 0 0 0 0 0 81 255 2 2 756 11 1 0 0 0 0 12 0 70 11 CI9 list_ty
pe0 0 1 uI10 notransmit0 0 1 lCCCDCCDI12 finger_index0 0 1 dI12 finger_block1012
 0 CZ3 0 4 T1 0 0 3 20 1 13 13 50 255 4 1004 0 1 14 0 0 +0 .06385 0 0 1 0 0 0 1
 13 255 6 8 0 1 15 16 0 0 17 0 54 255 7 1215 0 18 19 0 0 +0 .00165 0 0 1 0 .0085
35 5e-4 0 0 1 31 255 8 1199 0 10 20 0 0 +0 .00165 0 0 1 0 0 0 1 .009035 19 8 CCC
CCCCA5 owner12 0 Z9 6 0 1 17 0 21 V0 16 255 10 1196 0 ?22 0 23 8 0 0 1 17 255 22
 0 24 22 22 0 25 10 0 0 +16 23 1190 0 ?26 10 27 20 0 0 1 17 26 0 28 26 26 0 29 2
3 0 0 +16 27 422 0 ?30 23 31 32 0 0 1 31 20 1193 0 23 33 8 0 -0 .001150000000000
012 0 0 1 0 0 0 1 .008535 31 33 845 0 34 32 20 0 -0 .0589484834992181 0 0 -1 0 0
 0 -1 .009035 16 34 891 0 ?35 36 37 33 0 0 1 31 32 425 0 27 38 33 0 +0 .05891315
31202096 0 0 -1 0 0 0 -1 .00902855086487638 31 38 419 0 31 39 32 0 -0 .061511667
2237414 0 0 -1 0 0 0 -1 .00903 16 31 416 0 ?40 27 41 38 0 0 1 31 39 155 0 41 42
 38 0 -0 .0626389356105031 0 0 1 0 0 0 1 .00903 16 41 152 0 ?43 31 44 39 0 0 1 3
1 42 87 0 45 46 39 0 +0 .06525 0 0 1 0 0 0 1 .0046044453575515 16 45 16 0 ?47 44
 48 42 0 0 1 31 46 86 0 49 50 42 0 +0 .06525 812922289983031e-19 0 1 0 0 0 1 .00
531676366411 16 49 14 0 ?51 48 52 46 0 0 1 31 50 85 0 53 54 46 0 +0 .06575 0 0 1
 0 0 0 1 .00678458179531968 16 53 12 0 ?55 52 56 50 0 0 1 31 54 84 0 56 57 50 0
 +0 .06585 0 0 1 0 0 0 1 .00678458179531968 16 56 11 0 ?58 53 59 54 0 0 1 31 57
 83 0 59 60 54 0 +0 .06585 0 0 1 0 0 0 1 .008665 16 59 10 0 ?61 56 62 57 0 0 1 3
1 60 81 0 52 63 57 0 +0 .06575 812922289983031e-19 0 1 0 0 0 1 .00531676366411 1
6 52 13 0 ?64 49 53 60 0 0 1 31 63 80 0 44 65 60 0 +0 .06585 0 0 1 0 0 0 1 .0043
044453575515 16 44 17 0 ?66 41 45 63 0 0 1 31 65 79 0 48 67 63 0 -0 .06555 0 0 1
 0 0 0 1 .0046044453575515 16 48 15 0 ?68 45 49 65 0 0 1 31 67 320 0 62 69 65 0
 -0 .0585998287928989 0 0 -1 0 0 0 -1 .00902855086487638 16 62 256 0 ?70 59 71 6
7 0 0 1 31 69 946 0 71 72 67 0 -0 .065686303434416 0 0 -1 0 0 0 -1 .009035 16 71
 874 0 ?73 62 74 69 0 0 1 31 72 947 0 74 75 69 0 -0 .0626701606004951 0 0 -1 0 0
 0 -1 .009035 16 74 879 0 ?76 71 77 72 0 0 1 31 75 949 0 77 78 72 0 -0 .05856449
84138904 0 0 1 0 0 0 1 .009035 16 77 890 0 ?79 74 36 75 0 0 1 31 78 950 0 36 80
 75 0 -0 .0614804422337494 0 0 1 0 0 0 1 .009035 16 36 880 0 ?81 77 34 78 0 0 1
 31 80 1028 0 37 82 78 0 -0 .06385 0 0 1 0 0 0 1 .0073654845312251 16 37 1007 0
 ?83 34 84 80 0 0 1 31 82 1029 0 84 85 80 0 +0 .0036 0 0 -1 0 0 0 -1 .0073654845
312251 16 84 1008 0 ?86 37 87 82 0 0 1 31 85 1252 0 88 89 82 0 +0 .0011500000000
00012 0 0 -1 0 0 0 -1 .0065 16 88 1233 0 ?90 87 0 85 0 0 1 31 89 1253 0 87 0 85
 0 +0 .001250000000000012 0 0 -1 0 0 0 -1 .0065 16 87 1230 0 ?91 84 88 89 0 0 1
 17 91 0 92 91 91 0 93 87 0 0 +15 255 92 1243 0 91 94 0 17 93 0 95 93 93 0 91 87
 0 0 -15 95 1239 0 93 96 97 14 255 96 1236 98 ?94 18 95 6 99 -0 0 94 18 21 15 97
 1240 0 90 96 0 17 90 0 97 90 90 0 100 88 0 0 +17 100 0 101 100 100 0 90 88 0 0
 -15 101 1224 0 100 102 28 14 102 1125 103 ?18 104 101 6 105 -0 0 18 104 21 15 2
8 1191 0 26 102 0 81 1 103 1670 106 102 107 0 98 108 109 14 18 1208 108 ?96 102
 110 6 7 +0 0 96 102 21 14 104 907 111 ?102 112 24 6 113 +114 115 102 112 21 50
 105 1148 0 102 99 116 0 +-.01283715556552662 .001150000000000012 -.009035 0 1 0
 0 0 1 13 21 7 0 0 0 0 0 0 9 16 14 16 871 117 ?118 0 119 6 120 +0 0 118 0 21 81
 1 117 1673 106 16 121 0 111 122 123 14 118 26 122 ?124 16 125 6 126 +127 127 12
4 16 21 15 119 33 0 128 16 129 54 120 71 0 16 130 126 0 +0 .06535 0 0 1 0 .00866
5 5e-4 0 0 1 54 130 70 0 131 132 120 0 +0 .06555 0 0 1 0 .0043044453575515 3e-4
 0 0 1 50 126 72 0 118 120 133 0 +0 .06585 0 0 1 0 0 0 1 51 255 133 73 0 124 126
 134 0 +0 .06575 0 0 1 0 .00678458179531968 0 0 1 14 124 34 135 ?136 118 137 6 1
33 -0 0 136 118 21 50 134 74 0 136 133 138 0 +0 .06575 0 0 1 0 0 0 1 14 136 39 1
39 ?140 124 141 6 134 +0 0 140 124 21 51 138 75 0 140 134 142 0 +0 .06525 812922
289983031e-19 0 1 0 .00531676366411 0 0 1 14 140 44 143 ?144 136 145 6 138 -0 0
 144 136 21 50 142 76 0 144 138 146 0 +0 .06525 812922289983031e-19 0 1 0 0 0 1
 14 144 48 147 ?148 140 149 6 142 +0 0 148 140 21 51 146 77 0 148 142 150 0 +0 .
06525 0 0 1 0 .0046044453575515 0 0 1 14 148 52 151 ?127 144 152 6 146 +0 0 127
 144 21 54 150 177 0 153 146 154 0 +0 .0626389356105031 0 0 1 0 .00913 1e-4 0 0
 1 14 153 866 155 ?156 115 157 6 150 -0 0 156 115 21 54 154 448 0 158 150 19 0 +
0 .0615116672237414 0 0 -1 0 .00913 1e-4 0 0 -1 14 158 851 159 ?114 156 160 6 15
4 -0 0 114 156 21 54 19 461 0 112 154 7 0 +0 .0589131531202096 0 0 -1 0 .0091285
5086487638 1e-4 0 0 -1 14 112 846 161 ?104 162 163 6 19 -0 0 104 162 21 81 1 161
 1682 106 112 164 0 159 165 166 14 162 276 165 ?112 167 168 6 169 -0 0 112 167 2
1 15 163 456 0 170 112 171 17 170 0 163 170 170 0 30 27 0 0 -15 171 844 0 172 11
2 0 17 172 0 171 172 172 0 35 34 0 0 -17 35 0 173 35 35 0 172 34 0 0 +15 173 915
 0 35 114 174 14 114 912 175 ?167 158 173 6 113 +115 104 167 158 21 15 174 916 0
 81 114 0 17 81 0 174 81 81 0 176 36 0 0 +17 176 0 177 176 176 0 81 36 0 0 -15 1
77 850 0 176 158 0 81 1 175 1684 106 114 178 0 165 179 180 14 167 856 179 ?162 1
14 181 6 182 -0 0 162 114 21 51 113 945 0 115 183 169 0 +0 .06585 0 0 -1 0 .0090
35 0 0 -1 14 115 897 184 ?153 131 185 6 113 +104 114 153 131 21 81 1 184 1686 10
6 115 186 0 179 187 188 14 131 61 187 ?115 127 189 6 130 +0 0 115 127 21 15 185
 900 0 190 115 191 17 190 0 185 190 190 0 73 71 0 0 -15 191 901 0 76 115 0 17 76
 0 191 76 76 0 192 74 0 0 +17 192 0 193 192 192 0 76 74 0 0 -15 193 865 0 192 15
3 0 17 73 0 129 73 73 0 190 71 0 0 +15 129 869 0 73 16 0 81 1 187 1687 106 131 1
94 0 184 195 196 14 127 57 195 ?131 148 197 6 126 +118 118 131 148 21 15 189 63
 0 198 131 199 17 198 0 189 198 198 0 68 48 0 0 -15 199 64 0 200 131 0 17 200 0
 199 200 200 0 66 44 0 0 -17 66 0 197 66 66 0 200 44 0 0 +15 197 60 0 66 127 0 1
7 68 0 152 68 68 0 198 48 0 0 +15 152 55 0 68 148 201 15 201 56 0 47 148 0 17 47
 0 201 47 47 0 202 45 0 0 +17 202 0 149 202 202 0 47 45 0 0 -15 149 50 0 202 144
 203 15 203 51 0 51 144 0 17 51 0 203 51 51 0 204 49 0 0 +17 204 0 205 204 204 0
 51 49 0 0 -15 205 47 0 204 140 0 81 1 195 1688 106 127 206 0 187 207 208 80 255
 1 106 209 210 9000 1 1 1 1 1 1 1 1 0 FFFFTFTFFFFFFF1 81 1 206 1599 211 127 0 19
5 212 194 213 81 1 207 1689 106 156 214 0 195 215 216 82 255 1 208 -1832976001 1
4 156 120 207 ?158 153 217 6 132 -0 0 158 153 21 81 1 214 1603 211 156 0 207 218
 219 220 81 1 215 1690 106 221 222 0 207 223 224 82 1 216 1294664128 14 221 1011
 215 ?225 0 226 15 183 -0 0 225 0 227 81 1 222 1614 211 221 0 215 228 229 230 81
 1 223 1691 106 225 229 0 215 231 232 82 1 224 285868308 14 225 1014 223 ?233 22
1 234 15 116 -0 0 233 221 227 81 1 229 1615 211 225 0 223 222 235 236 81 1 231 1
692 106 233 235 0 223 237 238 82 1 232 289145108 14 233 1017 231 ?0 225 239 15 2
40 -0 0 0 225 227 81 1 235 1616 211 233 0 231 229 0 241 81 1 237 1693 106 94 228
 0 231 0 242 82 1 238 290783508 14 94 1241 237 ?0 96 92 6 243 +0 0 0 96 21 81 1
 228 1613 211 94 0 237 244 222 245 82 1 242 359792921 80 1 211 0 246 8001 0 0 0
 0 3 5 0 0 0 FFFFTFTFFFFFFF2 81 1 244 1612 211 96 0 98 247 228 248 83 255 3 245
 .850980392156863 .850980392156863 .850980392156863 81 1 98 1669 106 96 244 0 0
 103 249 81 1 247 1611 211 18 0 108 107 244 250 83 3 248 0 .529411764705882 1 81
 1 108 1671 106 18 247 0 103 111 251 81 1 107 1610 211 102 0 103 252 247 253 83
 3 250 0 .529411764705882 1 81 1 252 1609 211 104 0 111 164 107 254 83 3 253 0 .
529411764705882 1 81 1 111 1672 106 104 252 0 108 117 255 81 1 164 1608 211 112
 0 161 256 252 257 83 3 254 0 .529411764705882 1 81 1 256 1607 211 162 0 165 258
 164 259 83 3 257 0 .529411764705882 1 81 1 165 1683 106 162 256 0 161 175 260 8
1 1 258 1606 211 167 0 179 178 256 261 83 3 259 0 .529411764705882 1 81 1 179 16
85 106 167 258 0 175 184 262 81 1 178 1605 211 114 0 175 219 258 263 83 3 261 0
 .529411764705882 1 81 1 219 1604 211 158 0 159 214 178 264 83 3 263 0 .52941176
4705882 1 81 1 159 1681 106 158 219 0 155 161 265 83 3 264 0 .529411764705882 1
 81 1 155 1680 106 153 218 0 151 159 266 82 1 265 1039794360 81 1 218 1602 211 1
53 0 155 186 214 267 81 1 151 1679 106 148 212 0 147 155 268 82 1 266 1041170616
 81 1 212 1598 211 148 0 151 269 206 270 81 1 147 1678 106 144 269 0 143 151 271
 82 1 268 -1840381569 81 1 269 1597 211 144 0 147 272 212 273 81 1 143 1677 106
 140 272 0 139 147 274 82 1 271 -1838349953 81 1 272 1596 211 140 0 143 275 269
 276 81 1 139 1676 106 136 275 0 135 143 277 82 1 274 -1836383873 81 1 275 1595
 211 136 0 139 278 272 279 81 1 135 1675 106 124 278 0 122 139 280 82 1 277 1853
292927 81 1 278 1594 211 124 0 135 281 275 282 81 1 122 1674 106 118 281 0 117 1
35 283 82 1 280 1858077055 81 1 281 1593 211 118 0 122 121 278 284 82 1 283 -870
514305 81 1 121 1592 211 16 0 117 0 281 285 83 3 284 0 .529411764705882 1 83 3 2
85 0 .529411764705882 1 83 3 282 0 .529411764705882 1 83 3 279 1 1 1 83 3 276 .2
980392156862745 .2980392156862745 .2980392156862745 83 3 273 .2980392156862745 .
2980392156862745 .2980392156862745 83 3 270 .850980392156863 .850980392156863 .8
50980392156863 81 1 186 1601 211 115 0 184 194 218 286 83 3 267 0 .5294117647058
82 1 81 1 194 1600 211 131 0 187 206 186 287 83 3 286 0 .529411764705882 1 83 3
 287 .850980392156863 .850980392156863 .850980392156863 82 1 262 1040253112 82 1
 260 -924646976 82 1 255 1037500695 82 1 251 350748951 82 1 249 361759001 79 255
 15 246 SDL/TYSA_COLOUR50 243 1251 0 94 0 99 0 +0 .001250000000000012 0 0 -1 0 0
 0 -1 51 99 1249 0 96 243 105 0 +0 .001250000000000012 0 0 -1 0 .0065 0 0 -1 83
 3 241 0 .529411764705882 1 15 239 1020 0 86 233 288 13 15 1005 0 1 0 221 0 0 17
 0 51 240 1026 0 233 116 183 0 +0 .0866827362350156 0 0 -1 0 .0073654845312251 0
 0 -1 13 227 1023 0 0 0 0 0 0 289 221 19 289 1022 0 1 0 17 227 V0 19 17 1 0 1 28
9 9 6 S0 50 116 1027 0 225 105 240 0 +0 .0036 0 0 -1 0 0 0 -1 50 183 1025 0 221
 240 113 0 +0 .06385 0 0 1 0 0 0 1 17 86 0 239 86 86 0 290 84 0 0 +15 288 1021 0
 291 233 0 17 291 0 288 291 291 0 83 37 0 0 -17 83 0 226 83 83 0 291 37 0 0 +15
 226 1013 0 83 221 0 17 290 0 234 290 290 0 86 84 0 0 -15 234 1016 0 290 225 0 8
3 3 236 0 .529411764705882 1 83 3 230 0 .529411764705882 1 83 3 220 0 .529411764
705882 1 15 217 417 0 40 156 292 51 132 133 0 156 182 130 0 -0 .0614389356105031
 0 0 1 0 .00903 0 0 1 54 182 309 0 167 169 132 0 +0 .0585998287928989 0 0 -1 0 .
00912855086487638 1e-4 0 0 -1 51 169 315 0 162 113 182 0 -0 .0585264909565542 0
 0 1 0 .00902855086487638 0 0 1 17 40 0 217 40 40 0 293 31 0 0 +15 292 153 0 43
 156 0 17 43 0 292 43 43 0 294 41 0 0 +17 294 0 157 294 294 0 43 41 0 0 -15 157
 172 0 294 153 193 17 293 0 160 293 293 0 40 31 0 0 -15 160 442 0 293 158 177 83
 3 213 .850980392156863 .850980392156863 .850980392156863 79 14 210 SWEntUnchang
ed82 1 196 -1268121217 82 1 188 1038680248 15 181 305 0 295 167 296 17 295 0 181
 295 295 0 70 62 0 0 -15 296 855 0 297 167 0 17 297 0 296 297 297 0 79 77 0 0 -1
7 79 0 298 79 79 0 297 77 0 0 +15 298 911 0 79 104 0 17 70 0 299 70 70 0 295 62
 0 0 +15 299 278 0 70 162 0 82 1 180 1036910776 17 30 0 168 30 30 0 170 27 0 0 +
15 168 423 0 30 162 299 82 1 166 1035862200 15 145 46 0 64 140 205 17 64 0 145 6
4 64 0 300 52 0 0 +17 300 0 141 300 300 0 64 52 0 0 -15 141 42 0 300 136 301 15
 301 43 0 55 136 0 17 55 0 301 55 55 0 302 53 0 0 +17 302 0 137 302 302 0 55 53
 0 0 -15 137 37 0 302 124 303 15 303 38 0 58 124 0 17 58 0 303 58 58 0 304 56 0
 0 +17 304 0 125 304 304 0 58 56 0 0 -15 125 28 0 304 118 305 15 305 29 0 61 118
 0 17 61 0 305 61 61 0 128 59 0 0 +17 128 0 119 128 128 0 61 59 0 0 -82 1 123 10
41629368 15 24 1197 0 22 104 298 15 110 1209 0 25 18 306 17 25 0 110 25 25 0 22
 10 0 0 -15 306 1210 0 29 18 0 17 29 0 306 29 29 0 26 23 0 0 -82 1 109 320078105
 50 14 1002 0 1 307 4 0 +0 .06385 0 0 1 0 0 0 1 50 307 1001 0 1 308 14 0 +0 .063
85 0 0 1 0 0 0 1 50 308 1000 0 1 0 307 0 +0 .06385 0 0 1 0 0 0 1 74 4 CI16 index
_map_offset0 0 1 dCCZ20 13 3 0 0 237 2 235 0 0 0 0 0 0 0 0 0 0 0 0 0 0 0 0 0 80
 2 11 309 310 8004 0 0 0 0 3 5 0 0 0 FFTFFFFFFFFFFF2 3 83 1 12 79e2 79 16 310 SD
L/TYSA_DENSITY1 0 
