M48
INCH
T01C0.0400
T02C0.1300
%
T01
X-005330Y+004340
X-004330Y+004340
X-003330Y+004340
X-002330Y+004340
X-001330Y+004340
X-000330Y+004340
X+000670Y+004340
X+001670Y+004340
X+002670Y+004340
X+003670Y+004340
X+004670Y+004340
X+005670Y+004340
X+006670Y+004340
X+007670Y+004340
X+007670Y+007340
X+006670Y+007340
X+005670Y+007340
X+004670Y+007340
X+003670Y+007340
X+002670Y+007340
X+001670Y+007340
X+000670Y+007340
X-000330Y+007340
X-001330Y+007340
X-002330Y+007340
X-003330Y+007340
X-004330Y+007340
X-005322Y+007340
X-006470Y+001840
X-006470Y+003840
X-003630Y+003044
X+000369Y+003044
X+001752Y+002847
X+003752Y+002847
X-000240Y+011870
X-001240Y+011870
X-002240Y+011870
X-003240Y+011870
X-004240Y+011870
X-005240Y+011870
X-001720Y-000130
X-000720Y-000130
X+000280Y-000130
X+001280Y-000130
X+002280Y-000130
X+003280Y-000130
X+004280Y-000130
X+005280Y-000130
X+005260Y+011850
X+004260Y+011850
X+003260Y+011850
X+002260Y+011850
X+001260Y+011850
X-003340Y+001970
X-003340Y-000785
X-005111Y+001970
X-005111Y-000785
X-007700Y+007920
X-007700Y+006920
X-007700Y+005920
X-007700Y+004920
X-007700Y+003920
T02
X-000030Y+013800
X-000070Y-002190
M30
