G04 #@! TF.GenerationSoftware,KiCad,Pcbnew,(5.0.1)-4*
G04 #@! TF.CreationDate,2019-04-16T10:01:15-03:00*
G04 #@! TF.ProjectId,Ignitor,49676E69746F722E6B696361645F7063,rev?*
G04 #@! TF.SameCoordinates,Original*
G04 #@! TF.FileFunction,Soldermask,Bot*
G04 #@! TF.FilePolarity,Negative*
%FSLAX46Y46*%
G04 Gerber Fmt 4.6, Leading zero omitted, Abs format (unit mm)*
G04 Created by KiCad (PCBNEW (5.0.1)-4) date 16/04/2019 10:01:15*
%MOMM*%
%LPD*%
G01*
G04 APERTURE LIST*
%ADD10C,0.100000*%
G04 APERTURE END LIST*
D10*
G36*
X227010443Y-111605519D02*
X227076627Y-111612037D01*
X227189853Y-111646384D01*
X227246467Y-111663557D01*
X227385087Y-111737652D01*
X227402991Y-111747222D01*
X227438729Y-111776552D01*
X227540186Y-111859814D01*
X227623448Y-111961271D01*
X227652778Y-111997009D01*
X227652779Y-111997011D01*
X227736443Y-112153533D01*
X227736443Y-112153534D01*
X227787963Y-112323373D01*
X227805359Y-112500000D01*
X227787963Y-112676627D01*
X227766777Y-112746467D01*
X227736443Y-112846467D01*
X227706231Y-112902989D01*
X227652778Y-113002991D01*
X227623448Y-113038729D01*
X227540186Y-113140186D01*
X227460771Y-113205359D01*
X227402991Y-113252778D01*
X227402989Y-113252779D01*
X227246467Y-113336443D01*
X227189853Y-113353616D01*
X227076627Y-113387963D01*
X227010442Y-113394482D01*
X226944260Y-113401000D01*
X226055740Y-113401000D01*
X225989558Y-113394482D01*
X225923373Y-113387963D01*
X225810147Y-113353616D01*
X225753533Y-113336443D01*
X225597011Y-113252779D01*
X225597009Y-113252778D01*
X225539229Y-113205359D01*
X225459814Y-113140186D01*
X225376552Y-113038729D01*
X225347222Y-113002991D01*
X225293769Y-112902989D01*
X225263557Y-112846467D01*
X225233223Y-112746467D01*
X225212037Y-112676627D01*
X225194641Y-112500000D01*
X225212037Y-112323373D01*
X225263557Y-112153534D01*
X225263557Y-112153533D01*
X225347221Y-111997011D01*
X225347222Y-111997009D01*
X225376552Y-111961271D01*
X225459814Y-111859814D01*
X225561271Y-111776552D01*
X225597009Y-111747222D01*
X225614913Y-111737652D01*
X225753533Y-111663557D01*
X225810147Y-111646384D01*
X225923373Y-111612037D01*
X225989557Y-111605519D01*
X226055740Y-111599000D01*
X226944260Y-111599000D01*
X227010443Y-111605519D01*
X227010443Y-111605519D01*
G37*
G36*
X220510443Y-111605519D02*
X220576627Y-111612037D01*
X220689853Y-111646384D01*
X220746467Y-111663557D01*
X220885087Y-111737652D01*
X220902991Y-111747222D01*
X220938729Y-111776552D01*
X221040186Y-111859814D01*
X221123448Y-111961271D01*
X221152778Y-111997009D01*
X221152779Y-111997011D01*
X221236443Y-112153533D01*
X221236443Y-112153534D01*
X221287963Y-112323373D01*
X221305359Y-112500000D01*
X221287963Y-112676627D01*
X221266777Y-112746467D01*
X221236443Y-112846467D01*
X221206231Y-112902989D01*
X221152778Y-113002991D01*
X221123448Y-113038729D01*
X221040186Y-113140186D01*
X220960771Y-113205359D01*
X220902991Y-113252778D01*
X220902989Y-113252779D01*
X220746467Y-113336443D01*
X220689853Y-113353616D01*
X220576627Y-113387963D01*
X220510442Y-113394482D01*
X220444260Y-113401000D01*
X219555740Y-113401000D01*
X219489558Y-113394482D01*
X219423373Y-113387963D01*
X219310147Y-113353616D01*
X219253533Y-113336443D01*
X219097011Y-113252779D01*
X219097009Y-113252778D01*
X219039229Y-113205359D01*
X218959814Y-113140186D01*
X218876552Y-113038729D01*
X218847222Y-113002991D01*
X218793769Y-112902989D01*
X218763557Y-112846467D01*
X218733223Y-112746467D01*
X218712037Y-112676627D01*
X218694641Y-112500000D01*
X218712037Y-112323373D01*
X218763557Y-112153534D01*
X218763557Y-112153533D01*
X218847221Y-111997011D01*
X218847222Y-111997009D01*
X218876552Y-111961271D01*
X218959814Y-111859814D01*
X219061271Y-111776552D01*
X219097009Y-111747222D01*
X219114913Y-111737652D01*
X219253533Y-111663557D01*
X219310147Y-111646384D01*
X219423373Y-111612037D01*
X219489557Y-111605519D01*
X219555740Y-111599000D01*
X220444260Y-111599000D01*
X220510443Y-111605519D01*
X220510443Y-111605519D01*
G37*
G36*
X213336626Y-110712037D02*
X213449852Y-110746384D01*
X213506466Y-110763557D01*
X213662989Y-110847221D01*
X213800186Y-110959814D01*
X213883448Y-111061271D01*
X213912778Y-111097009D01*
X213912779Y-111097011D01*
X213996443Y-111253533D01*
X214013616Y-111310147D01*
X214047963Y-111423373D01*
X214061000Y-111555742D01*
X214061000Y-112444258D01*
X214047963Y-112576627D01*
X214026777Y-112646467D01*
X213996443Y-112746467D01*
X213942991Y-112846467D01*
X213912778Y-112902991D01*
X213883448Y-112938729D01*
X213800186Y-113040186D01*
X213723916Y-113102778D01*
X213662991Y-113152778D01*
X213662989Y-113152779D01*
X213506467Y-113236443D01*
X213452617Y-113252778D01*
X213336627Y-113287963D01*
X213160000Y-113305359D01*
X212983374Y-113287963D01*
X212867384Y-113252778D01*
X212813534Y-113236443D01*
X212657012Y-113152779D01*
X212657010Y-113152778D01*
X212596085Y-113102778D01*
X212519815Y-113040186D01*
X212436553Y-112938729D01*
X212407223Y-112902991D01*
X212377010Y-112846467D01*
X212323558Y-112746467D01*
X212293224Y-112646467D01*
X212272038Y-112576627D01*
X212259000Y-112444258D01*
X212259000Y-111555743D01*
X212272037Y-111423374D01*
X212323557Y-111253535D01*
X212323557Y-111253534D01*
X212407221Y-111097011D01*
X212519814Y-110959814D01*
X212621271Y-110876552D01*
X212657009Y-110847222D01*
X212674913Y-110837652D01*
X212813533Y-110763557D01*
X212870147Y-110746384D01*
X212983373Y-110712037D01*
X213160000Y-110694641D01*
X213336626Y-110712037D01*
X213336626Y-110712037D01*
G37*
G36*
X208256626Y-110712037D02*
X208369852Y-110746384D01*
X208426466Y-110763557D01*
X208582989Y-110847221D01*
X208720186Y-110959814D01*
X208803448Y-111061271D01*
X208832778Y-111097009D01*
X208832779Y-111097011D01*
X208916443Y-111253533D01*
X208933616Y-111310147D01*
X208967963Y-111423373D01*
X208981000Y-111555742D01*
X208981000Y-112444258D01*
X208967963Y-112576627D01*
X208946777Y-112646467D01*
X208916443Y-112746467D01*
X208862991Y-112846467D01*
X208832778Y-112902991D01*
X208803448Y-112938729D01*
X208720186Y-113040186D01*
X208643916Y-113102778D01*
X208582991Y-113152778D01*
X208582989Y-113152779D01*
X208426467Y-113236443D01*
X208372617Y-113252778D01*
X208256627Y-113287963D01*
X208080000Y-113305359D01*
X207903374Y-113287963D01*
X207787384Y-113252778D01*
X207733534Y-113236443D01*
X207577012Y-113152779D01*
X207577010Y-113152778D01*
X207516085Y-113102778D01*
X207439815Y-113040186D01*
X207356553Y-112938729D01*
X207327223Y-112902991D01*
X207297010Y-112846467D01*
X207243558Y-112746467D01*
X207213224Y-112646467D01*
X207192038Y-112576627D01*
X207179000Y-112444258D01*
X207179000Y-111555743D01*
X207192037Y-111423374D01*
X207243557Y-111253535D01*
X207243557Y-111253534D01*
X207327221Y-111097011D01*
X207439814Y-110959814D01*
X207541271Y-110876552D01*
X207577009Y-110847222D01*
X207594913Y-110837652D01*
X207733533Y-110763557D01*
X207790147Y-110746384D01*
X207903373Y-110712037D01*
X208080000Y-110694641D01*
X208256626Y-110712037D01*
X208256626Y-110712037D01*
G37*
G36*
X203176626Y-110712037D02*
X203289852Y-110746384D01*
X203346466Y-110763557D01*
X203502989Y-110847221D01*
X203640186Y-110959814D01*
X203723448Y-111061271D01*
X203752778Y-111097009D01*
X203752779Y-111097011D01*
X203836443Y-111253533D01*
X203853616Y-111310147D01*
X203887963Y-111423373D01*
X203901000Y-111555742D01*
X203901000Y-112444258D01*
X203887963Y-112576627D01*
X203866777Y-112646467D01*
X203836443Y-112746467D01*
X203782991Y-112846467D01*
X203752778Y-112902991D01*
X203723448Y-112938729D01*
X203640186Y-113040186D01*
X203563916Y-113102778D01*
X203502991Y-113152778D01*
X203502989Y-113152779D01*
X203346467Y-113236443D01*
X203292617Y-113252778D01*
X203176627Y-113287963D01*
X203000000Y-113305359D01*
X202823374Y-113287963D01*
X202707384Y-113252778D01*
X202653534Y-113236443D01*
X202497012Y-113152779D01*
X202497010Y-113152778D01*
X202436085Y-113102778D01*
X202359815Y-113040186D01*
X202276553Y-112938729D01*
X202247223Y-112902991D01*
X202217010Y-112846467D01*
X202163558Y-112746467D01*
X202133224Y-112646467D01*
X202112038Y-112576627D01*
X202099000Y-112444258D01*
X202099000Y-111555743D01*
X202112037Y-111423374D01*
X202163557Y-111253535D01*
X202163557Y-111253534D01*
X202247221Y-111097011D01*
X202359814Y-110959814D01*
X202461271Y-110876552D01*
X202497009Y-110847222D01*
X202514913Y-110837652D01*
X202653533Y-110763557D01*
X202710147Y-110746384D01*
X202823373Y-110712037D01*
X203000000Y-110694641D01*
X203176626Y-110712037D01*
X203176626Y-110712037D01*
G37*
G36*
X210796626Y-110712037D02*
X210909852Y-110746384D01*
X210966466Y-110763557D01*
X211122989Y-110847221D01*
X211260186Y-110959814D01*
X211343448Y-111061271D01*
X211372778Y-111097009D01*
X211372779Y-111097011D01*
X211456443Y-111253533D01*
X211473616Y-111310147D01*
X211507963Y-111423373D01*
X211521000Y-111555742D01*
X211521000Y-112444258D01*
X211507963Y-112576627D01*
X211486777Y-112646467D01*
X211456443Y-112746467D01*
X211402991Y-112846467D01*
X211372778Y-112902991D01*
X211343448Y-112938729D01*
X211260186Y-113040186D01*
X211183916Y-113102778D01*
X211122991Y-113152778D01*
X211122989Y-113152779D01*
X210966467Y-113236443D01*
X210912617Y-113252778D01*
X210796627Y-113287963D01*
X210620000Y-113305359D01*
X210443374Y-113287963D01*
X210327384Y-113252778D01*
X210273534Y-113236443D01*
X210117012Y-113152779D01*
X210117010Y-113152778D01*
X210056085Y-113102778D01*
X209979815Y-113040186D01*
X209896553Y-112938729D01*
X209867223Y-112902991D01*
X209837010Y-112846467D01*
X209783558Y-112746467D01*
X209753224Y-112646467D01*
X209732038Y-112576627D01*
X209719000Y-112444258D01*
X209719000Y-111555743D01*
X209732037Y-111423374D01*
X209783557Y-111253535D01*
X209783557Y-111253534D01*
X209867221Y-111097011D01*
X209979814Y-110959814D01*
X210081271Y-110876552D01*
X210117009Y-110847222D01*
X210134913Y-110837652D01*
X210273533Y-110763557D01*
X210330147Y-110746384D01*
X210443373Y-110712037D01*
X210620000Y-110694641D01*
X210796626Y-110712037D01*
X210796626Y-110712037D01*
G37*
G36*
X205716626Y-110712037D02*
X205829852Y-110746384D01*
X205886466Y-110763557D01*
X206042989Y-110847221D01*
X206180186Y-110959814D01*
X206263448Y-111061271D01*
X206292778Y-111097009D01*
X206292779Y-111097011D01*
X206376443Y-111253533D01*
X206393616Y-111310147D01*
X206427963Y-111423373D01*
X206441000Y-111555742D01*
X206441000Y-112444258D01*
X206427963Y-112576627D01*
X206406777Y-112646467D01*
X206376443Y-112746467D01*
X206322991Y-112846467D01*
X206292778Y-112902991D01*
X206263448Y-112938729D01*
X206180186Y-113040186D01*
X206103916Y-113102778D01*
X206042991Y-113152778D01*
X206042989Y-113152779D01*
X205886467Y-113236443D01*
X205832617Y-113252778D01*
X205716627Y-113287963D01*
X205540000Y-113305359D01*
X205363374Y-113287963D01*
X205247384Y-113252778D01*
X205193534Y-113236443D01*
X205037012Y-113152779D01*
X205037010Y-113152778D01*
X204976085Y-113102778D01*
X204899815Y-113040186D01*
X204816553Y-112938729D01*
X204787223Y-112902991D01*
X204757010Y-112846467D01*
X204703558Y-112746467D01*
X204673224Y-112646467D01*
X204652038Y-112576627D01*
X204639000Y-112444258D01*
X204639000Y-111555743D01*
X204652037Y-111423374D01*
X204703557Y-111253535D01*
X204703557Y-111253534D01*
X204787221Y-111097011D01*
X204899814Y-110959814D01*
X205001271Y-110876552D01*
X205037009Y-110847222D01*
X205054913Y-110837652D01*
X205193533Y-110763557D01*
X205250147Y-110746384D01*
X205363373Y-110712037D01*
X205540000Y-110694641D01*
X205716626Y-110712037D01*
X205716626Y-110712037D01*
G37*
G36*
X184516626Y-110662037D02*
X184624107Y-110694641D01*
X184686466Y-110713557D01*
X184842989Y-110797221D01*
X184980186Y-110909814D01*
X185063448Y-111011271D01*
X185092778Y-111047009D01*
X185092779Y-111047011D01*
X185176443Y-111203533D01*
X185191610Y-111253533D01*
X185227963Y-111373373D01*
X185241000Y-111505742D01*
X185241000Y-112394258D01*
X185227963Y-112526627D01*
X185191610Y-112646466D01*
X185176443Y-112696467D01*
X185149717Y-112746467D01*
X185092778Y-112852991D01*
X185063448Y-112888729D01*
X184980186Y-112990186D01*
X184903916Y-113052778D01*
X184842991Y-113102778D01*
X184842989Y-113102779D01*
X184686467Y-113186443D01*
X184629853Y-113203616D01*
X184516627Y-113237963D01*
X184340000Y-113255359D01*
X184163374Y-113237963D01*
X184050148Y-113203616D01*
X183993534Y-113186443D01*
X183837012Y-113102779D01*
X183837010Y-113102778D01*
X183776085Y-113052778D01*
X183699815Y-112990186D01*
X183616553Y-112888729D01*
X183587223Y-112852991D01*
X183530284Y-112746467D01*
X183503558Y-112696467D01*
X183486385Y-112639853D01*
X183452038Y-112526627D01*
X183439000Y-112394258D01*
X183439000Y-111505743D01*
X183452037Y-111373374D01*
X183503557Y-111203535D01*
X183503557Y-111203534D01*
X183587221Y-111047011D01*
X183699814Y-110909814D01*
X183801271Y-110826552D01*
X183837009Y-110797222D01*
X183899991Y-110763557D01*
X183993533Y-110713557D01*
X184055892Y-110694641D01*
X184163373Y-110662037D01*
X184340000Y-110644641D01*
X184516626Y-110662037D01*
X184516626Y-110662037D01*
G37*
G36*
X181976626Y-110662037D02*
X182084107Y-110694641D01*
X182146466Y-110713557D01*
X182302989Y-110797221D01*
X182440186Y-110909814D01*
X182523448Y-111011271D01*
X182552778Y-111047009D01*
X182552779Y-111047011D01*
X182636443Y-111203533D01*
X182651610Y-111253533D01*
X182687963Y-111373373D01*
X182701000Y-111505742D01*
X182701000Y-112394258D01*
X182687963Y-112526627D01*
X182651610Y-112646466D01*
X182636443Y-112696467D01*
X182609717Y-112746467D01*
X182552778Y-112852991D01*
X182523448Y-112888729D01*
X182440186Y-112990186D01*
X182363916Y-113052778D01*
X182302991Y-113102778D01*
X182302989Y-113102779D01*
X182146467Y-113186443D01*
X182089853Y-113203616D01*
X181976627Y-113237963D01*
X181800000Y-113255359D01*
X181623374Y-113237963D01*
X181510148Y-113203616D01*
X181453534Y-113186443D01*
X181297012Y-113102779D01*
X181297010Y-113102778D01*
X181236085Y-113052778D01*
X181159815Y-112990186D01*
X181076553Y-112888729D01*
X181047223Y-112852991D01*
X180990284Y-112746467D01*
X180963558Y-112696467D01*
X180946385Y-112639853D01*
X180912038Y-112526627D01*
X180899000Y-112394258D01*
X180899000Y-111505743D01*
X180912037Y-111373374D01*
X180963557Y-111203535D01*
X180963557Y-111203534D01*
X181047221Y-111047011D01*
X181159814Y-110909814D01*
X181261271Y-110826552D01*
X181297009Y-110797222D01*
X181359991Y-110763557D01*
X181453533Y-110713557D01*
X181515892Y-110694641D01*
X181623373Y-110662037D01*
X181800000Y-110644641D01*
X181976626Y-110662037D01*
X181976626Y-110662037D01*
G37*
G36*
X187056626Y-110662037D02*
X187164107Y-110694641D01*
X187226466Y-110713557D01*
X187382989Y-110797221D01*
X187520186Y-110909814D01*
X187603448Y-111011271D01*
X187632778Y-111047009D01*
X187632779Y-111047011D01*
X187716443Y-111203533D01*
X187731610Y-111253533D01*
X187767963Y-111373373D01*
X187781000Y-111505742D01*
X187781000Y-112394258D01*
X187767963Y-112526627D01*
X187731610Y-112646466D01*
X187716443Y-112696467D01*
X187689717Y-112746467D01*
X187632778Y-112852991D01*
X187603448Y-112888729D01*
X187520186Y-112990186D01*
X187443916Y-113052778D01*
X187382991Y-113102778D01*
X187382989Y-113102779D01*
X187226467Y-113186443D01*
X187169853Y-113203616D01*
X187056627Y-113237963D01*
X186880000Y-113255359D01*
X186703374Y-113237963D01*
X186590148Y-113203616D01*
X186533534Y-113186443D01*
X186377012Y-113102779D01*
X186377010Y-113102778D01*
X186316085Y-113052778D01*
X186239815Y-112990186D01*
X186156553Y-112888729D01*
X186127223Y-112852991D01*
X186070284Y-112746467D01*
X186043558Y-112696467D01*
X186026385Y-112639853D01*
X185992038Y-112526627D01*
X185979000Y-112394258D01*
X185979000Y-111505743D01*
X185992037Y-111373374D01*
X186043557Y-111203535D01*
X186043557Y-111203534D01*
X186127221Y-111047011D01*
X186239814Y-110909814D01*
X186341271Y-110826552D01*
X186377009Y-110797222D01*
X186439991Y-110763557D01*
X186533533Y-110713557D01*
X186595892Y-110694641D01*
X186703373Y-110662037D01*
X186880000Y-110644641D01*
X187056626Y-110662037D01*
X187056626Y-110662037D01*
G37*
G36*
X197276626Y-110612037D02*
X197384107Y-110644641D01*
X197446466Y-110663557D01*
X197602989Y-110747221D01*
X197740186Y-110859814D01*
X197822253Y-110959814D01*
X197852778Y-110997009D01*
X197852779Y-110997011D01*
X197936443Y-111153533D01*
X197951610Y-111203533D01*
X197987963Y-111323373D01*
X198001000Y-111455742D01*
X198001000Y-112344258D01*
X197987963Y-112476627D01*
X197957629Y-112576624D01*
X197936443Y-112646467D01*
X197882991Y-112746467D01*
X197852778Y-112802991D01*
X197823448Y-112838729D01*
X197740186Y-112940186D01*
X197638729Y-113023448D01*
X197602991Y-113052778D01*
X197602989Y-113052779D01*
X197446467Y-113136443D01*
X197392617Y-113152778D01*
X197276627Y-113187963D01*
X197100000Y-113205359D01*
X196923374Y-113187963D01*
X196807384Y-113152778D01*
X196753534Y-113136443D01*
X196597012Y-113052779D01*
X196597010Y-113052778D01*
X196561272Y-113023448D01*
X196459815Y-112940186D01*
X196376553Y-112838729D01*
X196347223Y-112802991D01*
X196317010Y-112746467D01*
X196263558Y-112646467D01*
X196242372Y-112576624D01*
X196212038Y-112476627D01*
X196199000Y-112344258D01*
X196199000Y-111455743D01*
X196212037Y-111323374D01*
X196263557Y-111153535D01*
X196263557Y-111153534D01*
X196347221Y-110997011D01*
X196459814Y-110859814D01*
X196577105Y-110763557D01*
X196597009Y-110747222D01*
X196695380Y-110694641D01*
X196753533Y-110663557D01*
X196815892Y-110644641D01*
X196923373Y-110612037D01*
X197100000Y-110594641D01*
X197276626Y-110612037D01*
X197276626Y-110612037D01*
G37*
G36*
X189656626Y-110612037D02*
X189764107Y-110644641D01*
X189826466Y-110663557D01*
X189982989Y-110747221D01*
X190120186Y-110859814D01*
X190202253Y-110959814D01*
X190232778Y-110997009D01*
X190232779Y-110997011D01*
X190316443Y-111153533D01*
X190331610Y-111203533D01*
X190367963Y-111323373D01*
X190381000Y-111455742D01*
X190381000Y-112344258D01*
X190367963Y-112476627D01*
X190337629Y-112576624D01*
X190316443Y-112646467D01*
X190262991Y-112746467D01*
X190232778Y-112802991D01*
X190203448Y-112838729D01*
X190120186Y-112940186D01*
X190018729Y-113023448D01*
X189982991Y-113052778D01*
X189982989Y-113052779D01*
X189826467Y-113136443D01*
X189772617Y-113152778D01*
X189656627Y-113187963D01*
X189480000Y-113205359D01*
X189303374Y-113187963D01*
X189187384Y-113152778D01*
X189133534Y-113136443D01*
X188977012Y-113052779D01*
X188977010Y-113052778D01*
X188941272Y-113023448D01*
X188839815Y-112940186D01*
X188756553Y-112838729D01*
X188727223Y-112802991D01*
X188697010Y-112746467D01*
X188643558Y-112646467D01*
X188622372Y-112576624D01*
X188592038Y-112476627D01*
X188579000Y-112344258D01*
X188579000Y-111455743D01*
X188592037Y-111323374D01*
X188643557Y-111153535D01*
X188643557Y-111153534D01*
X188727221Y-110997011D01*
X188839814Y-110859814D01*
X188957105Y-110763557D01*
X188977009Y-110747222D01*
X189075380Y-110694641D01*
X189133533Y-110663557D01*
X189195892Y-110644641D01*
X189303373Y-110612037D01*
X189480000Y-110594641D01*
X189656626Y-110612037D01*
X189656626Y-110612037D01*
G37*
G36*
X192196626Y-110612037D02*
X192304107Y-110644641D01*
X192366466Y-110663557D01*
X192522989Y-110747221D01*
X192660186Y-110859814D01*
X192742253Y-110959814D01*
X192772778Y-110997009D01*
X192772779Y-110997011D01*
X192856443Y-111153533D01*
X192871610Y-111203533D01*
X192907963Y-111323373D01*
X192921000Y-111455742D01*
X192921000Y-112344258D01*
X192907963Y-112476627D01*
X192877629Y-112576624D01*
X192856443Y-112646467D01*
X192802991Y-112746467D01*
X192772778Y-112802991D01*
X192743448Y-112838729D01*
X192660186Y-112940186D01*
X192558729Y-113023448D01*
X192522991Y-113052778D01*
X192522989Y-113052779D01*
X192366467Y-113136443D01*
X192312617Y-113152778D01*
X192196627Y-113187963D01*
X192020000Y-113205359D01*
X191843374Y-113187963D01*
X191727384Y-113152778D01*
X191673534Y-113136443D01*
X191517012Y-113052779D01*
X191517010Y-113052778D01*
X191481272Y-113023448D01*
X191379815Y-112940186D01*
X191296553Y-112838729D01*
X191267223Y-112802991D01*
X191237010Y-112746467D01*
X191183558Y-112646467D01*
X191162372Y-112576624D01*
X191132038Y-112476627D01*
X191119000Y-112344258D01*
X191119000Y-111455743D01*
X191132037Y-111323374D01*
X191183557Y-111153535D01*
X191183557Y-111153534D01*
X191267221Y-110997011D01*
X191379814Y-110859814D01*
X191497105Y-110763557D01*
X191517009Y-110747222D01*
X191615380Y-110694641D01*
X191673533Y-110663557D01*
X191735892Y-110644641D01*
X191843373Y-110612037D01*
X192020000Y-110594641D01*
X192196626Y-110612037D01*
X192196626Y-110612037D01*
G37*
G36*
X194736626Y-110612037D02*
X194844107Y-110644641D01*
X194906466Y-110663557D01*
X195062989Y-110747221D01*
X195200186Y-110859814D01*
X195282253Y-110959814D01*
X195312778Y-110997009D01*
X195312779Y-110997011D01*
X195396443Y-111153533D01*
X195411610Y-111203533D01*
X195447963Y-111323373D01*
X195461000Y-111455742D01*
X195461000Y-112344258D01*
X195447963Y-112476627D01*
X195417629Y-112576624D01*
X195396443Y-112646467D01*
X195342991Y-112746467D01*
X195312778Y-112802991D01*
X195283448Y-112838729D01*
X195200186Y-112940186D01*
X195098729Y-113023448D01*
X195062991Y-113052778D01*
X195062989Y-113052779D01*
X194906467Y-113136443D01*
X194852617Y-113152778D01*
X194736627Y-113187963D01*
X194560000Y-113205359D01*
X194383374Y-113187963D01*
X194267384Y-113152778D01*
X194213534Y-113136443D01*
X194057012Y-113052779D01*
X194057010Y-113052778D01*
X194021272Y-113023448D01*
X193919815Y-112940186D01*
X193836553Y-112838729D01*
X193807223Y-112802991D01*
X193777010Y-112746467D01*
X193723558Y-112646467D01*
X193702372Y-112576624D01*
X193672038Y-112476627D01*
X193659000Y-112344258D01*
X193659000Y-111455743D01*
X193672037Y-111323374D01*
X193723557Y-111153535D01*
X193723557Y-111153534D01*
X193807221Y-110997011D01*
X193919814Y-110859814D01*
X194037105Y-110763557D01*
X194057009Y-110747222D01*
X194155380Y-110694641D01*
X194213533Y-110663557D01*
X194275892Y-110644641D01*
X194383373Y-110612037D01*
X194560000Y-110594641D01*
X194736626Y-110612037D01*
X194736626Y-110612037D01*
G37*
G36*
X199816626Y-110612037D02*
X199924107Y-110644641D01*
X199986466Y-110663557D01*
X200142989Y-110747221D01*
X200280186Y-110859814D01*
X200362253Y-110959814D01*
X200392778Y-110997009D01*
X200392779Y-110997011D01*
X200476443Y-111153533D01*
X200491610Y-111203533D01*
X200527963Y-111323373D01*
X200541000Y-111455742D01*
X200541000Y-112344258D01*
X200527963Y-112476627D01*
X200497629Y-112576624D01*
X200476443Y-112646467D01*
X200422991Y-112746467D01*
X200392778Y-112802991D01*
X200363448Y-112838729D01*
X200280186Y-112940186D01*
X200178729Y-113023448D01*
X200142991Y-113052778D01*
X200142989Y-113052779D01*
X199986467Y-113136443D01*
X199932617Y-113152778D01*
X199816627Y-113187963D01*
X199640000Y-113205359D01*
X199463374Y-113187963D01*
X199347384Y-113152778D01*
X199293534Y-113136443D01*
X199137012Y-113052779D01*
X199137010Y-113052778D01*
X199101272Y-113023448D01*
X198999815Y-112940186D01*
X198916553Y-112838729D01*
X198887223Y-112802991D01*
X198857010Y-112746467D01*
X198803558Y-112646467D01*
X198782372Y-112576624D01*
X198752038Y-112476627D01*
X198739000Y-112344258D01*
X198739000Y-111455743D01*
X198752037Y-111323374D01*
X198803557Y-111153535D01*
X198803557Y-111153534D01*
X198887221Y-110997011D01*
X198999814Y-110859814D01*
X199117105Y-110763557D01*
X199137009Y-110747222D01*
X199235380Y-110694641D01*
X199293533Y-110663557D01*
X199355892Y-110644641D01*
X199463373Y-110612037D01*
X199640000Y-110594641D01*
X199816626Y-110612037D01*
X199816626Y-110612037D01*
G37*
G36*
X220510443Y-107105519D02*
X220576627Y-107112037D01*
X220689853Y-107146384D01*
X220746467Y-107163557D01*
X220885087Y-107237652D01*
X220902991Y-107247222D01*
X220938729Y-107276552D01*
X221040186Y-107359814D01*
X221123448Y-107461271D01*
X221152778Y-107497009D01*
X221152779Y-107497011D01*
X221236443Y-107653533D01*
X221236443Y-107653534D01*
X221287963Y-107823373D01*
X221305359Y-108000000D01*
X221287963Y-108176627D01*
X221253616Y-108289853D01*
X221236443Y-108346467D01*
X221162348Y-108485087D01*
X221152778Y-108502991D01*
X221123448Y-108538729D01*
X221040186Y-108640186D01*
X220938729Y-108723448D01*
X220902991Y-108752778D01*
X220902989Y-108752779D01*
X220746467Y-108836443D01*
X220689853Y-108853616D01*
X220576627Y-108887963D01*
X220510442Y-108894482D01*
X220444260Y-108901000D01*
X219555740Y-108901000D01*
X219489558Y-108894482D01*
X219423373Y-108887963D01*
X219310147Y-108853616D01*
X219253533Y-108836443D01*
X219097011Y-108752779D01*
X219097009Y-108752778D01*
X219061271Y-108723448D01*
X218959814Y-108640186D01*
X218876552Y-108538729D01*
X218847222Y-108502991D01*
X218837652Y-108485087D01*
X218763557Y-108346467D01*
X218746384Y-108289853D01*
X218712037Y-108176627D01*
X218694641Y-108000000D01*
X218712037Y-107823373D01*
X218763557Y-107653534D01*
X218763557Y-107653533D01*
X218847221Y-107497011D01*
X218847222Y-107497009D01*
X218876552Y-107461271D01*
X218959814Y-107359814D01*
X219061271Y-107276552D01*
X219097009Y-107247222D01*
X219114913Y-107237652D01*
X219253533Y-107163557D01*
X219310147Y-107146384D01*
X219423373Y-107112037D01*
X219489557Y-107105519D01*
X219555740Y-107099000D01*
X220444260Y-107099000D01*
X220510443Y-107105519D01*
X220510443Y-107105519D01*
G37*
G36*
X227010443Y-107105519D02*
X227076627Y-107112037D01*
X227189853Y-107146384D01*
X227246467Y-107163557D01*
X227385087Y-107237652D01*
X227402991Y-107247222D01*
X227438729Y-107276552D01*
X227540186Y-107359814D01*
X227623448Y-107461271D01*
X227652778Y-107497009D01*
X227652779Y-107497011D01*
X227736443Y-107653533D01*
X227736443Y-107653534D01*
X227787963Y-107823373D01*
X227805359Y-108000000D01*
X227787963Y-108176627D01*
X227753616Y-108289853D01*
X227736443Y-108346467D01*
X227662348Y-108485087D01*
X227652778Y-108502991D01*
X227623448Y-108538729D01*
X227540186Y-108640186D01*
X227438729Y-108723448D01*
X227402991Y-108752778D01*
X227402989Y-108752779D01*
X227246467Y-108836443D01*
X227189853Y-108853616D01*
X227076627Y-108887963D01*
X227010442Y-108894482D01*
X226944260Y-108901000D01*
X226055740Y-108901000D01*
X225989558Y-108894482D01*
X225923373Y-108887963D01*
X225810147Y-108853616D01*
X225753533Y-108836443D01*
X225597011Y-108752779D01*
X225597009Y-108752778D01*
X225561271Y-108723448D01*
X225459814Y-108640186D01*
X225376552Y-108538729D01*
X225347222Y-108502991D01*
X225337652Y-108485087D01*
X225263557Y-108346467D01*
X225246384Y-108289853D01*
X225212037Y-108176627D01*
X225194641Y-108000000D01*
X225212037Y-107823373D01*
X225263557Y-107653534D01*
X225263557Y-107653533D01*
X225347221Y-107497011D01*
X225347222Y-107497009D01*
X225376552Y-107461271D01*
X225459814Y-107359814D01*
X225561271Y-107276552D01*
X225597009Y-107247222D01*
X225614913Y-107237652D01*
X225753533Y-107163557D01*
X225810147Y-107146384D01*
X225923373Y-107112037D01*
X225989557Y-107105519D01*
X226055740Y-107099000D01*
X226944260Y-107099000D01*
X227010443Y-107105519D01*
X227010443Y-107105519D01*
G37*
G36*
X232151000Y-105351000D02*
X230349000Y-105351000D01*
X230349000Y-103549000D01*
X232151000Y-103549000D01*
X232151000Y-105351000D01*
X232151000Y-105351000D01*
G37*
G36*
X234651000Y-105301000D02*
X232849000Y-105301000D01*
X232849000Y-103499000D01*
X234651000Y-103499000D01*
X234651000Y-105301000D01*
X234651000Y-105301000D01*
G37*
G36*
X239663000Y-105163000D02*
X238037000Y-105163000D01*
X238037000Y-103537000D01*
X239663000Y-103537000D01*
X239663000Y-105163000D01*
X239663000Y-105163000D01*
G37*
G36*
X237163000Y-105163000D02*
X235537000Y-105163000D01*
X235537000Y-103537000D01*
X237163000Y-103537000D01*
X237163000Y-105163000D01*
X237163000Y-105163000D01*
G37*
G36*
X147906031Y-99434207D02*
X148104145Y-99494305D01*
X148286729Y-99591897D01*
X148446765Y-99723235D01*
X148446766Y-99723237D01*
X148446768Y-99723238D01*
X148525568Y-99819257D01*
X148578103Y-99883271D01*
X148675695Y-100065854D01*
X148735793Y-100263968D01*
X148751000Y-100418370D01*
X148751000Y-101521630D01*
X148735793Y-101676032D01*
X148675695Y-101874146D01*
X148578103Y-102056729D01*
X148446765Y-102216765D01*
X148286729Y-102348103D01*
X148104146Y-102445695D01*
X147906032Y-102505793D01*
X147700000Y-102526085D01*
X147493969Y-102505793D01*
X147295855Y-102445695D01*
X147113272Y-102348103D01*
X146953236Y-102216765D01*
X146821899Y-102056731D01*
X146724306Y-101874148D01*
X146664207Y-101676028D01*
X146649000Y-101521631D01*
X146649000Y-100418370D01*
X146664207Y-100263973D01*
X146664207Y-100263969D01*
X146724305Y-100065855D01*
X146821897Y-99883271D01*
X146953235Y-99723235D01*
X146953237Y-99723234D01*
X146953238Y-99723232D01*
X147113269Y-99591899D01*
X147113271Y-99591897D01*
X147295854Y-99494305D01*
X147493968Y-99434207D01*
X147700000Y-99413915D01*
X147906031Y-99434207D01*
X147906031Y-99434207D01*
G37*
G36*
X150446031Y-99434207D02*
X150644145Y-99494305D01*
X150826729Y-99591897D01*
X150986765Y-99723235D01*
X150986766Y-99723237D01*
X150986768Y-99723238D01*
X151065568Y-99819257D01*
X151118103Y-99883271D01*
X151215695Y-100065854D01*
X151275793Y-100263968D01*
X151291000Y-100418370D01*
X151291000Y-101521630D01*
X151275793Y-101676032D01*
X151215695Y-101874146D01*
X151118103Y-102056729D01*
X150986765Y-102216765D01*
X150826729Y-102348103D01*
X150644146Y-102445695D01*
X150446032Y-102505793D01*
X150240000Y-102526085D01*
X150033969Y-102505793D01*
X149835855Y-102445695D01*
X149653272Y-102348103D01*
X149493236Y-102216765D01*
X149361899Y-102056731D01*
X149264306Y-101874148D01*
X149204207Y-101676028D01*
X149189000Y-101521631D01*
X149189000Y-100418370D01*
X149204207Y-100263973D01*
X149204207Y-100263969D01*
X149264305Y-100065855D01*
X149361897Y-99883271D01*
X149493235Y-99723235D01*
X149493237Y-99723234D01*
X149493238Y-99723232D01*
X149653269Y-99591899D01*
X149653271Y-99591897D01*
X149835854Y-99494305D01*
X150033968Y-99434207D01*
X150240000Y-99413915D01*
X150446031Y-99434207D01*
X150446031Y-99434207D01*
G37*
G36*
X152986031Y-99434207D02*
X153184145Y-99494305D01*
X153366729Y-99591897D01*
X153526765Y-99723235D01*
X153526766Y-99723237D01*
X153526768Y-99723238D01*
X153605568Y-99819257D01*
X153658103Y-99883271D01*
X153755695Y-100065854D01*
X153815793Y-100263968D01*
X153831000Y-100418370D01*
X153831000Y-101521630D01*
X153815793Y-101676032D01*
X153755695Y-101874146D01*
X153658103Y-102056729D01*
X153526765Y-102216765D01*
X153366729Y-102348103D01*
X153184146Y-102445695D01*
X152986032Y-102505793D01*
X152780000Y-102526085D01*
X152573969Y-102505793D01*
X152375855Y-102445695D01*
X152193272Y-102348103D01*
X152033236Y-102216765D01*
X151901899Y-102056731D01*
X151804306Y-101874148D01*
X151744207Y-101676028D01*
X151729000Y-101521631D01*
X151729000Y-100418370D01*
X151744207Y-100263973D01*
X151744207Y-100263969D01*
X151804305Y-100065855D01*
X151901897Y-99883271D01*
X152033235Y-99723235D01*
X152033237Y-99723234D01*
X152033238Y-99723232D01*
X152193269Y-99591899D01*
X152193271Y-99591897D01*
X152375854Y-99494305D01*
X152573968Y-99434207D01*
X152780000Y-99413915D01*
X152986031Y-99434207D01*
X152986031Y-99434207D01*
G37*
G36*
X220851000Y-96851000D02*
X219149000Y-96851000D01*
X219149000Y-95149000D01*
X220851000Y-95149000D01*
X220851000Y-96851000D01*
X220851000Y-96851000D01*
G37*
G36*
X224851000Y-96851000D02*
X223149000Y-96851000D01*
X223149000Y-95149000D01*
X224851000Y-95149000D01*
X224851000Y-96851000D01*
X224851000Y-96851000D01*
G37*
G36*
X156077618Y-91058420D02*
X156138093Y-91076765D01*
X156200333Y-91095645D01*
X156278538Y-91137447D01*
X156313426Y-91156095D01*
X156412553Y-91237447D01*
X156493905Y-91336574D01*
X156493906Y-91336576D01*
X156554355Y-91449667D01*
X156554355Y-91449668D01*
X156591580Y-91572382D01*
X156601000Y-91668027D01*
X156601000Y-92531973D01*
X156591580Y-92627618D01*
X156580982Y-92662555D01*
X156554355Y-92750333D01*
X156525720Y-92803905D01*
X156493905Y-92863426D01*
X156412553Y-92962553D01*
X156313425Y-93043905D01*
X156260782Y-93072043D01*
X156200332Y-93104355D01*
X156159426Y-93116763D01*
X156077617Y-93141580D01*
X155950000Y-93154149D01*
X155822382Y-93141580D01*
X155740573Y-93116763D01*
X155699667Y-93104355D01*
X155586576Y-93043906D01*
X155586574Y-93043905D01*
X155487447Y-92962553D01*
X155406095Y-92863425D01*
X155352644Y-92763426D01*
X155345645Y-92750332D01*
X155333237Y-92709426D01*
X155308420Y-92627617D01*
X155299000Y-92531972D01*
X155299000Y-91668027D01*
X155308420Y-91572382D01*
X155345646Y-91449668D01*
X155345646Y-91449667D01*
X155406095Y-91336576D01*
X155406096Y-91336574D01*
X155487448Y-91237447D01*
X155586575Y-91156095D01*
X155621463Y-91137447D01*
X155699668Y-91095645D01*
X155761908Y-91076765D01*
X155822383Y-91058420D01*
X155950000Y-91045851D01*
X156077618Y-91058420D01*
X156077618Y-91058420D01*
G37*
G36*
X154077618Y-91058420D02*
X154138093Y-91076765D01*
X154200333Y-91095645D01*
X154278538Y-91137447D01*
X154313426Y-91156095D01*
X154412553Y-91237447D01*
X154493905Y-91336574D01*
X154493906Y-91336576D01*
X154554355Y-91449667D01*
X154554355Y-91449668D01*
X154591580Y-91572382D01*
X154601000Y-91668027D01*
X154601000Y-92531973D01*
X154591580Y-92627618D01*
X154580982Y-92662555D01*
X154554355Y-92750333D01*
X154525720Y-92803905D01*
X154493905Y-92863426D01*
X154412553Y-92962553D01*
X154313425Y-93043905D01*
X154260782Y-93072043D01*
X154200332Y-93104355D01*
X154159426Y-93116763D01*
X154077617Y-93141580D01*
X153950000Y-93154149D01*
X153822382Y-93141580D01*
X153740573Y-93116763D01*
X153699667Y-93104355D01*
X153586576Y-93043906D01*
X153586574Y-93043905D01*
X153487447Y-92962553D01*
X153406095Y-92863425D01*
X153352644Y-92763426D01*
X153345645Y-92750332D01*
X153333237Y-92709426D01*
X153308420Y-92627617D01*
X153299000Y-92531972D01*
X153299000Y-91668027D01*
X153308420Y-91572382D01*
X153345646Y-91449668D01*
X153345646Y-91449667D01*
X153406095Y-91336576D01*
X153406096Y-91336574D01*
X153487448Y-91237447D01*
X153586575Y-91156095D01*
X153621463Y-91137447D01*
X153699668Y-91095645D01*
X153761908Y-91076765D01*
X153822383Y-91058420D01*
X153950000Y-91045851D01*
X154077618Y-91058420D01*
X154077618Y-91058420D01*
G37*
G36*
X174927618Y-90958420D02*
X175009427Y-90983237D01*
X175050333Y-90995645D01*
X175126905Y-91036574D01*
X175163426Y-91056095D01*
X175262553Y-91137447D01*
X175343905Y-91236574D01*
X175343906Y-91236576D01*
X175404355Y-91349667D01*
X175416763Y-91390573D01*
X175441580Y-91472382D01*
X175451000Y-91568027D01*
X175451000Y-92431973D01*
X175441580Y-92527618D01*
X175416763Y-92609427D01*
X175404355Y-92650333D01*
X175397824Y-92662551D01*
X175343905Y-92763426D01*
X175262553Y-92862553D01*
X175262551Y-92862555D01*
X175214998Y-92901580D01*
X175163425Y-92943905D01*
X175128537Y-92962553D01*
X175050332Y-93004355D01*
X175009426Y-93016763D01*
X174927617Y-93041580D01*
X174800000Y-93054149D01*
X174672382Y-93041580D01*
X174590573Y-93016763D01*
X174549667Y-93004355D01*
X174436576Y-92943906D01*
X174436574Y-92943905D01*
X174337447Y-92862553D01*
X174256095Y-92763425D01*
X174227957Y-92710782D01*
X174195645Y-92650332D01*
X174169283Y-92563426D01*
X174158420Y-92527617D01*
X174149000Y-92431972D01*
X174149000Y-91568027D01*
X174158420Y-91472382D01*
X174195646Y-91349668D01*
X174195646Y-91349667D01*
X174256095Y-91236576D01*
X174256096Y-91236574D01*
X174337448Y-91137447D01*
X174436575Y-91056095D01*
X174473096Y-91036574D01*
X174549668Y-90995645D01*
X174590574Y-90983237D01*
X174672383Y-90958420D01*
X174800000Y-90945851D01*
X174927618Y-90958420D01*
X174927618Y-90958420D01*
G37*
G36*
X172927618Y-90958420D02*
X173009427Y-90983237D01*
X173050333Y-90995645D01*
X173126905Y-91036574D01*
X173163426Y-91056095D01*
X173262553Y-91137447D01*
X173343905Y-91236574D01*
X173343906Y-91236576D01*
X173404355Y-91349667D01*
X173416763Y-91390573D01*
X173441580Y-91472382D01*
X173451000Y-91568027D01*
X173451000Y-92431973D01*
X173441580Y-92527618D01*
X173416763Y-92609427D01*
X173404355Y-92650333D01*
X173397824Y-92662551D01*
X173343905Y-92763426D01*
X173262553Y-92862553D01*
X173262551Y-92862555D01*
X173214998Y-92901580D01*
X173163425Y-92943905D01*
X173128537Y-92962553D01*
X173050332Y-93004355D01*
X173009426Y-93016763D01*
X172927617Y-93041580D01*
X172800000Y-93054149D01*
X172672382Y-93041580D01*
X172590573Y-93016763D01*
X172549667Y-93004355D01*
X172436576Y-92943906D01*
X172436574Y-92943905D01*
X172337447Y-92862553D01*
X172256095Y-92763425D01*
X172227957Y-92710782D01*
X172195645Y-92650332D01*
X172169283Y-92563426D01*
X172158420Y-92527617D01*
X172149000Y-92431972D01*
X172149000Y-91568027D01*
X172158420Y-91472382D01*
X172195646Y-91349668D01*
X172195646Y-91349667D01*
X172256095Y-91236576D01*
X172256096Y-91236574D01*
X172337448Y-91137447D01*
X172436575Y-91056095D01*
X172473096Y-91036574D01*
X172549668Y-90995645D01*
X172590574Y-90983237D01*
X172672383Y-90958420D01*
X172800000Y-90945851D01*
X172927618Y-90958420D01*
X172927618Y-90958420D01*
G37*
G36*
X139477617Y-90818420D02*
X139559426Y-90843237D01*
X139600332Y-90855645D01*
X139660782Y-90887957D01*
X139713425Y-90916095D01*
X139714200Y-90916731D01*
X139810358Y-90995645D01*
X139812553Y-90997447D01*
X139893905Y-91096574D01*
X139893906Y-91096576D01*
X139954355Y-91209667D01*
X139962782Y-91237447D01*
X139991580Y-91332382D01*
X140001000Y-91428027D01*
X140001000Y-92291973D01*
X139991580Y-92387618D01*
X139966763Y-92469427D01*
X139954355Y-92510333D01*
X139925977Y-92563424D01*
X139893905Y-92623426D01*
X139812553Y-92722553D01*
X139713426Y-92803905D01*
X139713424Y-92803906D01*
X139600333Y-92864355D01*
X139559427Y-92876763D01*
X139477618Y-92901580D01*
X139350000Y-92914149D01*
X139222383Y-92901580D01*
X139140574Y-92876763D01*
X139099668Y-92864355D01*
X138986577Y-92803906D01*
X138986575Y-92803905D01*
X138887448Y-92722553D01*
X138806096Y-92623426D01*
X138774024Y-92563424D01*
X138745646Y-92510333D01*
X138739734Y-92490843D01*
X138708420Y-92387618D01*
X138699000Y-92291973D01*
X138699000Y-91428028D01*
X138708420Y-91332383D01*
X138745645Y-91209669D01*
X138745645Y-91209668D01*
X138777957Y-91149218D01*
X138806095Y-91096575D01*
X138887447Y-90997447D01*
X138986574Y-90916095D01*
X138999509Y-90909181D01*
X139099667Y-90855645D01*
X139140573Y-90843237D01*
X139222382Y-90818420D01*
X139350000Y-90805851D01*
X139477617Y-90818420D01*
X139477617Y-90818420D01*
G37*
G36*
X137477617Y-90818420D02*
X137559426Y-90843237D01*
X137600332Y-90855645D01*
X137660782Y-90887957D01*
X137713425Y-90916095D01*
X137714200Y-90916731D01*
X137810358Y-90995645D01*
X137812553Y-90997447D01*
X137893905Y-91096574D01*
X137893906Y-91096576D01*
X137954355Y-91209667D01*
X137962782Y-91237447D01*
X137991580Y-91332382D01*
X138001000Y-91428027D01*
X138001000Y-92291973D01*
X137991580Y-92387618D01*
X137966763Y-92469427D01*
X137954355Y-92510333D01*
X137925977Y-92563424D01*
X137893905Y-92623426D01*
X137812553Y-92722553D01*
X137713426Y-92803905D01*
X137713424Y-92803906D01*
X137600333Y-92864355D01*
X137559427Y-92876763D01*
X137477618Y-92901580D01*
X137350000Y-92914149D01*
X137222383Y-92901580D01*
X137140574Y-92876763D01*
X137099668Y-92864355D01*
X136986577Y-92803906D01*
X136986575Y-92803905D01*
X136887448Y-92722553D01*
X136806096Y-92623426D01*
X136774024Y-92563424D01*
X136745646Y-92510333D01*
X136739734Y-92490843D01*
X136708420Y-92387618D01*
X136699000Y-92291973D01*
X136699000Y-91428028D01*
X136708420Y-91332383D01*
X136745645Y-91209669D01*
X136745645Y-91209668D01*
X136777957Y-91149218D01*
X136806095Y-91096575D01*
X136887447Y-90997447D01*
X136986574Y-90916095D01*
X136999509Y-90909181D01*
X137099667Y-90855645D01*
X137140573Y-90843237D01*
X137222382Y-90818420D01*
X137350000Y-90805851D01*
X137477617Y-90818420D01*
X137477617Y-90818420D01*
G37*
G36*
X143627618Y-90758420D02*
X143709427Y-90783237D01*
X143750333Y-90795645D01*
X143850491Y-90849181D01*
X143863426Y-90856095D01*
X143962553Y-90937447D01*
X144043905Y-91036574D01*
X144043906Y-91036576D01*
X144104355Y-91149667D01*
X144106305Y-91156095D01*
X144141580Y-91272382D01*
X144151000Y-91368027D01*
X144151000Y-92231973D01*
X144141580Y-92327618D01*
X144123380Y-92387616D01*
X144104355Y-92450333D01*
X144050819Y-92550491D01*
X144043905Y-92563426D01*
X143962553Y-92662553D01*
X143863425Y-92743905D01*
X143826904Y-92763426D01*
X143750332Y-92804355D01*
X143709426Y-92816763D01*
X143627617Y-92841580D01*
X143500000Y-92854149D01*
X143372382Y-92841580D01*
X143290573Y-92816763D01*
X143249667Y-92804355D01*
X143136576Y-92743906D01*
X143136574Y-92743905D01*
X143037447Y-92662553D01*
X143027418Y-92650332D01*
X142956096Y-92563426D01*
X142956095Y-92563424D01*
X142895646Y-92450333D01*
X142895645Y-92450332D01*
X142876621Y-92387616D01*
X142858420Y-92327617D01*
X142849000Y-92231972D01*
X142849000Y-91368027D01*
X142858420Y-91272382D01*
X142893696Y-91156095D01*
X142895646Y-91149667D01*
X142956095Y-91036576D01*
X142956096Y-91036574D01*
X143037448Y-90937447D01*
X143136575Y-90856095D01*
X143149510Y-90849181D01*
X143249668Y-90795645D01*
X143290574Y-90783237D01*
X143372383Y-90758420D01*
X143500000Y-90745851D01*
X143627618Y-90758420D01*
X143627618Y-90758420D01*
G37*
G36*
X145627618Y-90758420D02*
X145709427Y-90783237D01*
X145750333Y-90795645D01*
X145850491Y-90849181D01*
X145863426Y-90856095D01*
X145962553Y-90937447D01*
X146043905Y-91036574D01*
X146043906Y-91036576D01*
X146104355Y-91149667D01*
X146106305Y-91156095D01*
X146141580Y-91272382D01*
X146151000Y-91368027D01*
X146151000Y-92231973D01*
X146141580Y-92327618D01*
X146123380Y-92387616D01*
X146104355Y-92450333D01*
X146050819Y-92550491D01*
X146043905Y-92563426D01*
X145962553Y-92662553D01*
X145863425Y-92743905D01*
X145826904Y-92763426D01*
X145750332Y-92804355D01*
X145709426Y-92816763D01*
X145627617Y-92841580D01*
X145500000Y-92854149D01*
X145372382Y-92841580D01*
X145290573Y-92816763D01*
X145249667Y-92804355D01*
X145136576Y-92743906D01*
X145136574Y-92743905D01*
X145037447Y-92662553D01*
X145027418Y-92650332D01*
X144956096Y-92563426D01*
X144956095Y-92563424D01*
X144895646Y-92450333D01*
X144895645Y-92450332D01*
X144876621Y-92387616D01*
X144858420Y-92327617D01*
X144849000Y-92231972D01*
X144849000Y-91368027D01*
X144858420Y-91272382D01*
X144893696Y-91156095D01*
X144895646Y-91149667D01*
X144956095Y-91036576D01*
X144956096Y-91036574D01*
X145037448Y-90937447D01*
X145136575Y-90856095D01*
X145149510Y-90849181D01*
X145249668Y-90795645D01*
X145290574Y-90783237D01*
X145372383Y-90758420D01*
X145500000Y-90745851D01*
X145627618Y-90758420D01*
X145627618Y-90758420D01*
G37*
G36*
X124852510Y-89282041D02*
X124976032Y-89294207D01*
X125174146Y-89354305D01*
X125356729Y-89451897D01*
X125516765Y-89583235D01*
X125648103Y-89743271D01*
X125745695Y-89925854D01*
X125805793Y-90123968D01*
X125826085Y-90330000D01*
X125805793Y-90536032D01*
X125745695Y-90734146D01*
X125648103Y-90916729D01*
X125516765Y-91076765D01*
X125356729Y-91208103D01*
X125174146Y-91305695D01*
X124976032Y-91365793D01*
X124852510Y-91377959D01*
X124821631Y-91381000D01*
X123718369Y-91381000D01*
X123687490Y-91377959D01*
X123563968Y-91365793D01*
X123365854Y-91305695D01*
X123183271Y-91208103D01*
X123023235Y-91076765D01*
X122891897Y-90916729D01*
X122794305Y-90734146D01*
X122734207Y-90536032D01*
X122713915Y-90330000D01*
X122734207Y-90123968D01*
X122794305Y-89925854D01*
X122891897Y-89743271D01*
X123023235Y-89583235D01*
X123183271Y-89451897D01*
X123365854Y-89354305D01*
X123563968Y-89294207D01*
X123687490Y-89282041D01*
X123718369Y-89279000D01*
X124821631Y-89279000D01*
X124852510Y-89282041D01*
X124852510Y-89282041D01*
G37*
G36*
X124852510Y-86742041D02*
X124976032Y-86754207D01*
X125174146Y-86814305D01*
X125356729Y-86911897D01*
X125516765Y-87043235D01*
X125648103Y-87203271D01*
X125745695Y-87385854D01*
X125805793Y-87583968D01*
X125826085Y-87790000D01*
X125805793Y-87996032D01*
X125745695Y-88194146D01*
X125648103Y-88376729D01*
X125516765Y-88536765D01*
X125356729Y-88668103D01*
X125174146Y-88765695D01*
X124976032Y-88825793D01*
X124852510Y-88837959D01*
X124821631Y-88841000D01*
X123718369Y-88841000D01*
X123687490Y-88837959D01*
X123563968Y-88825793D01*
X123365854Y-88765695D01*
X123183271Y-88668103D01*
X123023235Y-88536765D01*
X122891897Y-88376729D01*
X122794305Y-88194146D01*
X122734207Y-87996032D01*
X122713915Y-87790000D01*
X122734207Y-87583968D01*
X122794305Y-87385854D01*
X122891897Y-87203271D01*
X123023235Y-87043235D01*
X123183271Y-86911897D01*
X123365854Y-86814305D01*
X123563968Y-86754207D01*
X123687490Y-86742041D01*
X123718369Y-86739000D01*
X124821631Y-86739000D01*
X124852510Y-86742041D01*
X124852510Y-86742041D01*
G37*
G36*
X192851000Y-87851000D02*
X191149000Y-87851000D01*
X191149000Y-86149000D01*
X192851000Y-86149000D01*
X192851000Y-87851000D01*
X192851000Y-87851000D01*
G37*
G36*
X144211000Y-87261000D02*
X142509000Y-87261000D01*
X142509000Y-85559000D01*
X144211000Y-85559000D01*
X144211000Y-87261000D01*
X144211000Y-87261000D01*
G37*
G36*
X159451000Y-87261000D02*
X157749000Y-87261000D01*
X157749000Y-85559000D01*
X159451000Y-85559000D01*
X159451000Y-87261000D01*
X159451000Y-87261000D01*
G37*
G36*
X124882510Y-82932041D02*
X125006032Y-82944207D01*
X125204146Y-83004305D01*
X125386729Y-83101897D01*
X125546765Y-83233235D01*
X125678103Y-83393271D01*
X125775695Y-83575854D01*
X125835793Y-83773968D01*
X125856085Y-83980000D01*
X125835793Y-84186032D01*
X125775695Y-84384146D01*
X125678103Y-84566729D01*
X125546765Y-84726765D01*
X125386729Y-84858103D01*
X125204146Y-84955695D01*
X125006032Y-85015793D01*
X124882510Y-85027959D01*
X124851631Y-85031000D01*
X123748369Y-85031000D01*
X123717490Y-85027959D01*
X123593968Y-85015793D01*
X123395854Y-84955695D01*
X123213271Y-84858103D01*
X123053235Y-84726765D01*
X122921897Y-84566729D01*
X122824305Y-84384146D01*
X122764207Y-84186032D01*
X122743915Y-83980000D01*
X122764207Y-83773968D01*
X122824305Y-83575854D01*
X122921897Y-83393271D01*
X123053235Y-83233235D01*
X123213271Y-83101897D01*
X123395854Y-83004305D01*
X123593968Y-82944207D01*
X123717490Y-82932041D01*
X123748369Y-82929000D01*
X124851631Y-82929000D01*
X124882510Y-82932041D01*
X124882510Y-82932041D01*
G37*
G36*
X237171000Y-84161000D02*
X235369000Y-84161000D01*
X235369000Y-82359000D01*
X237171000Y-82359000D01*
X237171000Y-84161000D01*
X237171000Y-84161000D01*
G37*
G36*
X239711000Y-84161000D02*
X237909000Y-84161000D01*
X237909000Y-82359000D01*
X239711000Y-82359000D01*
X239711000Y-84161000D01*
X239711000Y-84161000D01*
G37*
G36*
X242251000Y-84161000D02*
X240449000Y-84161000D01*
X240449000Y-82359000D01*
X242251000Y-82359000D01*
X242251000Y-84161000D01*
X242251000Y-84161000D01*
G37*
G36*
X234631000Y-84161000D02*
X232829000Y-84161000D01*
X232829000Y-82359000D01*
X234631000Y-82359000D01*
X234631000Y-84161000D01*
X234631000Y-84161000D01*
G37*
G36*
X232091000Y-84161000D02*
X230289000Y-84161000D01*
X230289000Y-82359000D01*
X232091000Y-82359000D01*
X232091000Y-84161000D01*
X232091000Y-84161000D01*
G37*
G36*
X229551000Y-84161000D02*
X227749000Y-84161000D01*
X227749000Y-82359000D01*
X229551000Y-82359000D01*
X229551000Y-84161000D01*
X229551000Y-84161000D01*
G37*
G36*
X169737916Y-79232334D02*
X169846492Y-79265271D01*
X169946557Y-79318756D01*
X170034264Y-79390736D01*
X170106244Y-79478443D01*
X170159729Y-79578508D01*
X170192666Y-79687084D01*
X170203787Y-79800000D01*
X170192666Y-79912916D01*
X170159729Y-80021492D01*
X170159726Y-80021497D01*
X170106244Y-80121557D01*
X170034264Y-80209264D01*
X169946557Y-80281244D01*
X169865143Y-80324760D01*
X169844768Y-80338373D01*
X169827441Y-80355701D01*
X169813827Y-80376075D01*
X169804450Y-80398714D01*
X169799669Y-80422747D01*
X169799669Y-80447252D01*
X169804449Y-80471285D01*
X169813827Y-80493924D01*
X169827440Y-80514299D01*
X169844768Y-80531626D01*
X169865143Y-80545240D01*
X169946557Y-80588756D01*
X170034264Y-80660736D01*
X170106244Y-80748443D01*
X170159729Y-80848508D01*
X170192666Y-80957084D01*
X170203787Y-81070000D01*
X170192666Y-81182916D01*
X170159729Y-81291492D01*
X170159726Y-81291497D01*
X170106244Y-81391557D01*
X170034264Y-81479264D01*
X169946557Y-81551244D01*
X169865143Y-81594760D01*
X169844768Y-81608373D01*
X169827441Y-81625701D01*
X169813827Y-81646075D01*
X169804450Y-81668714D01*
X169799669Y-81692747D01*
X169799669Y-81717252D01*
X169804449Y-81741285D01*
X169813827Y-81763924D01*
X169827440Y-81784299D01*
X169844768Y-81801626D01*
X169865143Y-81815240D01*
X169946557Y-81858756D01*
X170034264Y-81930736D01*
X170106244Y-82018443D01*
X170159729Y-82118508D01*
X170192666Y-82227084D01*
X170203787Y-82340000D01*
X170192666Y-82452916D01*
X170159729Y-82561492D01*
X170106244Y-82661557D01*
X170034264Y-82749264D01*
X169946557Y-82821244D01*
X169846492Y-82874729D01*
X169737916Y-82907666D01*
X169653298Y-82916000D01*
X169146702Y-82916000D01*
X169062084Y-82907666D01*
X168953508Y-82874729D01*
X168853443Y-82821244D01*
X168765736Y-82749264D01*
X168693756Y-82661557D01*
X168640271Y-82561492D01*
X168607334Y-82452916D01*
X168596213Y-82340000D01*
X168607334Y-82227084D01*
X168640271Y-82118508D01*
X168693756Y-82018443D01*
X168765736Y-81930736D01*
X168853443Y-81858756D01*
X168934857Y-81815240D01*
X168955232Y-81801627D01*
X168972559Y-81784299D01*
X168986173Y-81763925D01*
X168995550Y-81741286D01*
X169000331Y-81717253D01*
X169000331Y-81692748D01*
X168995551Y-81668715D01*
X168986173Y-81646076D01*
X168972560Y-81625701D01*
X168955232Y-81608374D01*
X168934857Y-81594760D01*
X168853443Y-81551244D01*
X168765736Y-81479264D01*
X168693756Y-81391557D01*
X168640274Y-81291497D01*
X168640271Y-81291492D01*
X168607334Y-81182916D01*
X168596213Y-81070000D01*
X168607334Y-80957084D01*
X168640271Y-80848508D01*
X168693756Y-80748443D01*
X168765736Y-80660736D01*
X168853443Y-80588756D01*
X168934857Y-80545240D01*
X168955232Y-80531627D01*
X168972559Y-80514299D01*
X168986173Y-80493925D01*
X168995550Y-80471286D01*
X169000331Y-80447253D01*
X169000331Y-80422748D01*
X168995551Y-80398715D01*
X168986173Y-80376076D01*
X168972560Y-80355701D01*
X168955232Y-80338374D01*
X168934857Y-80324760D01*
X168853443Y-80281244D01*
X168765736Y-80209264D01*
X168693756Y-80121557D01*
X168640274Y-80021497D01*
X168640271Y-80021492D01*
X168607334Y-79912916D01*
X168596213Y-79800000D01*
X168607334Y-79687084D01*
X168640271Y-79578508D01*
X168693756Y-79478443D01*
X168765736Y-79390736D01*
X168853443Y-79318756D01*
X168953508Y-79265271D01*
X169062084Y-79232334D01*
X169146702Y-79224000D01*
X169653298Y-79224000D01*
X169737916Y-79232334D01*
X169737916Y-79232334D01*
G37*
G36*
X144337916Y-79162334D02*
X144446492Y-79195271D01*
X144546557Y-79248756D01*
X144634264Y-79320736D01*
X144706244Y-79408443D01*
X144759729Y-79508508D01*
X144792666Y-79617084D01*
X144803787Y-79730000D01*
X144792666Y-79842916D01*
X144759729Y-79951492D01*
X144759726Y-79951497D01*
X144706244Y-80051557D01*
X144634264Y-80139264D01*
X144546557Y-80211244D01*
X144465143Y-80254760D01*
X144444768Y-80268373D01*
X144427441Y-80285701D01*
X144413827Y-80306075D01*
X144404450Y-80328714D01*
X144399669Y-80352747D01*
X144399669Y-80377252D01*
X144404449Y-80401285D01*
X144413827Y-80423924D01*
X144427440Y-80444299D01*
X144444768Y-80461626D01*
X144465143Y-80475240D01*
X144546557Y-80518756D01*
X144634264Y-80590736D01*
X144706244Y-80678443D01*
X144759729Y-80778508D01*
X144792666Y-80887084D01*
X144803787Y-81000000D01*
X144792666Y-81112916D01*
X144759729Y-81221492D01*
X144753058Y-81233972D01*
X144706244Y-81321557D01*
X144634264Y-81409264D01*
X144546557Y-81481244D01*
X144465143Y-81524760D01*
X144444768Y-81538373D01*
X144427441Y-81555701D01*
X144413827Y-81576075D01*
X144404450Y-81598714D01*
X144399669Y-81622747D01*
X144399669Y-81647252D01*
X144404449Y-81671285D01*
X144413827Y-81693924D01*
X144427440Y-81714299D01*
X144444768Y-81731626D01*
X144465143Y-81745240D01*
X144546557Y-81788756D01*
X144634264Y-81860736D01*
X144706244Y-81948443D01*
X144759729Y-82048508D01*
X144792666Y-82157084D01*
X144803787Y-82270000D01*
X144792666Y-82382916D01*
X144759729Y-82491492D01*
X144706244Y-82591557D01*
X144634264Y-82679264D01*
X144546557Y-82751244D01*
X144446492Y-82804729D01*
X144337916Y-82837666D01*
X144253298Y-82846000D01*
X143746702Y-82846000D01*
X143662084Y-82837666D01*
X143553508Y-82804729D01*
X143453443Y-82751244D01*
X143365736Y-82679264D01*
X143293756Y-82591557D01*
X143240271Y-82491492D01*
X143207334Y-82382916D01*
X143196213Y-82270000D01*
X143207334Y-82157084D01*
X143240271Y-82048508D01*
X143293756Y-81948443D01*
X143365736Y-81860736D01*
X143453443Y-81788756D01*
X143534857Y-81745240D01*
X143555232Y-81731627D01*
X143572559Y-81714299D01*
X143586173Y-81693925D01*
X143595550Y-81671286D01*
X143600331Y-81647253D01*
X143600331Y-81622748D01*
X143595551Y-81598715D01*
X143586173Y-81576076D01*
X143572560Y-81555701D01*
X143555232Y-81538374D01*
X143534857Y-81524760D01*
X143453443Y-81481244D01*
X143365736Y-81409264D01*
X143293756Y-81321557D01*
X143246942Y-81233972D01*
X143240271Y-81221492D01*
X143207334Y-81112916D01*
X143196213Y-81000000D01*
X143207334Y-80887084D01*
X143240271Y-80778508D01*
X143293756Y-80678443D01*
X143365736Y-80590736D01*
X143453443Y-80518756D01*
X143534857Y-80475240D01*
X143555232Y-80461627D01*
X143572559Y-80444299D01*
X143586173Y-80423925D01*
X143595550Y-80401286D01*
X143600331Y-80377253D01*
X143600331Y-80352748D01*
X143595551Y-80328715D01*
X143586173Y-80306076D01*
X143572560Y-80285701D01*
X143555232Y-80268374D01*
X143534857Y-80254760D01*
X143453443Y-80211244D01*
X143365736Y-80139264D01*
X143293756Y-80051557D01*
X143240274Y-79951497D01*
X143240271Y-79951492D01*
X143207334Y-79842916D01*
X143196213Y-79730000D01*
X143207334Y-79617084D01*
X143240271Y-79508508D01*
X143293756Y-79408443D01*
X143365736Y-79320736D01*
X143453443Y-79248756D01*
X143553508Y-79195271D01*
X143662084Y-79162334D01*
X143746702Y-79154000D01*
X144253298Y-79154000D01*
X144337916Y-79162334D01*
X144337916Y-79162334D01*
G37*
G36*
X124882510Y-80392041D02*
X125006032Y-80404207D01*
X125204146Y-80464305D01*
X125386729Y-80561897D01*
X125546765Y-80693235D01*
X125678103Y-80853271D01*
X125775695Y-81035854D01*
X125835793Y-81233968D01*
X125856085Y-81440000D01*
X125835793Y-81646032D01*
X125775695Y-81844146D01*
X125678103Y-82026729D01*
X125546765Y-82186765D01*
X125386729Y-82318103D01*
X125204146Y-82415695D01*
X125006032Y-82475793D01*
X124882510Y-82487959D01*
X124851631Y-82491000D01*
X123748369Y-82491000D01*
X123717490Y-82487959D01*
X123593968Y-82475793D01*
X123395854Y-82415695D01*
X123213271Y-82318103D01*
X123053235Y-82186765D01*
X122921897Y-82026729D01*
X122824305Y-81844146D01*
X122764207Y-81646032D01*
X122743915Y-81440000D01*
X122764207Y-81233968D01*
X122824305Y-81035854D01*
X122921897Y-80853271D01*
X123053235Y-80693235D01*
X123213271Y-80561897D01*
X123395854Y-80464305D01*
X123593968Y-80404207D01*
X123717490Y-80392041D01*
X123748369Y-80389000D01*
X124851631Y-80389000D01*
X124882510Y-80392041D01*
X124882510Y-80392041D01*
G37*
G36*
X224851000Y-81611000D02*
X223149000Y-81611000D01*
X223149000Y-79909000D01*
X224851000Y-79909000D01*
X224851000Y-81611000D01*
X224851000Y-81611000D01*
G37*
G36*
X220851000Y-81611000D02*
X219149000Y-81611000D01*
X219149000Y-79909000D01*
X220851000Y-79909000D01*
X220851000Y-81611000D01*
X220851000Y-81611000D01*
G37*
G36*
X160651000Y-80651000D02*
X158949000Y-80651000D01*
X158949000Y-78949000D01*
X160651000Y-78949000D01*
X160651000Y-80651000D01*
X160651000Y-80651000D01*
G37*
G36*
X135851000Y-79851000D02*
X134149000Y-79851000D01*
X134149000Y-78149000D01*
X135851000Y-78149000D01*
X135851000Y-79851000D01*
X135851000Y-79851000D01*
G37*
G36*
X190251000Y-79651000D02*
X188549000Y-79651000D01*
X188549000Y-77949000D01*
X190251000Y-77949000D01*
X190251000Y-79651000D01*
X190251000Y-79651000D01*
G37*
G36*
X234851000Y-79411000D02*
X230749000Y-79411000D01*
X230749000Y-75309000D01*
X234851000Y-75309000D01*
X234851000Y-79411000D01*
X234851000Y-79411000D01*
G37*
G36*
X205501000Y-77226000D02*
X203699000Y-77226000D01*
X203699000Y-75424000D01*
X205501000Y-75424000D01*
X205501000Y-77226000D01*
X205501000Y-77226000D01*
G37*
G36*
X226001000Y-77226000D02*
X224199000Y-77226000D01*
X224199000Y-75424000D01*
X226001000Y-75424000D01*
X226001000Y-77226000D01*
X226001000Y-77226000D01*
G37*
G36*
X192851000Y-72611000D02*
X191149000Y-72611000D01*
X191149000Y-70909000D01*
X192851000Y-70909000D01*
X192851000Y-72611000D01*
X192851000Y-72611000D01*
G37*
G36*
X124782510Y-69851401D02*
X124906032Y-69863567D01*
X125104146Y-69923665D01*
X125286729Y-70021257D01*
X125446765Y-70152595D01*
X125578103Y-70312631D01*
X125675695Y-70495214D01*
X125735793Y-70693328D01*
X125756085Y-70899360D01*
X125735793Y-71105392D01*
X125675695Y-71303506D01*
X125578103Y-71486089D01*
X125446765Y-71646125D01*
X125286729Y-71777463D01*
X125104146Y-71875055D01*
X124906032Y-71935153D01*
X124782510Y-71947319D01*
X124751631Y-71950360D01*
X123648369Y-71950360D01*
X123617490Y-71947319D01*
X123493968Y-71935153D01*
X123295854Y-71875055D01*
X123113271Y-71777463D01*
X122953235Y-71646125D01*
X122821897Y-71486089D01*
X122724305Y-71303506D01*
X122664207Y-71105392D01*
X122643915Y-70899360D01*
X122664207Y-70693328D01*
X122724305Y-70495214D01*
X122821897Y-70312631D01*
X122953235Y-70152595D01*
X123113271Y-70021257D01*
X123295854Y-69923665D01*
X123493968Y-69863567D01*
X123617490Y-69851401D01*
X123648369Y-69848360D01*
X124751631Y-69848360D01*
X124782510Y-69851401D01*
X124782510Y-69851401D01*
G37*
G36*
X169495039Y-68407825D02*
X169740279Y-68482218D01*
X169740281Y-68482219D01*
X169966295Y-68603026D01*
X170164396Y-68765603D01*
X170297821Y-68928182D01*
X170326975Y-68963706D01*
X170447782Y-69189720D01*
X170522175Y-69434960D01*
X170541000Y-69626095D01*
X170541000Y-70253904D01*
X170522175Y-70445039D01*
X170447782Y-70690279D01*
X170447780Y-70690284D01*
X170326976Y-70916294D01*
X170164397Y-71114397D01*
X169966296Y-71276974D01*
X169966294Y-71276975D01*
X169740280Y-71397782D01*
X169495040Y-71472175D01*
X169240000Y-71497294D01*
X168984961Y-71472175D01*
X168739721Y-71397782D01*
X168513707Y-71276975D01*
X168513705Y-71276974D01*
X168315604Y-71114397D01*
X168153026Y-70916295D01*
X168149127Y-70909000D01*
X168032218Y-70690280D01*
X167957825Y-70445040D01*
X167939000Y-70253905D01*
X167939000Y-69626096D01*
X167957825Y-69434961D01*
X168032218Y-69189721D01*
X168050796Y-69154964D01*
X168153026Y-68963705D01*
X168315603Y-68765604D01*
X168513705Y-68603026D01*
X168513704Y-68603026D01*
X168513706Y-68603025D01*
X168739720Y-68482218D01*
X168984960Y-68407825D01*
X169240000Y-68382706D01*
X169495039Y-68407825D01*
X169495039Y-68407825D01*
G37*
G36*
X181495039Y-68407825D02*
X181740279Y-68482218D01*
X181740281Y-68482219D01*
X181966295Y-68603026D01*
X182164396Y-68765603D01*
X182297821Y-68928182D01*
X182326975Y-68963706D01*
X182447782Y-69189720D01*
X182522175Y-69434960D01*
X182541000Y-69626095D01*
X182541000Y-70253904D01*
X182522175Y-70445039D01*
X182447782Y-70690279D01*
X182447780Y-70690284D01*
X182326976Y-70916294D01*
X182164397Y-71114397D01*
X181966296Y-71276974D01*
X181966294Y-71276975D01*
X181740280Y-71397782D01*
X181495040Y-71472175D01*
X181240000Y-71497294D01*
X180984961Y-71472175D01*
X180739721Y-71397782D01*
X180513707Y-71276975D01*
X180513705Y-71276974D01*
X180315604Y-71114397D01*
X180153026Y-70916295D01*
X180149127Y-70909000D01*
X180032218Y-70690280D01*
X179957825Y-70445040D01*
X179939000Y-70253905D01*
X179939000Y-69626096D01*
X179957825Y-69434961D01*
X180032218Y-69189721D01*
X180050796Y-69154964D01*
X180153026Y-68963705D01*
X180315603Y-68765604D01*
X180513705Y-68603026D01*
X180513704Y-68603026D01*
X180513706Y-68603025D01*
X180739720Y-68482218D01*
X180984960Y-68407825D01*
X181240000Y-68382706D01*
X181495039Y-68407825D01*
X181495039Y-68407825D01*
G37*
G36*
X232231000Y-71251000D02*
X230529000Y-71251000D01*
X230529000Y-69549000D01*
X232231000Y-69549000D01*
X232231000Y-71251000D01*
X232231000Y-71251000D01*
G37*
G36*
X154755039Y-68127825D02*
X155000279Y-68202218D01*
X155000281Y-68202219D01*
X155226295Y-68323026D01*
X155424396Y-68485603D01*
X155523226Y-68606028D01*
X155586975Y-68683706D01*
X155707782Y-68909720D01*
X155782175Y-69154960D01*
X155801000Y-69346095D01*
X155801000Y-69973904D01*
X155782175Y-70165039D01*
X155737403Y-70312631D01*
X155707780Y-70410284D01*
X155586976Y-70636294D01*
X155424397Y-70834397D01*
X155226296Y-70996974D01*
X155226294Y-70996975D01*
X155000280Y-71117782D01*
X154755040Y-71192175D01*
X154500000Y-71217294D01*
X154244961Y-71192175D01*
X153999721Y-71117782D01*
X153773707Y-70996975D01*
X153773705Y-70996974D01*
X153575604Y-70834397D01*
X153413026Y-70636295D01*
X153292219Y-70410282D01*
X153292218Y-70410279D01*
X153217825Y-70165040D01*
X153199000Y-69973905D01*
X153199000Y-69346096D01*
X153217825Y-69154961D01*
X153292218Y-68909721D01*
X153413025Y-68683707D01*
X153413026Y-68683705D01*
X153575603Y-68485604D01*
X153773705Y-68323026D01*
X153773704Y-68323026D01*
X153773706Y-68323025D01*
X153999720Y-68202218D01*
X154244960Y-68127825D01*
X154500000Y-68102706D01*
X154755039Y-68127825D01*
X154755039Y-68127825D01*
G37*
G36*
X142755039Y-68127825D02*
X143000279Y-68202218D01*
X143000281Y-68202219D01*
X143226295Y-68323026D01*
X143424396Y-68485603D01*
X143523226Y-68606028D01*
X143586975Y-68683706D01*
X143707782Y-68909720D01*
X143782175Y-69154960D01*
X143801000Y-69346095D01*
X143801000Y-69973904D01*
X143782175Y-70165039D01*
X143737403Y-70312631D01*
X143707780Y-70410284D01*
X143586976Y-70636294D01*
X143424397Y-70834397D01*
X143226296Y-70996974D01*
X143226294Y-70996975D01*
X143000280Y-71117782D01*
X142755040Y-71192175D01*
X142500000Y-71217294D01*
X142244961Y-71192175D01*
X141999721Y-71117782D01*
X141773707Y-70996975D01*
X141773705Y-70996974D01*
X141575604Y-70834397D01*
X141413026Y-70636295D01*
X141292219Y-70410282D01*
X141292218Y-70410279D01*
X141217825Y-70165040D01*
X141199000Y-69973905D01*
X141199000Y-69346096D01*
X141217825Y-69154961D01*
X141292218Y-68909721D01*
X141413025Y-68683707D01*
X141413026Y-68683705D01*
X141575603Y-68485604D01*
X141773705Y-68323026D01*
X141773704Y-68323026D01*
X141773706Y-68323025D01*
X141999720Y-68202218D01*
X142244960Y-68127825D01*
X142500000Y-68102706D01*
X142755039Y-68127825D01*
X142755039Y-68127825D01*
G37*
G36*
X235071000Y-69866000D02*
X233369000Y-69866000D01*
X233369000Y-68164000D01*
X235071000Y-68164000D01*
X235071000Y-69866000D01*
X235071000Y-69866000D01*
G37*
G36*
X124782510Y-67352041D02*
X124906032Y-67364207D01*
X125104146Y-67424305D01*
X125286729Y-67521897D01*
X125446765Y-67653235D01*
X125578103Y-67813271D01*
X125675695Y-67995854D01*
X125735793Y-68193968D01*
X125756085Y-68400000D01*
X125735793Y-68606032D01*
X125675695Y-68804146D01*
X125578103Y-68986729D01*
X125446765Y-69146765D01*
X125286729Y-69278103D01*
X125104146Y-69375695D01*
X124906032Y-69435793D01*
X124782510Y-69447959D01*
X124751631Y-69451000D01*
X123648369Y-69451000D01*
X123617490Y-69447959D01*
X123493968Y-69435793D01*
X123295854Y-69375695D01*
X123113271Y-69278103D01*
X122953235Y-69146765D01*
X122821897Y-68986729D01*
X122724305Y-68804146D01*
X122664207Y-68606032D01*
X122643915Y-68400000D01*
X122664207Y-68193968D01*
X122724305Y-67995854D01*
X122821897Y-67813271D01*
X122953235Y-67653235D01*
X123113271Y-67521897D01*
X123295854Y-67424305D01*
X123493968Y-67364207D01*
X123617490Y-67352041D01*
X123648369Y-67349000D01*
X124751631Y-67349000D01*
X124782510Y-67352041D01*
X124782510Y-67352041D01*
G37*
G36*
X232231000Y-68481000D02*
X230529000Y-68481000D01*
X230529000Y-66779000D01*
X232231000Y-66779000D01*
X232231000Y-68481000D01*
X232231000Y-68481000D01*
G37*
G36*
X235071000Y-67096000D02*
X233369000Y-67096000D01*
X233369000Y-65394000D01*
X235071000Y-65394000D01*
X235071000Y-67096000D01*
X235071000Y-67096000D01*
G37*
G36*
X124782510Y-64852681D02*
X124906032Y-64864847D01*
X125104146Y-64924945D01*
X125286729Y-65022537D01*
X125446765Y-65153875D01*
X125578103Y-65313911D01*
X125675695Y-65496494D01*
X125735793Y-65694608D01*
X125756085Y-65900640D01*
X125735793Y-66106672D01*
X125675695Y-66304786D01*
X125578103Y-66487369D01*
X125446765Y-66647405D01*
X125286729Y-66778743D01*
X125104146Y-66876335D01*
X124906032Y-66936433D01*
X124782510Y-66948599D01*
X124751631Y-66951640D01*
X123648369Y-66951640D01*
X123617490Y-66948599D01*
X123493968Y-66936433D01*
X123295854Y-66876335D01*
X123113271Y-66778743D01*
X122953235Y-66647405D01*
X122821897Y-66487369D01*
X122724305Y-66304786D01*
X122664207Y-66106672D01*
X122643915Y-65900640D01*
X122664207Y-65694608D01*
X122724305Y-65496494D01*
X122821897Y-65313911D01*
X122953235Y-65153875D01*
X123113271Y-65022537D01*
X123295854Y-64924945D01*
X123493968Y-64864847D01*
X123617490Y-64852681D01*
X123648369Y-64849640D01*
X124751631Y-64849640D01*
X124782510Y-64852681D01*
X124782510Y-64852681D01*
G37*
G36*
X163366820Y-64311313D02*
X163366823Y-64311314D01*
X163366824Y-64311314D01*
X163527238Y-64359975D01*
X163527240Y-64359976D01*
X163527243Y-64359977D01*
X163675078Y-64438995D01*
X163804659Y-64545341D01*
X163911005Y-64674922D01*
X163990023Y-64822756D01*
X163990023Y-64822757D01*
X163990025Y-64822761D01*
X164021022Y-64924945D01*
X164038687Y-64983179D01*
X164051000Y-65108196D01*
X164051000Y-66091803D01*
X164038687Y-66216821D01*
X164038686Y-66216824D01*
X164038686Y-66216825D01*
X164012003Y-66304788D01*
X163990023Y-66377244D01*
X163911005Y-66525078D01*
X163804659Y-66654659D01*
X163675078Y-66761005D01*
X163527244Y-66840023D01*
X163527241Y-66840024D01*
X163527239Y-66840025D01*
X163366825Y-66888686D01*
X163366824Y-66888686D01*
X163366821Y-66888687D01*
X163200000Y-66905117D01*
X163033180Y-66888687D01*
X163033177Y-66888686D01*
X163033176Y-66888686D01*
X162872762Y-66840025D01*
X162872760Y-66840024D01*
X162872757Y-66840023D01*
X162724923Y-66761005D01*
X162595342Y-66654659D01*
X162488996Y-66525078D01*
X162409978Y-66377244D01*
X162387999Y-66304788D01*
X162361315Y-66216825D01*
X162361315Y-66216824D01*
X162361314Y-66216821D01*
X162349000Y-66091803D01*
X162349000Y-65108197D01*
X162361313Y-64983180D01*
X162361314Y-64983176D01*
X162409975Y-64822762D01*
X162409976Y-64822760D01*
X162409977Y-64822757D01*
X162488995Y-64674922D01*
X162595341Y-64545341D01*
X162724922Y-64438995D01*
X162872756Y-64359977D01*
X162872759Y-64359976D01*
X162872761Y-64359975D01*
X163033175Y-64311314D01*
X163033176Y-64311314D01*
X163033179Y-64311313D01*
X163200000Y-64294883D01*
X163366820Y-64311313D01*
X163366820Y-64311313D01*
G37*
G36*
X178606820Y-64311313D02*
X178606823Y-64311314D01*
X178606824Y-64311314D01*
X178767238Y-64359975D01*
X178767240Y-64359976D01*
X178767243Y-64359977D01*
X178915078Y-64438995D01*
X179044659Y-64545341D01*
X179151005Y-64674922D01*
X179230023Y-64822756D01*
X179230023Y-64822757D01*
X179230025Y-64822761D01*
X179261022Y-64924945D01*
X179278687Y-64983179D01*
X179291000Y-65108196D01*
X179291000Y-66091803D01*
X179278687Y-66216821D01*
X179278686Y-66216824D01*
X179278686Y-66216825D01*
X179252003Y-66304788D01*
X179230023Y-66377244D01*
X179151005Y-66525078D01*
X179044659Y-66654659D01*
X178915078Y-66761005D01*
X178767244Y-66840023D01*
X178767241Y-66840024D01*
X178767239Y-66840025D01*
X178606825Y-66888686D01*
X178606824Y-66888686D01*
X178606821Y-66888687D01*
X178440000Y-66905117D01*
X178273180Y-66888687D01*
X178273177Y-66888686D01*
X178273176Y-66888686D01*
X178112762Y-66840025D01*
X178112760Y-66840024D01*
X178112757Y-66840023D01*
X177964923Y-66761005D01*
X177835342Y-66654659D01*
X177728996Y-66525078D01*
X177649978Y-66377244D01*
X177627999Y-66304788D01*
X177601315Y-66216825D01*
X177601315Y-66216824D01*
X177601314Y-66216821D01*
X177589000Y-66091803D01*
X177589000Y-65108197D01*
X177601313Y-64983180D01*
X177601314Y-64983176D01*
X177649975Y-64822762D01*
X177649976Y-64822760D01*
X177649977Y-64822757D01*
X177728995Y-64674922D01*
X177835341Y-64545341D01*
X177964922Y-64438995D01*
X178112756Y-64359977D01*
X178112759Y-64359976D01*
X178112761Y-64359975D01*
X178273175Y-64311314D01*
X178273176Y-64311314D01*
X178273179Y-64311313D01*
X178440000Y-64294883D01*
X178606820Y-64311313D01*
X178606820Y-64311313D01*
G37*
G36*
X232231000Y-65711000D02*
X230529000Y-65711000D01*
X230529000Y-64009000D01*
X232231000Y-64009000D01*
X232231000Y-65711000D01*
X232231000Y-65711000D01*
G37*
G36*
X160651000Y-65411000D02*
X158949000Y-65411000D01*
X158949000Y-63709000D01*
X160651000Y-63709000D01*
X160651000Y-65411000D01*
X160651000Y-65411000D01*
G37*
G36*
X201351000Y-64841000D02*
X199649000Y-64841000D01*
X199649000Y-63139000D01*
X201351000Y-63139000D01*
X201351000Y-64841000D01*
X201351000Y-64841000D01*
G37*
G36*
X135851000Y-64611000D02*
X134149000Y-64611000D01*
X134149000Y-62909000D01*
X135851000Y-62909000D01*
X135851000Y-64611000D01*
X135851000Y-64611000D01*
G37*
G36*
X190251000Y-64411000D02*
X188549000Y-64411000D01*
X188549000Y-62709000D01*
X190251000Y-62709000D01*
X190251000Y-64411000D01*
X190251000Y-64411000D01*
G37*
G36*
X235071000Y-64326000D02*
X233369000Y-64326000D01*
X233369000Y-62624000D01*
X235071000Y-62624000D01*
X235071000Y-64326000D01*
X235071000Y-64326000D01*
G37*
G36*
X232231000Y-62941000D02*
X230529000Y-62941000D01*
X230529000Y-61239000D01*
X232231000Y-61239000D01*
X232231000Y-62941000D01*
X232231000Y-62941000D01*
G37*
G36*
X235071000Y-61556000D02*
X233369000Y-61556000D01*
X233369000Y-59854000D01*
X235071000Y-59854000D01*
X235071000Y-61556000D01*
X235071000Y-61556000D01*
G37*
G36*
X189956425Y-59452760D02*
X189956428Y-59452761D01*
X189956429Y-59452761D01*
X190135693Y-59507140D01*
X190135695Y-59507141D01*
X190300905Y-59595448D01*
X190445712Y-59714288D01*
X190564552Y-59859095D01*
X190564553Y-59859097D01*
X190652860Y-60024307D01*
X190707239Y-60203571D01*
X190707240Y-60203575D01*
X190725601Y-60390000D01*
X190707240Y-60576425D01*
X190652859Y-60755695D01*
X190564552Y-60920905D01*
X190445712Y-61065712D01*
X190300905Y-61184552D01*
X190300903Y-61184553D01*
X190135693Y-61272860D01*
X189956429Y-61327239D01*
X189956428Y-61327239D01*
X189956425Y-61327240D01*
X189816718Y-61341000D01*
X189023282Y-61341000D01*
X188883575Y-61327240D01*
X188883572Y-61327239D01*
X188883571Y-61327239D01*
X188704307Y-61272860D01*
X188539097Y-61184553D01*
X188539095Y-61184552D01*
X188394288Y-61065712D01*
X188275448Y-60920905D01*
X188187141Y-60755695D01*
X188132760Y-60576425D01*
X188114399Y-60390000D01*
X188132760Y-60203575D01*
X188132761Y-60203571D01*
X188187140Y-60024307D01*
X188275447Y-59859097D01*
X188275448Y-59859095D01*
X188394288Y-59714288D01*
X188539095Y-59595448D01*
X188704305Y-59507141D01*
X188704307Y-59507140D01*
X188883571Y-59452761D01*
X188883572Y-59452761D01*
X188883575Y-59452760D01*
X189023282Y-59439000D01*
X189816718Y-59439000D01*
X189956425Y-59452760D01*
X189956425Y-59452760D01*
G37*
G36*
X162206425Y-59102760D02*
X162206428Y-59102761D01*
X162206429Y-59102761D01*
X162385693Y-59157140D01*
X162385695Y-59157141D01*
X162550905Y-59245448D01*
X162695712Y-59364288D01*
X162814552Y-59509095D01*
X162902859Y-59674305D01*
X162957240Y-59853575D01*
X162975601Y-60040000D01*
X162957240Y-60226425D01*
X162902859Y-60405695D01*
X162814552Y-60570905D01*
X162695712Y-60715712D01*
X162550905Y-60834552D01*
X162389354Y-60920903D01*
X162385693Y-60922860D01*
X162206429Y-60977239D01*
X162206428Y-60977239D01*
X162206425Y-60977240D01*
X162066718Y-60991000D01*
X161273282Y-60991000D01*
X161133575Y-60977240D01*
X161133572Y-60977239D01*
X161133571Y-60977239D01*
X160954307Y-60922860D01*
X160950646Y-60920903D01*
X160789095Y-60834552D01*
X160644288Y-60715712D01*
X160525448Y-60570905D01*
X160437141Y-60405695D01*
X160382760Y-60226425D01*
X160364399Y-60040000D01*
X160382760Y-59853575D01*
X160437141Y-59674305D01*
X160525448Y-59509095D01*
X160644288Y-59364288D01*
X160789095Y-59245448D01*
X160954305Y-59157141D01*
X160954307Y-59157140D01*
X161133571Y-59102761D01*
X161133572Y-59102761D01*
X161133575Y-59102760D01*
X161273282Y-59089000D01*
X162066718Y-59089000D01*
X162206425Y-59102760D01*
X162206425Y-59102760D01*
G37*
G36*
X135951000Y-60951000D02*
X134049000Y-60951000D01*
X134049000Y-59049000D01*
X135951000Y-59049000D01*
X135951000Y-60951000D01*
X135951000Y-60951000D01*
G37*
G36*
X124782510Y-58851401D02*
X124906032Y-58863567D01*
X125104146Y-58923665D01*
X125286729Y-59021257D01*
X125446765Y-59152595D01*
X125578103Y-59312631D01*
X125675695Y-59495214D01*
X125735793Y-59693328D01*
X125756085Y-59899360D01*
X125735793Y-60105392D01*
X125675695Y-60303506D01*
X125578103Y-60486089D01*
X125446765Y-60646125D01*
X125286729Y-60777463D01*
X125104146Y-60875055D01*
X124906032Y-60935153D01*
X124782510Y-60947319D01*
X124751631Y-60950360D01*
X123648369Y-60950360D01*
X123617490Y-60947319D01*
X123493968Y-60935153D01*
X123295854Y-60875055D01*
X123113271Y-60777463D01*
X122953235Y-60646125D01*
X122821897Y-60486089D01*
X122724305Y-60303506D01*
X122664207Y-60105392D01*
X122643915Y-59899360D01*
X122664207Y-59693328D01*
X122724305Y-59495214D01*
X122821897Y-59312631D01*
X122953235Y-59152595D01*
X123113271Y-59021257D01*
X123295854Y-58923665D01*
X123493968Y-58863567D01*
X123617490Y-58851401D01*
X123648369Y-58848360D01*
X124751631Y-58848360D01*
X124782510Y-58851401D01*
X124782510Y-58851401D01*
G37*
G36*
X232231000Y-60171000D02*
X230529000Y-60171000D01*
X230529000Y-58469000D01*
X232231000Y-58469000D01*
X232231000Y-60171000D01*
X232231000Y-60171000D01*
G37*
G36*
X169495039Y-56207825D02*
X169740279Y-56282218D01*
X169740281Y-56282219D01*
X169966295Y-56403026D01*
X170164396Y-56565603D01*
X170288065Y-56716294D01*
X170326975Y-56763706D01*
X170447782Y-56989720D01*
X170522175Y-57234960D01*
X170541000Y-57426095D01*
X170541000Y-58053904D01*
X170522175Y-58245039D01*
X170447782Y-58490279D01*
X170447780Y-58490284D01*
X170326976Y-58716294D01*
X170164397Y-58914397D01*
X169966296Y-59076974D01*
X169966294Y-59076975D01*
X169740280Y-59197782D01*
X169495040Y-59272175D01*
X169240000Y-59297294D01*
X168984961Y-59272175D01*
X168739721Y-59197782D01*
X168513707Y-59076975D01*
X168513705Y-59076974D01*
X168315604Y-58914397D01*
X168153026Y-58716295D01*
X168032219Y-58490282D01*
X168020303Y-58451000D01*
X167957825Y-58245040D01*
X167939000Y-58053905D01*
X167939000Y-57426096D01*
X167957825Y-57234961D01*
X168032218Y-56989721D01*
X168050796Y-56954964D01*
X168153026Y-56763705D01*
X168315603Y-56565604D01*
X168513705Y-56403026D01*
X168513704Y-56403026D01*
X168513706Y-56403025D01*
X168739720Y-56282218D01*
X168984960Y-56207825D01*
X169240000Y-56182706D01*
X169495039Y-56207825D01*
X169495039Y-56207825D01*
G37*
G36*
X181495039Y-56207825D02*
X181740279Y-56282218D01*
X181740281Y-56282219D01*
X181966295Y-56403026D01*
X182164396Y-56565603D01*
X182288065Y-56716294D01*
X182326975Y-56763706D01*
X182447782Y-56989720D01*
X182522175Y-57234960D01*
X182541000Y-57426095D01*
X182541000Y-58053904D01*
X182522175Y-58245039D01*
X182447782Y-58490279D01*
X182447780Y-58490284D01*
X182326976Y-58716294D01*
X182164397Y-58914397D01*
X181966296Y-59076974D01*
X181966294Y-59076975D01*
X181740280Y-59197782D01*
X181495040Y-59272175D01*
X181240000Y-59297294D01*
X180984961Y-59272175D01*
X180739721Y-59197782D01*
X180513707Y-59076975D01*
X180513705Y-59076974D01*
X180315604Y-58914397D01*
X180153026Y-58716295D01*
X180032219Y-58490282D01*
X180020303Y-58451000D01*
X179957825Y-58245040D01*
X179939000Y-58053905D01*
X179939000Y-57426096D01*
X179957825Y-57234961D01*
X180032218Y-56989721D01*
X180050796Y-56954964D01*
X180153026Y-56763705D01*
X180315603Y-56565604D01*
X180513705Y-56403026D01*
X180513704Y-56403026D01*
X180513706Y-56403025D01*
X180739720Y-56282218D01*
X180984960Y-56207825D01*
X181240000Y-56182706D01*
X181495039Y-56207825D01*
X181495039Y-56207825D01*
G37*
G36*
X142755039Y-55927825D02*
X143000279Y-56002218D01*
X143000281Y-56002219D01*
X143226295Y-56123026D01*
X143424396Y-56285603D01*
X143548065Y-56436294D01*
X143586975Y-56483706D01*
X143707782Y-56709720D01*
X143782175Y-56954960D01*
X143801000Y-57146095D01*
X143801000Y-57773904D01*
X143782175Y-57965039D01*
X143707782Y-58210279D01*
X143707780Y-58210284D01*
X143586976Y-58436294D01*
X143424397Y-58634397D01*
X143226296Y-58796974D01*
X143101709Y-58863567D01*
X143000280Y-58917782D01*
X142755040Y-58992175D01*
X142500000Y-59017294D01*
X142244961Y-58992175D01*
X141999721Y-58917782D01*
X141898292Y-58863567D01*
X141773705Y-58796974D01*
X141575604Y-58634397D01*
X141425094Y-58451000D01*
X141413025Y-58436294D01*
X141292218Y-58210280D01*
X141217825Y-57965040D01*
X141199000Y-57773905D01*
X141199000Y-57146096D01*
X141217825Y-56954961D01*
X141292218Y-56709721D01*
X141294502Y-56705448D01*
X141413026Y-56483705D01*
X141575603Y-56285604D01*
X141773705Y-56123026D01*
X141773704Y-56123026D01*
X141773706Y-56123025D01*
X141999720Y-56002218D01*
X142244960Y-55927825D01*
X142500000Y-55902706D01*
X142755039Y-55927825D01*
X142755039Y-55927825D01*
G37*
G36*
X154755039Y-55927825D02*
X155000279Y-56002218D01*
X155000281Y-56002219D01*
X155226295Y-56123026D01*
X155424396Y-56285603D01*
X155548065Y-56436294D01*
X155586975Y-56483706D01*
X155707782Y-56709720D01*
X155782175Y-56954960D01*
X155801000Y-57146095D01*
X155801000Y-57773904D01*
X155782175Y-57965039D01*
X155707782Y-58210279D01*
X155707780Y-58210284D01*
X155586976Y-58436294D01*
X155424397Y-58634397D01*
X155226296Y-58796974D01*
X155101709Y-58863567D01*
X155000280Y-58917782D01*
X154755040Y-58992175D01*
X154500000Y-59017294D01*
X154244961Y-58992175D01*
X153999721Y-58917782D01*
X153898292Y-58863567D01*
X153773705Y-58796974D01*
X153575604Y-58634397D01*
X153425094Y-58451000D01*
X153413025Y-58436294D01*
X153292218Y-58210280D01*
X153217825Y-57965040D01*
X153199000Y-57773905D01*
X153199000Y-57146096D01*
X153217825Y-56954961D01*
X153292218Y-56709721D01*
X153294502Y-56705448D01*
X153413026Y-56483705D01*
X153575603Y-56285604D01*
X153773705Y-56123026D01*
X153773704Y-56123026D01*
X153773706Y-56123025D01*
X153999720Y-56002218D01*
X154244960Y-55927825D01*
X154500000Y-55902706D01*
X154755039Y-55927825D01*
X154755039Y-55927825D01*
G37*
G36*
X189956425Y-56912760D02*
X189956428Y-56912761D01*
X189956429Y-56912761D01*
X190135693Y-56967140D01*
X190135695Y-56967141D01*
X190300905Y-57055448D01*
X190445712Y-57174288D01*
X190564552Y-57319095D01*
X190564553Y-57319097D01*
X190652860Y-57484307D01*
X190689785Y-57606032D01*
X190707240Y-57663575D01*
X190725601Y-57850000D01*
X190707240Y-58036425D01*
X190707239Y-58036428D01*
X190707239Y-58036429D01*
X190654501Y-58210284D01*
X190652859Y-58215695D01*
X190564552Y-58380905D01*
X190445712Y-58525712D01*
X190300905Y-58644552D01*
X190300903Y-58644553D01*
X190135693Y-58732860D01*
X189956429Y-58787239D01*
X189956428Y-58787239D01*
X189956425Y-58787240D01*
X189816718Y-58801000D01*
X189023282Y-58801000D01*
X188883575Y-58787240D01*
X188883572Y-58787239D01*
X188883571Y-58787239D01*
X188704307Y-58732860D01*
X188539097Y-58644553D01*
X188539095Y-58644552D01*
X188394288Y-58525712D01*
X188275448Y-58380905D01*
X188187141Y-58215695D01*
X188185500Y-58210284D01*
X188132761Y-58036429D01*
X188132761Y-58036428D01*
X188132760Y-58036425D01*
X188114399Y-57850000D01*
X188132760Y-57663575D01*
X188150215Y-57606032D01*
X188187140Y-57484307D01*
X188275447Y-57319097D01*
X188275448Y-57319095D01*
X188394288Y-57174288D01*
X188539095Y-57055448D01*
X188704305Y-56967141D01*
X188704307Y-56967140D01*
X188883571Y-56912761D01*
X188883572Y-56912761D01*
X188883575Y-56912760D01*
X189023282Y-56899000D01*
X189816718Y-56899000D01*
X189956425Y-56912760D01*
X189956425Y-56912760D01*
G37*
G36*
X162206425Y-56562760D02*
X162206428Y-56562761D01*
X162206429Y-56562761D01*
X162385693Y-56617140D01*
X162385695Y-56617141D01*
X162550905Y-56705448D01*
X162695712Y-56824288D01*
X162814552Y-56969095D01*
X162814553Y-56969097D01*
X162902860Y-57134307D01*
X162952301Y-57297294D01*
X162957240Y-57313575D01*
X162975601Y-57500000D01*
X162957240Y-57686425D01*
X162957239Y-57686428D01*
X162957239Y-57686429D01*
X162930704Y-57773905D01*
X162902859Y-57865695D01*
X162814552Y-58030905D01*
X162695712Y-58175712D01*
X162550905Y-58294552D01*
X162550903Y-58294553D01*
X162385693Y-58382860D01*
X162206429Y-58437239D01*
X162206428Y-58437239D01*
X162206425Y-58437240D01*
X162066718Y-58451000D01*
X161273282Y-58451000D01*
X161133575Y-58437240D01*
X161133572Y-58437239D01*
X161133571Y-58437239D01*
X160954307Y-58382860D01*
X160789097Y-58294553D01*
X160789095Y-58294552D01*
X160644288Y-58175712D01*
X160525448Y-58030905D01*
X160437141Y-57865695D01*
X160409297Y-57773905D01*
X160382761Y-57686429D01*
X160382761Y-57686428D01*
X160382760Y-57686425D01*
X160364399Y-57500000D01*
X160382760Y-57313575D01*
X160387699Y-57297294D01*
X160437140Y-57134307D01*
X160525447Y-56969097D01*
X160525448Y-56969095D01*
X160644288Y-56824288D01*
X160789095Y-56705448D01*
X160954305Y-56617141D01*
X160954307Y-56617140D01*
X161133571Y-56562761D01*
X161133572Y-56562761D01*
X161133575Y-56562760D01*
X161273282Y-56549000D01*
X162066718Y-56549000D01*
X162206425Y-56562760D01*
X162206425Y-56562760D01*
G37*
G36*
X124782510Y-56352041D02*
X124906032Y-56364207D01*
X125104146Y-56424305D01*
X125286729Y-56521897D01*
X125446765Y-56653235D01*
X125578103Y-56813271D01*
X125675695Y-56995854D01*
X125735793Y-57193968D01*
X125756085Y-57400000D01*
X125735793Y-57606032D01*
X125675695Y-57804146D01*
X125578103Y-57986729D01*
X125446765Y-58146765D01*
X125286729Y-58278103D01*
X125104146Y-58375695D01*
X124906032Y-58435793D01*
X124782510Y-58447959D01*
X124751631Y-58451000D01*
X123648369Y-58451000D01*
X123617490Y-58447959D01*
X123493968Y-58435793D01*
X123295854Y-58375695D01*
X123113271Y-58278103D01*
X122953235Y-58146765D01*
X122821897Y-57986729D01*
X122724305Y-57804146D01*
X122664207Y-57606032D01*
X122643915Y-57400000D01*
X122664207Y-57193968D01*
X122724305Y-56995854D01*
X122821897Y-56813271D01*
X122953235Y-56653235D01*
X123113271Y-56521897D01*
X123295854Y-56424305D01*
X123493968Y-56364207D01*
X123617490Y-56352041D01*
X123648369Y-56349000D01*
X124751631Y-56349000D01*
X124782510Y-56352041D01*
X124782510Y-56352041D01*
G37*
G36*
X135951000Y-58411000D02*
X134049000Y-58411000D01*
X134049000Y-56509000D01*
X135951000Y-56509000D01*
X135951000Y-58411000D01*
X135951000Y-58411000D01*
G37*
G36*
X175495039Y-54207825D02*
X175740279Y-54282218D01*
X175740281Y-54282219D01*
X175966295Y-54403026D01*
X176164396Y-54565603D01*
X176297821Y-54728182D01*
X176326975Y-54763706D01*
X176447782Y-54989720D01*
X176522175Y-55234960D01*
X176541000Y-55426095D01*
X176541000Y-56053904D01*
X176522175Y-56245039D01*
X176447782Y-56490279D01*
X176447780Y-56490284D01*
X176326976Y-56716294D01*
X176164397Y-56914397D01*
X175966296Y-57076974D01*
X175747408Y-57193972D01*
X175740280Y-57197782D01*
X175495040Y-57272175D01*
X175240000Y-57297294D01*
X174984961Y-57272175D01*
X174739721Y-57197782D01*
X174732593Y-57193972D01*
X174513705Y-57076974D01*
X174315604Y-56914397D01*
X174153026Y-56716295D01*
X174149512Y-56709720D01*
X174032218Y-56490280D01*
X173957825Y-56245040D01*
X173939000Y-56053905D01*
X173939000Y-55426096D01*
X173957825Y-55234961D01*
X174032218Y-54989721D01*
X174050796Y-54954964D01*
X174153026Y-54763705D01*
X174315603Y-54565604D01*
X174478182Y-54432179D01*
X174513706Y-54403025D01*
X174739720Y-54282218D01*
X174984960Y-54207825D01*
X175240000Y-54182706D01*
X175495039Y-54207825D01*
X175495039Y-54207825D01*
G37*
G36*
X148755039Y-53927825D02*
X149000279Y-54002218D01*
X149000281Y-54002219D01*
X149226295Y-54123026D01*
X149424396Y-54285603D01*
X149557821Y-54448182D01*
X149586975Y-54483706D01*
X149630750Y-54565603D01*
X149699705Y-54694608D01*
X149707782Y-54709720D01*
X149782175Y-54954960D01*
X149788875Y-55022989D01*
X149801000Y-55146094D01*
X149801000Y-55773905D01*
X149799396Y-55790186D01*
X149782175Y-55965039D01*
X149716146Y-56182706D01*
X149707780Y-56210284D01*
X149586976Y-56436294D01*
X149424397Y-56634397D01*
X149226296Y-56796974D01*
X149226294Y-56796975D01*
X149000280Y-56917782D01*
X148755040Y-56992175D01*
X148500000Y-57017294D01*
X148244961Y-56992175D01*
X147999721Y-56917782D01*
X147773707Y-56796975D01*
X147773705Y-56796974D01*
X147575604Y-56634397D01*
X147413026Y-56436295D01*
X147406618Y-56424306D01*
X147292218Y-56210280D01*
X147217825Y-55965040D01*
X147203706Y-55821689D01*
X147199000Y-55773906D01*
X147199000Y-55146095D01*
X147211125Y-55022989D01*
X147217825Y-54954961D01*
X147292218Y-54709721D01*
X147413025Y-54483707D01*
X147413026Y-54483705D01*
X147575603Y-54285604D01*
X147773705Y-54123026D01*
X147773704Y-54123026D01*
X147773706Y-54123025D01*
X147999720Y-54002218D01*
X148244960Y-53927825D01*
X148500000Y-53902706D01*
X148755039Y-53927825D01*
X148755039Y-53927825D01*
G37*
G36*
X194376626Y-53962037D02*
X194489852Y-53996384D01*
X194546466Y-54013557D01*
X194702989Y-54097221D01*
X194840186Y-54209814D01*
X194902384Y-54285604D01*
X194952778Y-54347009D01*
X194952779Y-54347011D01*
X195036443Y-54503533D01*
X195041438Y-54520000D01*
X195087963Y-54673373D01*
X195101000Y-54805742D01*
X195101000Y-55194257D01*
X195087963Y-55326626D01*
X195036443Y-55496466D01*
X194952778Y-55652991D01*
X194952777Y-55652992D01*
X194840186Y-55790186D01*
X194738729Y-55873448D01*
X194702991Y-55902778D01*
X194702989Y-55902779D01*
X194546467Y-55986443D01*
X194494463Y-56002218D01*
X194376627Y-56037963D01*
X194200000Y-56055359D01*
X194023374Y-56037963D01*
X193905538Y-56002218D01*
X193853534Y-55986443D01*
X193697012Y-55902779D01*
X193697010Y-55902778D01*
X193559816Y-55790186D01*
X193559812Y-55790183D01*
X193447222Y-55652992D01*
X193363557Y-55496467D01*
X193321082Y-55356443D01*
X193312037Y-55326627D01*
X193299000Y-55194258D01*
X193299000Y-54805743D01*
X193312037Y-54673374D01*
X193362619Y-54506627D01*
X193363557Y-54503534D01*
X193447221Y-54347011D01*
X193559814Y-54209814D01*
X193665568Y-54123025D01*
X193697009Y-54097222D01*
X193714913Y-54087652D01*
X193853533Y-54013557D01*
X193910147Y-53996384D01*
X194023373Y-53962037D01*
X194200000Y-53944641D01*
X194376626Y-53962037D01*
X194376626Y-53962037D01*
G37*
G36*
X124782510Y-53852681D02*
X124906032Y-53864847D01*
X125104146Y-53924945D01*
X125286729Y-54022537D01*
X125446765Y-54153875D01*
X125578103Y-54313911D01*
X125675695Y-54496494D01*
X125735793Y-54694608D01*
X125756085Y-54900640D01*
X125735793Y-55106672D01*
X125675695Y-55304786D01*
X125578103Y-55487369D01*
X125446765Y-55647405D01*
X125286729Y-55778743D01*
X125104146Y-55876335D01*
X124906032Y-55936433D01*
X124782510Y-55948599D01*
X124751631Y-55951640D01*
X123648369Y-55951640D01*
X123617490Y-55948599D01*
X123493968Y-55936433D01*
X123295854Y-55876335D01*
X123113271Y-55778743D01*
X122953235Y-55647405D01*
X122821897Y-55487369D01*
X122724305Y-55304786D01*
X122664207Y-55106672D01*
X122643915Y-54900640D01*
X122664207Y-54694608D01*
X122724305Y-54496494D01*
X122821897Y-54313911D01*
X122953235Y-54153875D01*
X123113271Y-54022537D01*
X123295854Y-53924945D01*
X123493968Y-53864847D01*
X123617490Y-53852681D01*
X123648369Y-53849640D01*
X124751631Y-53849640D01*
X124782510Y-53852681D01*
X124782510Y-53852681D01*
G37*
G36*
X162180443Y-53625519D02*
X162246627Y-53632037D01*
X162359853Y-53666384D01*
X162416467Y-53683557D01*
X162555087Y-53757652D01*
X162572991Y-53767222D01*
X162608729Y-53796552D01*
X162710186Y-53879814D01*
X162793448Y-53981271D01*
X162822778Y-54017009D01*
X162822779Y-54017011D01*
X162906443Y-54173533D01*
X162917449Y-54209815D01*
X162957963Y-54343373D01*
X162975359Y-54520000D01*
X162957963Y-54696627D01*
X162924864Y-54805740D01*
X162906443Y-54866467D01*
X162851004Y-54970185D01*
X162822778Y-55022991D01*
X162793448Y-55058729D01*
X162710186Y-55160186D01*
X162619067Y-55234964D01*
X162572991Y-55272778D01*
X162572989Y-55272779D01*
X162416467Y-55356443D01*
X162359853Y-55373616D01*
X162246627Y-55407963D01*
X162180442Y-55414482D01*
X162114260Y-55421000D01*
X161225740Y-55421000D01*
X161159558Y-55414482D01*
X161093373Y-55407963D01*
X160980147Y-55373616D01*
X160923533Y-55356443D01*
X160767011Y-55272779D01*
X160767009Y-55272778D01*
X160720933Y-55234964D01*
X160629814Y-55160186D01*
X160546552Y-55058729D01*
X160517222Y-55022991D01*
X160488996Y-54970185D01*
X160433557Y-54866467D01*
X160415136Y-54805740D01*
X160382037Y-54696627D01*
X160364641Y-54520000D01*
X160382037Y-54343373D01*
X160422551Y-54209815D01*
X160433557Y-54173533D01*
X160517221Y-54017011D01*
X160517222Y-54017009D01*
X160546552Y-53981271D01*
X160629814Y-53879814D01*
X160731271Y-53796552D01*
X160767009Y-53767222D01*
X160784913Y-53757652D01*
X160923533Y-53683557D01*
X160980147Y-53666384D01*
X161093373Y-53632037D01*
X161159557Y-53625519D01*
X161225740Y-53619000D01*
X162114260Y-53619000D01*
X162180443Y-53625519D01*
X162180443Y-53625519D01*
G37*
G36*
X186980442Y-53435518D02*
X187046627Y-53442037D01*
X187159853Y-53476384D01*
X187216467Y-53493557D01*
X187355087Y-53567652D01*
X187372991Y-53577222D01*
X187408729Y-53606552D01*
X187510186Y-53689814D01*
X187573711Y-53767221D01*
X187622778Y-53827009D01*
X187622779Y-53827011D01*
X187706443Y-53983533D01*
X187718275Y-54022539D01*
X187757963Y-54153373D01*
X187775359Y-54330000D01*
X187757963Y-54506627D01*
X187723616Y-54619853D01*
X187706443Y-54676467D01*
X187632348Y-54815087D01*
X187622778Y-54832991D01*
X187595306Y-54866466D01*
X187510186Y-54970186D01*
X187408729Y-55053448D01*
X187372991Y-55082778D01*
X187372989Y-55082779D01*
X187216467Y-55166443D01*
X187159853Y-55183616D01*
X187046627Y-55217963D01*
X186980443Y-55224481D01*
X186914260Y-55231000D01*
X186025740Y-55231000D01*
X185959557Y-55224481D01*
X185893373Y-55217963D01*
X185780147Y-55183616D01*
X185723533Y-55166443D01*
X185567011Y-55082779D01*
X185567009Y-55082778D01*
X185531271Y-55053448D01*
X185429814Y-54970186D01*
X185344694Y-54866466D01*
X185317222Y-54832991D01*
X185307652Y-54815087D01*
X185233557Y-54676467D01*
X185216384Y-54619853D01*
X185182037Y-54506627D01*
X185164641Y-54330000D01*
X185182037Y-54153373D01*
X185221725Y-54022539D01*
X185233557Y-53983533D01*
X185317221Y-53827011D01*
X185317222Y-53827009D01*
X185366289Y-53767221D01*
X185429814Y-53689814D01*
X185531271Y-53606552D01*
X185567009Y-53577222D01*
X185584913Y-53567652D01*
X185723533Y-53493557D01*
X185780147Y-53476384D01*
X185893373Y-53442037D01*
X185959558Y-53435518D01*
X186025740Y-53429000D01*
X186914260Y-53429000D01*
X186980442Y-53435518D01*
X186980442Y-53435518D01*
G37*
G36*
X234851000Y-54411000D02*
X230749000Y-54411000D01*
X230749000Y-50309000D01*
X234851000Y-50309000D01*
X234851000Y-54411000D01*
X234851000Y-54411000D01*
G37*
G36*
X162180442Y-51085518D02*
X162246627Y-51092037D01*
X162359853Y-51126384D01*
X162416467Y-51143557D01*
X162555087Y-51217652D01*
X162572991Y-51227222D01*
X162608729Y-51256552D01*
X162710186Y-51339814D01*
X162793448Y-51441271D01*
X162822778Y-51477009D01*
X162822779Y-51477011D01*
X162906443Y-51633533D01*
X162906443Y-51633534D01*
X162957963Y-51803373D01*
X162975359Y-51980000D01*
X162957963Y-52156627D01*
X162923616Y-52269853D01*
X162906443Y-52326467D01*
X162851004Y-52430185D01*
X162822778Y-52482991D01*
X162793448Y-52518729D01*
X162710186Y-52620186D01*
X162608729Y-52703448D01*
X162572991Y-52732778D01*
X162572989Y-52732779D01*
X162416467Y-52816443D01*
X162359853Y-52833616D01*
X162246627Y-52867963D01*
X162180443Y-52874481D01*
X162114260Y-52881000D01*
X161225740Y-52881000D01*
X161159557Y-52874481D01*
X161093373Y-52867963D01*
X160980147Y-52833616D01*
X160923533Y-52816443D01*
X160767011Y-52732779D01*
X160767009Y-52732778D01*
X160731271Y-52703448D01*
X160629814Y-52620186D01*
X160546552Y-52518729D01*
X160517222Y-52482991D01*
X160488996Y-52430185D01*
X160433557Y-52326467D01*
X160416384Y-52269853D01*
X160382037Y-52156627D01*
X160364641Y-51980000D01*
X160382037Y-51803373D01*
X160433557Y-51633534D01*
X160433557Y-51633533D01*
X160517221Y-51477011D01*
X160517222Y-51477009D01*
X160546552Y-51441271D01*
X160629814Y-51339814D01*
X160731271Y-51256552D01*
X160767009Y-51227222D01*
X160784913Y-51217652D01*
X160923533Y-51143557D01*
X160980147Y-51126384D01*
X161093373Y-51092037D01*
X161159558Y-51085518D01*
X161225740Y-51079000D01*
X162114260Y-51079000D01*
X162180442Y-51085518D01*
X162180442Y-51085518D01*
G37*
G36*
X186980442Y-50895518D02*
X187046627Y-50902037D01*
X187159853Y-50936384D01*
X187216467Y-50953557D01*
X187355087Y-51027652D01*
X187372991Y-51037222D01*
X187408729Y-51066552D01*
X187510186Y-51149814D01*
X187573711Y-51227221D01*
X187622778Y-51287009D01*
X187622779Y-51287011D01*
X187706443Y-51443533D01*
X187706443Y-51443534D01*
X187757963Y-51613373D01*
X187775359Y-51790000D01*
X187757963Y-51966627D01*
X187753906Y-51980000D01*
X187706443Y-52136467D01*
X187695668Y-52156625D01*
X187622778Y-52292991D01*
X187595306Y-52326466D01*
X187510186Y-52430186D01*
X187408729Y-52513448D01*
X187372991Y-52542778D01*
X187372989Y-52542779D01*
X187216467Y-52626443D01*
X187159853Y-52643616D01*
X187046627Y-52677963D01*
X186980443Y-52684481D01*
X186914260Y-52691000D01*
X186025740Y-52691000D01*
X185959558Y-52684482D01*
X185893373Y-52677963D01*
X185780147Y-52643616D01*
X185723533Y-52626443D01*
X185567011Y-52542779D01*
X185567009Y-52542778D01*
X185531271Y-52513448D01*
X185429814Y-52430186D01*
X185344694Y-52326466D01*
X185317222Y-52292991D01*
X185244332Y-52156625D01*
X185233557Y-52136467D01*
X185186094Y-51980000D01*
X185182037Y-51966627D01*
X185164641Y-51790000D01*
X185182037Y-51613373D01*
X185233557Y-51443534D01*
X185233557Y-51443533D01*
X185317221Y-51287011D01*
X185317222Y-51287009D01*
X185366289Y-51227221D01*
X185429814Y-51149814D01*
X185531271Y-51066552D01*
X185567009Y-51037222D01*
X185584913Y-51027652D01*
X185723533Y-50953557D01*
X185780147Y-50936384D01*
X185893373Y-50902037D01*
X185959558Y-50895518D01*
X186025740Y-50889000D01*
X186914260Y-50889000D01*
X186980442Y-50895518D01*
X186980442Y-50895518D01*
G37*
G36*
X183111000Y-50511000D02*
X180809000Y-50511000D01*
X180809000Y-48209000D01*
X183111000Y-48209000D01*
X183111000Y-50511000D01*
X183111000Y-50511000D01*
G37*
G36*
X170411000Y-50511000D02*
X168109000Y-50511000D01*
X168109000Y-48209000D01*
X170411000Y-48209000D01*
X170411000Y-50511000D01*
X170411000Y-50511000D01*
G37*
G36*
X143411000Y-50371000D02*
X141109000Y-50371000D01*
X141109000Y-48069000D01*
X143411000Y-48069000D01*
X143411000Y-50371000D01*
X143411000Y-50371000D01*
G37*
G36*
X156111000Y-50371000D02*
X153809000Y-50371000D01*
X153809000Y-48069000D01*
X156111000Y-48069000D01*
X156111000Y-50371000D01*
X156111000Y-50371000D01*
G37*
G36*
X162180442Y-48545518D02*
X162246627Y-48552037D01*
X162359853Y-48586384D01*
X162416467Y-48603557D01*
X162555087Y-48677652D01*
X162572991Y-48687222D01*
X162608729Y-48716552D01*
X162710186Y-48799814D01*
X162793448Y-48901271D01*
X162822778Y-48937009D01*
X162822779Y-48937011D01*
X162906443Y-49093533D01*
X162906443Y-49093534D01*
X162957963Y-49263373D01*
X162975359Y-49440000D01*
X162957963Y-49616627D01*
X162923616Y-49729853D01*
X162906443Y-49786467D01*
X162851004Y-49890185D01*
X162822778Y-49942991D01*
X162793448Y-49978729D01*
X162710186Y-50080186D01*
X162608729Y-50163448D01*
X162572991Y-50192778D01*
X162572989Y-50192779D01*
X162416467Y-50276443D01*
X162359853Y-50293616D01*
X162246627Y-50327963D01*
X162180442Y-50334482D01*
X162114260Y-50341000D01*
X161225740Y-50341000D01*
X161159558Y-50334482D01*
X161093373Y-50327963D01*
X160980147Y-50293616D01*
X160923533Y-50276443D01*
X160767011Y-50192779D01*
X160767009Y-50192778D01*
X160731271Y-50163448D01*
X160629814Y-50080186D01*
X160546552Y-49978729D01*
X160517222Y-49942991D01*
X160488996Y-49890185D01*
X160433557Y-49786467D01*
X160416384Y-49729853D01*
X160382037Y-49616627D01*
X160364641Y-49440000D01*
X160382037Y-49263373D01*
X160433557Y-49093534D01*
X160433557Y-49093533D01*
X160517221Y-48937011D01*
X160517222Y-48937009D01*
X160546552Y-48901271D01*
X160629814Y-48799814D01*
X160731271Y-48716552D01*
X160767009Y-48687222D01*
X160784913Y-48677652D01*
X160923533Y-48603557D01*
X160980147Y-48586384D01*
X161093373Y-48552037D01*
X161159558Y-48545518D01*
X161225740Y-48539000D01*
X162114260Y-48539000D01*
X162180442Y-48545518D01*
X162180442Y-48545518D01*
G37*
G36*
X186980442Y-48355518D02*
X187046627Y-48362037D01*
X187159853Y-48396384D01*
X187216467Y-48413557D01*
X187355087Y-48487652D01*
X187372991Y-48497222D01*
X187408729Y-48526552D01*
X187510186Y-48609814D01*
X187573711Y-48687221D01*
X187622778Y-48747009D01*
X187622779Y-48747011D01*
X187706443Y-48903533D01*
X187706443Y-48903534D01*
X187757963Y-49073373D01*
X187775359Y-49250000D01*
X187757963Y-49426627D01*
X187753906Y-49440000D01*
X187706443Y-49596467D01*
X187704020Y-49601000D01*
X187622778Y-49752991D01*
X187595306Y-49786466D01*
X187510186Y-49890186D01*
X187408729Y-49973448D01*
X187372991Y-50002778D01*
X187372989Y-50002779D01*
X187216467Y-50086443D01*
X187159853Y-50103616D01*
X187046627Y-50137963D01*
X186980442Y-50144482D01*
X186914260Y-50151000D01*
X186025740Y-50151000D01*
X185959558Y-50144482D01*
X185893373Y-50137963D01*
X185780147Y-50103616D01*
X185723533Y-50086443D01*
X185567011Y-50002779D01*
X185567009Y-50002778D01*
X185531271Y-49973448D01*
X185429814Y-49890186D01*
X185344694Y-49786466D01*
X185317222Y-49752991D01*
X185235980Y-49601000D01*
X185233557Y-49596467D01*
X185186094Y-49440000D01*
X185182037Y-49426627D01*
X185164641Y-49250000D01*
X185182037Y-49073373D01*
X185233557Y-48903534D01*
X185233557Y-48903533D01*
X185317221Y-48747011D01*
X185317222Y-48747009D01*
X185366289Y-48687221D01*
X185429814Y-48609814D01*
X185531271Y-48526552D01*
X185567009Y-48497222D01*
X185584913Y-48487652D01*
X185723533Y-48413557D01*
X185780147Y-48396384D01*
X185893373Y-48362037D01*
X185959557Y-48355519D01*
X186025740Y-48349000D01*
X186914260Y-48349000D01*
X186980442Y-48355518D01*
X186980442Y-48355518D01*
G37*
G36*
X201351000Y-49601000D02*
X199649000Y-49601000D01*
X199649000Y-47899000D01*
X201351000Y-47899000D01*
X201351000Y-49601000D01*
X201351000Y-49601000D01*
G37*
G36*
X201351000Y-47101000D02*
X199649000Y-47101000D01*
X199649000Y-45399000D01*
X201351000Y-45399000D01*
X201351000Y-47101000D01*
X201351000Y-47101000D01*
G37*
G36*
X238092112Y-42964021D02*
X238194072Y-42974063D01*
X238324891Y-43013747D01*
X238390302Y-43033589D01*
X238571148Y-43130254D01*
X238729659Y-43260341D01*
X238859746Y-43418852D01*
X238956411Y-43599698D01*
X238956411Y-43599699D01*
X239015937Y-43795928D01*
X239036036Y-44000000D01*
X239015937Y-44204072D01*
X238976253Y-44334891D01*
X238956411Y-44400302D01*
X238859746Y-44581148D01*
X238729659Y-44739659D01*
X238571148Y-44869746D01*
X238390302Y-44966411D01*
X238324891Y-44986253D01*
X238194072Y-45025937D01*
X238092112Y-45035979D01*
X238041133Y-45041000D01*
X235958867Y-45041000D01*
X235907888Y-45035979D01*
X235805928Y-45025937D01*
X235675109Y-44986253D01*
X235609698Y-44966411D01*
X235428852Y-44869746D01*
X235270341Y-44739659D01*
X235140254Y-44581148D01*
X235043589Y-44400302D01*
X235023747Y-44334891D01*
X234984063Y-44204072D01*
X234963964Y-44000000D01*
X234984063Y-43795928D01*
X235043589Y-43599699D01*
X235043589Y-43599698D01*
X235140254Y-43418852D01*
X235270341Y-43260341D01*
X235428852Y-43130254D01*
X235609698Y-43033589D01*
X235675109Y-43013747D01*
X235805928Y-42974063D01*
X235907888Y-42964021D01*
X235958867Y-42959000D01*
X238041133Y-42959000D01*
X238092112Y-42964021D01*
X238092112Y-42964021D01*
G37*
G36*
X175331013Y-38434935D02*
X175572066Y-38458677D01*
X175958681Y-38575955D01*
X176003101Y-38599698D01*
X176314988Y-38766404D01*
X176627293Y-39022707D01*
X176883596Y-39335012D01*
X177015156Y-39581146D01*
X177074045Y-39691319D01*
X177191323Y-40077934D01*
X177230923Y-40480000D01*
X177191323Y-40882066D01*
X177074045Y-41268681D01*
X177074042Y-41268686D01*
X176883596Y-41624988D01*
X176627293Y-41937293D01*
X176314988Y-42193596D01*
X176021344Y-42350551D01*
X175958681Y-42384045D01*
X175572066Y-42501323D01*
X175331013Y-42525065D01*
X175270751Y-42531000D01*
X174069249Y-42531000D01*
X174008987Y-42525065D01*
X173767934Y-42501323D01*
X173381319Y-42384045D01*
X173318656Y-42350551D01*
X173025012Y-42193596D01*
X172712707Y-41937293D01*
X172456404Y-41624988D01*
X172265958Y-41268686D01*
X172265955Y-41268681D01*
X172148677Y-40882066D01*
X172109077Y-40480000D01*
X172148677Y-40077934D01*
X172265955Y-39691319D01*
X172324844Y-39581146D01*
X172456404Y-39335012D01*
X172712707Y-39022707D01*
X173025012Y-38766404D01*
X173336899Y-38599698D01*
X173381319Y-38575955D01*
X173767934Y-38458677D01*
X174008987Y-38434935D01*
X174069249Y-38429000D01*
X175270751Y-38429000D01*
X175331013Y-38434935D01*
X175331013Y-38434935D01*
G37*
G36*
X149821013Y-38294935D02*
X150062066Y-38318677D01*
X150448681Y-38435955D01*
X150491191Y-38458677D01*
X150804988Y-38626404D01*
X151117293Y-38882707D01*
X151373596Y-39195012D01*
X151495518Y-39423114D01*
X151564045Y-39551319D01*
X151681323Y-39937934D01*
X151720923Y-40340000D01*
X151681323Y-40742066D01*
X151564045Y-41128681D01*
X151564042Y-41128686D01*
X151373596Y-41484988D01*
X151117293Y-41797293D01*
X150804988Y-42053596D01*
X150511344Y-42210551D01*
X150448681Y-42244045D01*
X150062066Y-42361323D01*
X149831396Y-42384042D01*
X149760751Y-42391000D01*
X148559249Y-42391000D01*
X148488604Y-42384042D01*
X148257934Y-42361323D01*
X147871319Y-42244045D01*
X147808656Y-42210551D01*
X147515012Y-42053596D01*
X147202707Y-41797293D01*
X146946404Y-41484988D01*
X146755958Y-41128686D01*
X146755955Y-41128681D01*
X146638677Y-40742066D01*
X146599077Y-40340000D01*
X146638677Y-39937934D01*
X146755955Y-39551319D01*
X146824482Y-39423114D01*
X146946404Y-39195012D01*
X147202707Y-38882707D01*
X147515012Y-38626404D01*
X147828809Y-38458677D01*
X147871319Y-38435955D01*
X148257934Y-38318677D01*
X148498987Y-38294935D01*
X148559249Y-38289000D01*
X149760751Y-38289000D01*
X149821013Y-38294935D01*
X149821013Y-38294935D01*
G37*
G36*
X128906978Y-38543293D02*
X129040627Y-38583835D01*
X129163782Y-38649662D01*
X129271739Y-38738261D01*
X129360338Y-38846218D01*
X129426165Y-38969373D01*
X129466707Y-39103022D01*
X129481000Y-39248140D01*
X129481000Y-40911860D01*
X129466707Y-41056978D01*
X129426165Y-41190627D01*
X129360338Y-41313782D01*
X129271739Y-41421739D01*
X129163782Y-41510338D01*
X129040627Y-41576165D01*
X128906978Y-41616707D01*
X128761860Y-41631000D01*
X125298140Y-41631000D01*
X125153022Y-41616707D01*
X125019373Y-41576165D01*
X124896218Y-41510338D01*
X124788261Y-41421739D01*
X124699662Y-41313782D01*
X124633835Y-41190627D01*
X124593293Y-41056978D01*
X124579000Y-40911860D01*
X124579000Y-39248140D01*
X124593293Y-39103022D01*
X124633835Y-38969373D01*
X124699662Y-38846218D01*
X124788261Y-38738261D01*
X124896218Y-38649662D01*
X125019373Y-38583835D01*
X125153022Y-38543293D01*
X125298140Y-38529000D01*
X128761860Y-38529000D01*
X128906978Y-38543293D01*
X128906978Y-38543293D01*
G37*
G36*
X194347221Y-38719867D02*
X194488785Y-38762810D01*
X194619253Y-38832547D01*
X194635911Y-38846218D01*
X194733606Y-38926394D01*
X194827454Y-39040748D01*
X194897190Y-39171214D01*
X194940133Y-39312778D01*
X194951000Y-39423113D01*
X194951000Y-40096887D01*
X194940133Y-40207222D01*
X194897190Y-40348786D01*
X194827454Y-40479252D01*
X194733606Y-40593606D01*
X194619252Y-40687454D01*
X194488786Y-40757190D01*
X194347222Y-40800133D01*
X194249074Y-40809800D01*
X194200001Y-40814633D01*
X194200000Y-40814633D01*
X194052779Y-40800133D01*
X193911215Y-40757190D01*
X193780749Y-40687454D01*
X193666395Y-40593606D01*
X193572547Y-40479253D01*
X193502810Y-40348786D01*
X193500145Y-40340000D01*
X193459867Y-40207222D01*
X193449000Y-40096887D01*
X193449000Y-39423114D01*
X193459867Y-39312779D01*
X193502810Y-39171215D01*
X193572546Y-39040749D01*
X193572547Y-39040747D01*
X193666394Y-38926394D01*
X193780747Y-38832547D01*
X193780746Y-38832547D01*
X193780748Y-38832546D01*
X193911214Y-38762810D01*
X194052778Y-38719867D01*
X194150926Y-38710200D01*
X194199999Y-38705367D01*
X194200000Y-38705367D01*
X194347221Y-38719867D01*
X194347221Y-38719867D01*
G37*
G36*
X238092112Y-37964021D02*
X238194072Y-37974063D01*
X238324891Y-38013747D01*
X238390302Y-38033589D01*
X238571148Y-38130254D01*
X238729659Y-38260341D01*
X238859746Y-38418852D01*
X238956411Y-38599698D01*
X238956411Y-38599699D01*
X239015937Y-38795928D01*
X239036036Y-39000000D01*
X239015937Y-39204072D01*
X239002569Y-39248140D01*
X238956411Y-39400302D01*
X238859746Y-39581148D01*
X238729659Y-39739659D01*
X238571148Y-39869746D01*
X238390302Y-39966411D01*
X238324891Y-39986253D01*
X238194072Y-40025937D01*
X238092112Y-40035979D01*
X238041133Y-40041000D01*
X235958867Y-40041000D01*
X235907888Y-40035979D01*
X235805928Y-40025937D01*
X235675109Y-39986253D01*
X235609698Y-39966411D01*
X235428852Y-39869746D01*
X235270341Y-39739659D01*
X235140254Y-39581148D01*
X235043589Y-39400302D01*
X234997431Y-39248140D01*
X234984063Y-39204072D01*
X234963964Y-39000000D01*
X234984063Y-38795928D01*
X235043589Y-38599699D01*
X235043589Y-38599698D01*
X235140254Y-38418852D01*
X235270341Y-38260341D01*
X235428852Y-38130254D01*
X235609698Y-38033589D01*
X235675109Y-38013747D01*
X235805928Y-37974063D01*
X235907888Y-37964021D01*
X235958867Y-37959000D01*
X238041133Y-37959000D01*
X238092112Y-37964021D01*
X238092112Y-37964021D01*
G37*
G36*
X125716978Y-32563293D02*
X125850627Y-32603835D01*
X125973782Y-32669662D01*
X126081739Y-32758261D01*
X126170338Y-32866218D01*
X126236165Y-32989373D01*
X126276707Y-33123022D01*
X126291000Y-33268140D01*
X126291000Y-36731860D01*
X126276707Y-36876978D01*
X126236165Y-37010627D01*
X126170338Y-37133782D01*
X126081739Y-37241739D01*
X125973782Y-37330338D01*
X125850627Y-37396165D01*
X125716978Y-37436707D01*
X125571860Y-37451000D01*
X123908140Y-37451000D01*
X123763022Y-37436707D01*
X123629373Y-37396165D01*
X123506218Y-37330338D01*
X123398261Y-37241739D01*
X123309662Y-37133782D01*
X123243835Y-37010627D01*
X123203293Y-36876978D01*
X123189000Y-36731860D01*
X123189000Y-33268140D01*
X123203293Y-33123022D01*
X123243835Y-32989373D01*
X123309662Y-32866218D01*
X123398261Y-32758261D01*
X123506218Y-32669662D01*
X123629373Y-32603835D01*
X123763022Y-32563293D01*
X123908140Y-32549000D01*
X125571860Y-32549000D01*
X125716978Y-32563293D01*
X125716978Y-32563293D01*
G37*
G36*
X132391000Y-37451000D02*
X129289000Y-37451000D01*
X129289000Y-32549000D01*
X132391000Y-32549000D01*
X132391000Y-37451000D01*
X132391000Y-37451000D01*
G37*
G36*
X194460443Y-33445519D02*
X194526627Y-33452037D01*
X194639853Y-33486384D01*
X194696467Y-33503557D01*
X194835087Y-33577652D01*
X194852991Y-33587222D01*
X194888729Y-33616552D01*
X194990186Y-33699814D01*
X195073448Y-33801271D01*
X195102778Y-33837009D01*
X195102779Y-33837011D01*
X195186443Y-33993533D01*
X195186443Y-33993534D01*
X195237963Y-34163373D01*
X195255359Y-34340000D01*
X195237963Y-34516627D01*
X195203616Y-34629853D01*
X195186443Y-34686467D01*
X195129505Y-34792989D01*
X195102778Y-34842991D01*
X195073448Y-34878729D01*
X194990186Y-34980186D01*
X194913916Y-35042778D01*
X194852991Y-35092778D01*
X194852989Y-35092779D01*
X194696467Y-35176443D01*
X194648478Y-35191000D01*
X194526627Y-35227963D01*
X194460442Y-35234482D01*
X194394260Y-35241000D01*
X194005740Y-35241000D01*
X193939558Y-35234482D01*
X193873373Y-35227963D01*
X193751522Y-35191000D01*
X193703533Y-35176443D01*
X193547011Y-35092779D01*
X193547009Y-35092778D01*
X193486084Y-35042778D01*
X193409814Y-34980186D01*
X193326552Y-34878729D01*
X193297222Y-34842991D01*
X193270495Y-34792989D01*
X193213557Y-34686467D01*
X193196384Y-34629853D01*
X193162037Y-34516627D01*
X193144641Y-34340000D01*
X193162037Y-34163373D01*
X193213557Y-33993534D01*
X193213557Y-33993533D01*
X193297221Y-33837011D01*
X193297222Y-33837009D01*
X193326552Y-33801271D01*
X193409814Y-33699814D01*
X193511271Y-33616552D01*
X193547009Y-33587222D01*
X193564913Y-33577652D01*
X193703533Y-33503557D01*
X193760147Y-33486384D01*
X193873373Y-33452037D01*
X193939557Y-33445519D01*
X194005740Y-33439000D01*
X194394260Y-33439000D01*
X194460443Y-33445519D01*
X194460443Y-33445519D01*
G37*
G36*
X197360442Y-33395518D02*
X197426627Y-33402037D01*
X197539853Y-33436384D01*
X197596467Y-33453557D01*
X197690009Y-33503557D01*
X197752991Y-33537222D01*
X197788729Y-33566552D01*
X197890186Y-33649814D01*
X197973448Y-33751271D01*
X198002778Y-33787009D01*
X198002779Y-33787011D01*
X198086443Y-33943533D01*
X198086443Y-33943534D01*
X198137963Y-34113373D01*
X198155359Y-34290000D01*
X198137963Y-34466627D01*
X198103616Y-34579853D01*
X198086443Y-34636467D01*
X198059717Y-34686467D01*
X198002778Y-34792991D01*
X197973448Y-34828729D01*
X197890186Y-34930186D01*
X197788729Y-35013448D01*
X197752991Y-35042778D01*
X197752989Y-35042779D01*
X197596467Y-35126443D01*
X197539853Y-35143616D01*
X197426627Y-35177963D01*
X197360443Y-35184481D01*
X197294260Y-35191000D01*
X197205740Y-35191000D01*
X197139558Y-35184482D01*
X197073373Y-35177963D01*
X196960147Y-35143616D01*
X196903533Y-35126443D01*
X196747011Y-35042779D01*
X196747009Y-35042778D01*
X196711271Y-35013448D01*
X196609814Y-34930186D01*
X196526552Y-34828729D01*
X196497222Y-34792991D01*
X196440283Y-34686467D01*
X196413557Y-34636467D01*
X196396384Y-34579853D01*
X196362037Y-34466627D01*
X196344641Y-34290000D01*
X196362037Y-34113373D01*
X196413557Y-33943534D01*
X196413557Y-33943533D01*
X196497221Y-33787011D01*
X196497222Y-33787009D01*
X196526552Y-33751271D01*
X196609814Y-33649814D01*
X196711271Y-33566552D01*
X196747009Y-33537222D01*
X196809991Y-33503557D01*
X196903533Y-33453557D01*
X196960147Y-33436384D01*
X197073373Y-33402037D01*
X197139558Y-33395518D01*
X197205740Y-33389000D01*
X197294260Y-33389000D01*
X197360442Y-33395518D01*
X197360442Y-33395518D01*
G37*
G36*
X194460443Y-30905519D02*
X194526627Y-30912037D01*
X194639853Y-30946384D01*
X194696467Y-30963557D01*
X194835087Y-31037652D01*
X194852991Y-31047222D01*
X194888729Y-31076552D01*
X194990186Y-31159814D01*
X195073448Y-31261271D01*
X195102778Y-31297009D01*
X195102779Y-31297011D01*
X195186443Y-31453533D01*
X195203616Y-31510147D01*
X195237963Y-31623373D01*
X195255359Y-31800000D01*
X195237963Y-31976627D01*
X195214615Y-32053595D01*
X195186443Y-32146467D01*
X195134287Y-32244042D01*
X195102778Y-32302991D01*
X195073448Y-32338729D01*
X194990186Y-32440186D01*
X194915689Y-32501323D01*
X194852991Y-32552778D01*
X194852989Y-32552779D01*
X194696467Y-32636443D01*
X194648478Y-32651000D01*
X194526627Y-32687963D01*
X194460443Y-32694481D01*
X194394260Y-32701000D01*
X194005740Y-32701000D01*
X193939557Y-32694481D01*
X193873373Y-32687963D01*
X193751522Y-32651000D01*
X193703533Y-32636443D01*
X193547011Y-32552779D01*
X193547009Y-32552778D01*
X193484311Y-32501323D01*
X193409814Y-32440186D01*
X193326552Y-32338729D01*
X193297222Y-32302991D01*
X193265713Y-32244042D01*
X193213557Y-32146467D01*
X193185385Y-32053595D01*
X193162037Y-31976627D01*
X193144641Y-31800000D01*
X193162037Y-31623373D01*
X193196384Y-31510147D01*
X193213557Y-31453533D01*
X193297221Y-31297011D01*
X193297222Y-31297009D01*
X193326552Y-31261271D01*
X193409814Y-31159814D01*
X193511271Y-31076552D01*
X193547009Y-31047222D01*
X193564913Y-31037652D01*
X193703533Y-30963557D01*
X193760147Y-30946384D01*
X193873373Y-30912037D01*
X193939557Y-30905519D01*
X194005740Y-30899000D01*
X194394260Y-30899000D01*
X194460443Y-30905519D01*
X194460443Y-30905519D01*
G37*
G36*
X198151000Y-32651000D02*
X196349000Y-32651000D01*
X196349000Y-30849000D01*
X198151000Y-30849000D01*
X198151000Y-32651000D01*
X198151000Y-32651000D01*
G37*
G36*
X175331013Y-28434935D02*
X175572066Y-28458677D01*
X175958681Y-28575955D01*
X176021344Y-28609449D01*
X176314988Y-28766404D01*
X176627293Y-29022707D01*
X176883596Y-29335012D01*
X177040551Y-29628656D01*
X177074045Y-29691319D01*
X177191323Y-30077934D01*
X177230923Y-30480000D01*
X177191323Y-30882066D01*
X177074045Y-31268681D01*
X177074042Y-31268686D01*
X176883596Y-31624988D01*
X176627293Y-31937293D01*
X176314988Y-32193596D01*
X176021344Y-32350551D01*
X175958681Y-32384045D01*
X175572066Y-32501323D01*
X175331013Y-32525065D01*
X175270751Y-32531000D01*
X174069249Y-32531000D01*
X174008987Y-32525065D01*
X173767934Y-32501323D01*
X173381319Y-32384045D01*
X173318656Y-32350551D01*
X173025012Y-32193596D01*
X172712707Y-31937293D01*
X172456404Y-31624988D01*
X172265958Y-31268686D01*
X172265955Y-31268681D01*
X172148677Y-30882066D01*
X172109077Y-30480000D01*
X172148677Y-30077934D01*
X172265955Y-29691319D01*
X172299449Y-29628656D01*
X172456404Y-29335012D01*
X172712707Y-29022707D01*
X173025012Y-28766404D01*
X173318656Y-28609449D01*
X173381319Y-28575955D01*
X173767934Y-28458677D01*
X174008987Y-28434935D01*
X174069249Y-28429000D01*
X175270751Y-28429000D01*
X175331013Y-28434935D01*
X175331013Y-28434935D01*
G37*
G36*
X149821013Y-28294935D02*
X150062066Y-28318677D01*
X150448681Y-28435955D01*
X150491191Y-28458677D01*
X150804988Y-28626404D01*
X151117293Y-28882707D01*
X151373596Y-29195012D01*
X151530551Y-29488656D01*
X151564045Y-29551319D01*
X151681323Y-29937934D01*
X151720923Y-30340000D01*
X151681323Y-30742066D01*
X151564045Y-31128681D01*
X151564042Y-31128686D01*
X151373596Y-31484988D01*
X151117293Y-31797293D01*
X150804988Y-32053596D01*
X150511344Y-32210551D01*
X150448681Y-32244045D01*
X150062066Y-32361323D01*
X149831396Y-32384042D01*
X149760751Y-32391000D01*
X148559249Y-32391000D01*
X148488604Y-32384042D01*
X148257934Y-32361323D01*
X147871319Y-32244045D01*
X147808656Y-32210551D01*
X147515012Y-32053596D01*
X147202707Y-31797293D01*
X146946404Y-31484988D01*
X146755958Y-31128686D01*
X146755955Y-31128681D01*
X146638677Y-30742066D01*
X146599077Y-30340000D01*
X146638677Y-29937934D01*
X146755955Y-29551319D01*
X146789449Y-29488656D01*
X146946404Y-29195012D01*
X147202707Y-28882707D01*
X147515012Y-28626404D01*
X147828809Y-28458677D01*
X147871319Y-28435955D01*
X148257934Y-28318677D01*
X148498987Y-28294935D01*
X148559249Y-28289000D01*
X149760751Y-28289000D01*
X149821013Y-28294935D01*
X149821013Y-28294935D01*
G37*
G36*
X201351000Y-31861000D02*
X199649000Y-31861000D01*
X199649000Y-30159000D01*
X201351000Y-30159000D01*
X201351000Y-31861000D01*
X201351000Y-31861000D01*
G37*
G36*
X226001000Y-30726000D02*
X224199000Y-30726000D01*
X224199000Y-28924000D01*
X226001000Y-28924000D01*
X226001000Y-30726000D01*
X226001000Y-30726000D01*
G37*
G36*
X205501000Y-30726000D02*
X203699000Y-30726000D01*
X203699000Y-28924000D01*
X205501000Y-28924000D01*
X205501000Y-30726000D01*
X205501000Y-30726000D01*
G37*
M02*
