M48
;DRILL file {KiCad (5.0.1)-4} date 16/04/2019 10:01:12
;FORMAT={-:-/ absolute / inch / decimal}
FMAT,2
INCH,TZ
T1C0.0236
T2C0.0295
T3C0.0315
T4C0.0354
T5C0.0394
T6C0.0402
T7C0.0433
T8C0.0512
T9C0.0520
T10C0.0787
T11C0.1260
T12C0.1969
%
G90
G05
M72
T1
X6.061Y-3.626
X6.1398Y-3.626
X5.6496Y-3.6142
X5.7283Y-3.6142
X5.4075Y-3.6165
X5.4862Y-3.6165
X6.8031Y-3.622
X6.8819Y-3.622
T2
X8.4941Y-1.8504
X8.4941Y-3.7106
X9.2028Y-3.7825
X9.3051Y-3.7825
X5.6693Y-3.139
X5.6693Y-3.189
X5.6693Y-3.239
X6.6693Y-3.1417
X6.6693Y-3.1917
X6.6693Y-3.2417
T3
X7.8937Y-1.9193
X7.8937Y-2.5193
X7.4567Y-2.5024
X7.4567Y-3.1024
X6.2913Y-2.5417
X6.2913Y-3.1417
X6.4252Y-2.5827
X7.0252Y-2.5827
X5.315Y-2.5102
X5.315Y-3.1102
X7.5591Y-2.8252
X7.5591Y-3.4252
X7.8937Y-1.2209
X7.8937Y-1.8209
T4
X6.365Y-2.2638
X6.365Y-2.3638
X5.315Y-2.2622
X5.315Y-2.3622
X7.4575Y-2.2776
X7.4575Y-2.3776
T5
X5.815Y-3.9752
X5.915Y-3.9752
X6.015Y-3.9752
X4.8898Y-2.5945
X4.8898Y-2.6929
X4.8898Y-2.7913
X8.0551Y-1.1742
X8.0551Y-3.0049
X8.8622Y-1.1742
X8.8622Y-3.0049
X7.3413Y-1.939
X7.3413Y-2.039
X7.3413Y-2.139
X7.4598Y-4.4055
X7.5598Y-4.4055
X7.6598Y-4.4055
X7.7598Y-4.4055
X7.8598Y-4.4055
X7.1575Y-4.4075
X7.2575Y-4.4075
X7.3575Y-4.4075
X5.6441Y-3.402
X6.2441Y-3.402
X4.8898Y-2.1614
X4.8898Y-2.2598
X4.8898Y-2.3582
X9.002Y-3.278
X9.102Y-3.278
X9.1043Y-4.1122
X9.202Y-3.278
X9.2028Y-4.1102
X9.302Y-3.278
X9.3051Y-4.1083
X9.402Y-3.278
X9.4035Y-4.1083
X9.502Y-3.278
X7.6457Y-1.252
X7.6457Y-1.352
X4.8937Y-3.2063
X4.8937Y-3.3063
X7.7657Y-1.25
X7.7657Y-1.35
X8.8189Y-3.1795
X8.8189Y-3.7795
X7.9921Y-4.4094
X8.0921Y-4.4094
X8.1921Y-4.4094
X8.2921Y-4.4094
X8.3921Y-4.4094
X8.6614Y-4.252
X8.6614Y-4.4291
X8.9173Y-4.252
X8.9173Y-4.4291
X9.1094Y-2.3354
X9.1094Y-2.4445
X9.1094Y-2.5535
X9.1094Y-2.6626
X9.1094Y-2.7717
X9.2213Y-2.39
X9.2213Y-2.499
X9.2213Y-2.6081
X9.2213Y-2.7171
X7.6457Y-1.5654
X7.6457Y-2.1654
X8.6614Y-3.1795
X8.6614Y-3.7795
X4.8925Y-3.4563
X4.8925Y-3.5563
X6.365Y-1.9465
X6.365Y-2.0465
X6.365Y-2.1465
T7
X5.6008Y-1.9378
X6.1008Y-1.9378
X6.6638Y-1.9433
X7.1638Y-1.9433
T8
X5.6102Y-2.2622
X5.6102Y-2.7425
X5.8465Y-2.1835
X6.0827Y-2.2622
X6.0827Y-2.7425
X6.663Y-2.2732
X6.663Y-2.7535
X6.8992Y-2.1945
X7.1354Y-2.2732
X7.1354Y-2.7535
T9
X9.3307Y-1.5354
X9.3307Y-1.7323
T10
X5.8724Y-1.1945
X5.8724Y-1.5882
X6.8768Y-1.2
X6.8768Y-1.5937
T11
X9.1654Y-2.0614
X9.1654Y-3.0457
T12
X4.9315Y-4.339
X4.9354Y-1.0461
X9.387Y-1.0417
X9.3972Y-4.3402
T6
X4.911Y-1.348G85X4.911Y-1.4079
G05
X4.9713Y-1.578G85X5.0311Y-1.578
G05
X5.1512Y-1.348G85X5.1512Y-1.4079
G05
T0
M30
