G04 #@! TF.GenerationSoftware,KiCad,Pcbnew,(5.0.1)-4*
G04 #@! TF.CreationDate,2019-04-16T10:01:15-03:00*
G04 #@! TF.ProjectId,Ignitor,49676E69746F722E6B696361645F7063,rev?*
G04 #@! TF.SameCoordinates,Original*
G04 #@! TF.FileFunction,Legend,Top*
G04 #@! TF.FilePolarity,Positive*
%FSLAX46Y46*%
G04 Gerber Fmt 4.6, Leading zero omitted, Abs format (unit mm)*
G04 Created by KiCad (PCBNEW (5.0.1)-4) date 16/04/2019 10:01:15*
%MOMM*%
%LPD*%
G01*
G04 APERTURE LIST*
%ADD10C,0.300000*%
%ADD11C,0.120000*%
%ADD12C,0.150000*%
%ADD13C,0.381000*%
%ADD14C,0.304800*%
G04 APERTURE END LIST*
D10*
X175971864Y-131031670D02*
X175114722Y-131032426D01*
X175543293Y-131032048D02*
X175541971Y-129532049D01*
X175399303Y-129746460D01*
X175256572Y-129889443D01*
X175113777Y-129960998D01*
X177400435Y-131030411D02*
X176543293Y-131031167D01*
X176971864Y-131030789D02*
X176970542Y-129530789D01*
X176827874Y-129745201D01*
X176685142Y-129888184D01*
X176542348Y-129959738D01*
X177899113Y-129529971D02*
X178827684Y-129529152D01*
X178328188Y-130101022D01*
X178542473Y-130100833D01*
X178685394Y-130172135D01*
X178756885Y-130243501D01*
X178828440Y-130386295D01*
X178828754Y-130743438D01*
X178757452Y-130886358D01*
X178686086Y-130957849D01*
X178543292Y-131029404D01*
X178114721Y-131029781D01*
X177971801Y-130958479D01*
X177900309Y-130887113D01*
X179471737Y-130885728D02*
X179543229Y-130957094D01*
X179471863Y-131028585D01*
X179400372Y-130957220D01*
X179471737Y-130885728D01*
X179471863Y-131028585D01*
X180828124Y-130027389D02*
X180829005Y-131027389D01*
X180470478Y-129456276D02*
X180114279Y-130528019D01*
X181042850Y-130527200D01*
X182327683Y-129526067D02*
X181613397Y-129526697D01*
X181542598Y-130241045D01*
X181613964Y-130169554D01*
X181756758Y-130097999D01*
X182113901Y-130097685D01*
X182256821Y-130168987D01*
X182328312Y-130240353D01*
X182399867Y-130383147D01*
X182400182Y-130740290D01*
X182328879Y-130883210D01*
X182257513Y-130954701D01*
X182114719Y-131026256D01*
X181757576Y-131026571D01*
X181614656Y-130955268D01*
X181543165Y-130883902D01*
X183327682Y-129525186D02*
X183470539Y-129525060D01*
X183613459Y-129596363D01*
X183684951Y-129667728D01*
X183756505Y-129810522D01*
X183828186Y-130096174D01*
X183828501Y-130453316D01*
X183757324Y-130739093D01*
X183686021Y-130882013D01*
X183614656Y-130953505D01*
X183471861Y-131025059D01*
X183329004Y-131025185D01*
X183186084Y-130953883D01*
X183114593Y-130882517D01*
X183043038Y-130739723D01*
X182971358Y-130454072D01*
X182971043Y-130096929D01*
X183042220Y-129811152D01*
X183113523Y-129668232D01*
X183184888Y-129596740D01*
X183327682Y-129525186D01*
X185614718Y-131023171D02*
X185613836Y-130023171D01*
X185613962Y-130166028D02*
X185685328Y-130094537D01*
X185828122Y-130022982D01*
X186042408Y-130022793D01*
X186185328Y-130094096D01*
X186256882Y-130236890D01*
X186257575Y-131022604D01*
X186256882Y-130236890D02*
X186328185Y-130093970D01*
X186470979Y-130022416D01*
X186685265Y-130022227D01*
X186828185Y-130093529D01*
X186899739Y-130236323D01*
X186900432Y-131022037D01*
X187614717Y-131021408D02*
X187613836Y-130021408D01*
X187613962Y-130164265D02*
X187685327Y-130092774D01*
X187828121Y-130021219D01*
X188042407Y-130021030D01*
X188185327Y-130092333D01*
X188256881Y-130235127D01*
X188257574Y-131020841D01*
X188256881Y-130235127D02*
X188328184Y-130092207D01*
X188470978Y-130020653D01*
X188685264Y-130020464D01*
X188828184Y-130091766D01*
X188899738Y-130234560D01*
X188900431Y-131020274D01*
X125315842Y-128297749D02*
X238765842Y-128197749D01*
X125300000Y-110325000D02*
X125316359Y-128884170D01*
X238750000Y-110225000D02*
X238766359Y-128784170D01*
X238765842Y-128197749D02*
X237639856Y-128785162D01*
X238765842Y-128197749D02*
X237638822Y-127612321D01*
X125315842Y-128297749D02*
X126442862Y-128883177D01*
X125315842Y-128297749D02*
X126441828Y-127710336D01*
X108446490Y-74420915D02*
X108374891Y-74563687D01*
X108303377Y-74635030D01*
X108160435Y-74706288D01*
X108089006Y-74706203D01*
X107946235Y-74634604D01*
X107874891Y-74563090D01*
X107803634Y-74420148D01*
X107803975Y-74134434D01*
X107875574Y-73991662D01*
X107947088Y-73920319D01*
X108090030Y-73849061D01*
X108161459Y-73849146D01*
X108304230Y-73920745D01*
X108375574Y-73992259D01*
X108446831Y-74135201D01*
X108446490Y-74420915D01*
X108517748Y-74563858D01*
X108589091Y-74635372D01*
X108731863Y-74706971D01*
X109017577Y-74707312D01*
X109160519Y-74636054D01*
X109232033Y-74564711D01*
X109303632Y-74421939D01*
X109303974Y-74136225D01*
X109232716Y-73993283D01*
X109161373Y-73921769D01*
X109018601Y-73850170D01*
X108732887Y-73849829D01*
X108589944Y-73921086D01*
X108518431Y-73992430D01*
X108446831Y-74135201D01*
X107804913Y-73348720D02*
X107806022Y-72420149D01*
X108376853Y-72920831D01*
X108377109Y-72706546D01*
X108448708Y-72563774D01*
X108520222Y-72492431D01*
X108663165Y-72421173D01*
X109020307Y-72421599D01*
X109163079Y-72493198D01*
X109234422Y-72564712D01*
X109305680Y-72707655D01*
X109305168Y-73136226D01*
X109233569Y-73278998D01*
X109162055Y-73350341D01*
X109163932Y-71778913D02*
X109235446Y-71707570D01*
X109306789Y-71779084D01*
X109235275Y-71850427D01*
X109163932Y-71778913D01*
X109306789Y-71779084D01*
X107807473Y-71205864D02*
X107808667Y-70205865D01*
X109307898Y-70850513D01*
X107952121Y-69706036D02*
X107880778Y-69634522D01*
X107809520Y-69491580D01*
X107809947Y-69134437D01*
X107881546Y-68991665D01*
X107953060Y-68920322D01*
X108096002Y-68849064D01*
X108238859Y-68849235D01*
X108453059Y-68920919D01*
X109309178Y-69779085D01*
X109310287Y-68850515D01*
X107811909Y-67491581D02*
X107811056Y-68205866D01*
X108525256Y-68278148D01*
X108453912Y-68206634D01*
X108382655Y-68063692D01*
X108383081Y-67706549D01*
X108454680Y-67563777D01*
X108526194Y-67492434D01*
X108669136Y-67421176D01*
X109026279Y-67421603D01*
X109169051Y-67493202D01*
X109240394Y-67564716D01*
X109311652Y-67707658D01*
X109311225Y-68064801D01*
X109239626Y-68207573D01*
X109168112Y-68278916D01*
X109314126Y-65636231D02*
X108314127Y-65635037D01*
X108456984Y-65635207D02*
X108385641Y-65563694D01*
X108314383Y-65420751D01*
X108314639Y-65206466D01*
X108386238Y-65063694D01*
X108529180Y-64992436D01*
X109314894Y-64993374D01*
X108529180Y-64992436D02*
X108386408Y-64920837D01*
X108315150Y-64777895D01*
X108315406Y-64563609D01*
X108387006Y-64420837D01*
X108529948Y-64349579D01*
X109315662Y-64350518D01*
X109316515Y-63636233D02*
X108316515Y-63635038D01*
X108459373Y-63635209D02*
X108388029Y-63563695D01*
X108316771Y-63420753D01*
X108317027Y-63206467D01*
X108388626Y-63063695D01*
X108531569Y-62992437D01*
X109317283Y-62993376D01*
X108531569Y-62992437D02*
X108388797Y-62920838D01*
X108317539Y-62777896D01*
X108317795Y-62563610D01*
X108389394Y-62420839D01*
X108532337Y-62349581D01*
X109318050Y-62350519D01*
X110782142Y-26632570D02*
X110682142Y-110357570D01*
X125375000Y-26650000D02*
X110195722Y-26631870D01*
X125275000Y-110375000D02*
X110095722Y-110356870D01*
X110682142Y-110357570D02*
X110097067Y-109230367D01*
X110682142Y-110357570D02*
X111269908Y-109231767D01*
X110782142Y-26632570D02*
X110194376Y-27758373D01*
X110782142Y-26632570D02*
X111367217Y-27759773D01*
X101661214Y-62713489D02*
X101661368Y-62999203D01*
X101732874Y-63142022D01*
X101804341Y-63213411D01*
X102018704Y-63356153D01*
X102304457Y-63427427D01*
X102875885Y-63427118D01*
X103018704Y-63355612D01*
X103090094Y-63284145D01*
X103161445Y-63141249D01*
X103161291Y-62855535D01*
X103089785Y-62712716D01*
X103018318Y-62641326D01*
X102875422Y-62569975D01*
X102518279Y-62570168D01*
X102375461Y-62641674D01*
X102304071Y-62713141D01*
X102232719Y-62856037D01*
X102232874Y-63141751D01*
X102304380Y-63284570D01*
X102375847Y-63355960D01*
X102518743Y-63427311D01*
X103019052Y-63998469D02*
X103090519Y-64069859D01*
X103162025Y-64212677D01*
X103162218Y-64569820D01*
X103090866Y-64712716D01*
X103019477Y-64784183D01*
X102876658Y-64855689D01*
X102733801Y-64855766D01*
X102519477Y-64784454D01*
X101661870Y-63927774D01*
X101662372Y-64856346D01*
X101805577Y-65499125D02*
X101734187Y-65570593D01*
X101662720Y-65499203D01*
X101734110Y-65427735D01*
X101805577Y-65499125D01*
X101662720Y-65499203D01*
X102663454Y-66855805D02*
X101663454Y-66856345D01*
X103234689Y-66498353D02*
X102163068Y-66141789D01*
X102163570Y-67070361D01*
X103164265Y-68355534D02*
X103163879Y-67641248D01*
X102449555Y-67570206D01*
X102521022Y-67641596D01*
X102592528Y-67784414D01*
X102592721Y-68141557D01*
X102521369Y-68284453D01*
X102449980Y-68355920D01*
X102307161Y-68427426D01*
X101950018Y-68427619D01*
X101807123Y-68356268D01*
X101735655Y-68284878D01*
X101664149Y-68142059D01*
X101663956Y-67784917D01*
X101735308Y-67642021D01*
X101806698Y-67570554D01*
X103164806Y-69355534D02*
X103164883Y-69498391D01*
X103093532Y-69641287D01*
X103022142Y-69712754D01*
X102879324Y-69784260D01*
X102593648Y-69855843D01*
X102236505Y-69856036D01*
X101950752Y-69784762D01*
X101807856Y-69713411D01*
X101736389Y-69642021D01*
X101664883Y-69499202D01*
X101664806Y-69356345D01*
X101736158Y-69213449D01*
X101807547Y-69141982D01*
X101950366Y-69070476D01*
X102236042Y-68998893D01*
X102593184Y-68998700D01*
X102878937Y-69069974D01*
X103021833Y-69141325D01*
X103093300Y-69212715D01*
X103164806Y-69355534D01*
X101666042Y-71642059D02*
X102666042Y-71641518D01*
X102523185Y-71641595D02*
X102594652Y-71712985D01*
X102666158Y-71855804D01*
X102666274Y-72070089D01*
X102594923Y-72212985D01*
X102452104Y-72284491D01*
X101666390Y-72284916D01*
X102452104Y-72284491D02*
X102595000Y-72355842D01*
X102666506Y-72498661D01*
X102666622Y-72712947D01*
X102595270Y-72855842D01*
X102452452Y-72927348D01*
X101666738Y-72927773D01*
X101667124Y-73642059D02*
X102667124Y-73641518D01*
X102524267Y-73641595D02*
X102595734Y-73712985D01*
X102667240Y-73855803D01*
X102667356Y-74070089D01*
X102596004Y-74212985D01*
X102453186Y-74284491D01*
X101667472Y-74284916D01*
X102453186Y-74284491D02*
X102596082Y-74355842D01*
X102667587Y-74498661D01*
X102667703Y-74712946D01*
X102596352Y-74855842D01*
X102453534Y-74927348D01*
X101667819Y-74927773D01*
X104418069Y-22558414D02*
X104468069Y-115008414D01*
X119975000Y-22550000D02*
X103831649Y-22558731D01*
X120025000Y-115000000D02*
X103881649Y-115008731D01*
X104468069Y-115008414D02*
X103881039Y-113882228D01*
X104468069Y-115008414D02*
X105053880Y-113881593D01*
X104418069Y-22558414D02*
X103832258Y-23685235D01*
X104418069Y-22558414D02*
X105005099Y-23684600D01*
X176402800Y-137125213D02*
X175545657Y-137124699D01*
X175974228Y-137124956D02*
X175975129Y-135624956D01*
X175832143Y-135839156D01*
X175689200Y-135981928D01*
X175546300Y-136053270D01*
X176975043Y-135768414D02*
X177046514Y-135697028D01*
X177189414Y-135625685D01*
X177546557Y-135625899D01*
X177689371Y-135697414D01*
X177760757Y-135768885D01*
X177832100Y-135911785D01*
X177832014Y-136054642D01*
X177760457Y-136268885D01*
X176902800Y-137125513D01*
X177831371Y-137126071D01*
X179117685Y-136126842D02*
X179117085Y-137126842D01*
X178760885Y-135555200D02*
X178403099Y-136626414D01*
X179331671Y-136626971D01*
X179902885Y-136984457D02*
X179974271Y-137055928D01*
X179902799Y-137127314D01*
X179831413Y-137055842D01*
X179902885Y-136984457D01*
X179902799Y-137127314D01*
X180688513Y-137127785D02*
X180974228Y-137127957D01*
X181117128Y-137056614D01*
X181188599Y-136985228D01*
X181331585Y-136771028D01*
X181403185Y-136485357D01*
X181403528Y-135913928D01*
X181332185Y-135771028D01*
X181260799Y-135699557D01*
X181117985Y-135628043D01*
X180832271Y-135627871D01*
X180689371Y-135699214D01*
X180617899Y-135770600D01*
X180546385Y-135913414D01*
X180546171Y-136270557D01*
X180617513Y-136413457D01*
X180688899Y-136484928D01*
X180831713Y-136556442D01*
X181117428Y-136556614D01*
X181260328Y-136485271D01*
X181331799Y-136413885D01*
X181403313Y-136271071D01*
X181903699Y-135628514D02*
X182903699Y-135629114D01*
X182259942Y-137128728D01*
X184189413Y-135629886D02*
X183475127Y-135629457D01*
X183403270Y-136343700D01*
X183474741Y-136272314D01*
X183617641Y-136200971D01*
X183974784Y-136201186D01*
X184117599Y-136272700D01*
X184188984Y-136344171D01*
X184260327Y-136487071D01*
X184260113Y-136844214D01*
X184188598Y-136987028D01*
X184117127Y-137058414D01*
X183974227Y-137129757D01*
X183617084Y-137129543D01*
X183474270Y-137058028D01*
X183402884Y-136986557D01*
X186045655Y-137131000D02*
X186046255Y-136131000D01*
X186046170Y-136273857D02*
X186117641Y-136202472D01*
X186260541Y-136131129D01*
X186474827Y-136131257D01*
X186617641Y-136202772D01*
X186688984Y-136345672D01*
X186688512Y-137131386D01*
X186688984Y-136345672D02*
X186760498Y-136202857D01*
X186903398Y-136131515D01*
X187117684Y-136131643D01*
X187260498Y-136203158D01*
X187331841Y-136346058D01*
X187331369Y-137131772D01*
X188045655Y-137132200D02*
X188046255Y-136132201D01*
X188046169Y-136275058D02*
X188117641Y-136203672D01*
X188260541Y-136132329D01*
X188474826Y-136132458D01*
X188617641Y-136203972D01*
X188688983Y-136346872D01*
X188688512Y-137132586D01*
X188688983Y-136346872D02*
X188760498Y-136204058D01*
X188903398Y-136132715D01*
X189117683Y-136132843D01*
X189260498Y-136204358D01*
X189331840Y-136347258D01*
X189331369Y-137132972D01*
X119988395Y-134312786D02*
X244963395Y-134387786D01*
X120000000Y-114975000D02*
X119988043Y-134899206D01*
X244975000Y-115050000D02*
X244963043Y-134974206D01*
X244963395Y-134387786D02*
X243836540Y-134973531D01*
X244963395Y-134387786D02*
X243837243Y-133800689D01*
X119988395Y-134312786D02*
X121114547Y-134899883D01*
X119988395Y-134312786D02*
X121115250Y-133727041D01*
D11*
G04 #@! TO.C,J11*
X214490000Y-113330000D02*
X214490000Y-110670000D01*
X204270000Y-113330000D02*
X214490000Y-113330000D01*
X204270000Y-110670000D02*
X214490000Y-110670000D01*
X204270000Y-113330000D02*
X204270000Y-110670000D01*
X203000000Y-113330000D02*
X201670000Y-113330000D01*
X201670000Y-113330000D02*
X201670000Y-112000000D01*
G04 #@! TO.C,J12*
X195920000Y-33020000D02*
X198580000Y-33020000D01*
X195920000Y-33020000D02*
X195920000Y-35620000D01*
X195920000Y-35620000D02*
X198580000Y-35620000D01*
X198580000Y-33020000D02*
X198580000Y-35620000D01*
X198580000Y-30420000D02*
X198580000Y-31750000D01*
X197250000Y-30420000D02*
X198580000Y-30420000D01*
G04 #@! TO.C,R1*
X218630000Y-91650000D02*
X221370000Y-91650000D01*
X221370000Y-91650000D02*
X221370000Y-85110000D01*
X221370000Y-85110000D02*
X218630000Y-85110000D01*
X218630000Y-85110000D02*
X218630000Y-91650000D01*
X220000000Y-94960000D02*
X220000000Y-91650000D01*
X220000000Y-81800000D02*
X220000000Y-85110000D01*
G04 #@! TO.C,R6*
X222630000Y-91650000D02*
X225370000Y-91650000D01*
X225370000Y-91650000D02*
X225370000Y-85110000D01*
X225370000Y-85110000D02*
X222630000Y-85110000D01*
X222630000Y-85110000D02*
X222630000Y-91650000D01*
X224000000Y-94960000D02*
X224000000Y-91650000D01*
X224000000Y-81800000D02*
X224000000Y-85110000D01*
D12*
G04 #@! TO.C,U3*
X226350000Y-77575000D02*
X203350000Y-77575000D01*
X226350000Y-28575000D02*
X226350000Y-77575000D01*
X203350000Y-28575000D02*
X226350000Y-28575000D01*
X203350000Y-77575000D02*
X203350000Y-28575000D01*
D11*
G04 #@! TO.C,SW3*
X224664214Y-110250000D02*
G75*
G03X224664214Y-110250000I-1414214J0D01*
G01*
X220280000Y-113370000D02*
X226220000Y-113370000D01*
X220280000Y-107130000D02*
X226220000Y-107130000D01*
X220130000Y-111590000D02*
X220130000Y-108910000D01*
X226370000Y-108910000D02*
X226370000Y-111590000D01*
G04 #@! TO.C,J10*
X185140000Y-47920000D02*
X186470000Y-47920000D01*
X185140000Y-49250000D02*
X185140000Y-47920000D01*
X185140000Y-50520000D02*
X187800000Y-50520000D01*
X187800000Y-50520000D02*
X187800000Y-55660000D01*
X185140000Y-50520000D02*
X185140000Y-55660000D01*
X185140000Y-55660000D02*
X187800000Y-55660000D01*
G04 #@! TO.C,J9*
X160340000Y-55850000D02*
X163000000Y-55850000D01*
X160340000Y-50710000D02*
X160340000Y-55850000D01*
X163000000Y-50710000D02*
X163000000Y-55850000D01*
X160340000Y-50710000D02*
X163000000Y-50710000D01*
X160340000Y-49440000D02*
X160340000Y-48110000D01*
X160340000Y-48110000D02*
X161670000Y-48110000D01*
G04 #@! TO.C,J7*
X124300000Y-80110000D02*
X125630000Y-80110000D01*
X125630000Y-80110000D02*
X125630000Y-81440000D01*
X125630000Y-82710000D02*
X125630000Y-85310000D01*
X122970000Y-85310000D02*
X125630000Y-85310000D01*
X122970000Y-82710000D02*
X122970000Y-85310000D01*
X122970000Y-82710000D02*
X125630000Y-82710000D01*
G04 #@! TO.C,J8*
X122940000Y-89060000D02*
X125600000Y-89060000D01*
X122940000Y-89060000D02*
X122940000Y-91660000D01*
X122940000Y-91660000D02*
X125600000Y-91660000D01*
X125600000Y-89060000D02*
X125600000Y-91660000D01*
X125600000Y-86460000D02*
X125600000Y-87790000D01*
X124270000Y-86460000D02*
X125600000Y-86460000D01*
G04 #@! TO.C,J6*
X192870000Y-33070000D02*
X195530000Y-33070000D01*
X192870000Y-33070000D02*
X192870000Y-35670000D01*
X192870000Y-35670000D02*
X195530000Y-35670000D01*
X195530000Y-33070000D02*
X195530000Y-35670000D01*
X195530000Y-30470000D02*
X195530000Y-31800000D01*
X194200000Y-30470000D02*
X195530000Y-30470000D01*
G04 #@! TO.C,R11*
X192830000Y-50650000D02*
X195570000Y-50650000D01*
X195570000Y-50650000D02*
X195570000Y-44110000D01*
X195570000Y-44110000D02*
X192830000Y-44110000D01*
X192830000Y-44110000D02*
X192830000Y-50650000D01*
X194200000Y-53960000D02*
X194200000Y-50650000D01*
X194200000Y-40800000D02*
X194200000Y-44110000D01*
G04 #@! TO.C,J5*
X244060000Y-80345000D02*
X229520000Y-80345000D01*
X229520000Y-80345000D02*
X229520000Y-49375000D01*
X229520000Y-49375000D02*
X244060000Y-49375000D01*
X228625662Y-59570000D02*
X228625662Y-59070000D01*
X228625662Y-59070000D02*
X229058675Y-59320000D01*
X229058675Y-59320000D02*
X228625662Y-59570000D01*
D13*
G04 #@! TO.C,SW1*
X128799940Y-58700480D02*
X128401160Y-58400760D01*
X128401160Y-58400760D02*
X128799940Y-58101040D01*
X128799940Y-58101040D02*
X128401160Y-57900380D01*
X128401160Y-57900380D02*
X128799940Y-57600660D01*
X128799940Y-57600660D02*
X128401160Y-57400000D01*
X128401160Y-59398980D02*
X128799940Y-59200860D01*
X128799940Y-59200860D02*
X128401160Y-58901140D01*
X128401160Y-58901140D02*
X128799940Y-58700480D01*
X126800960Y-59398980D02*
X128401160Y-59398980D01*
X126800960Y-57400000D02*
X128401160Y-57400000D01*
X126800960Y-61700220D02*
X126800960Y-53099780D01*
X126800960Y-53099780D02*
X123300840Y-53099780D01*
X123300840Y-53099780D02*
X123300840Y-54199600D01*
X123300840Y-54199600D02*
X123600560Y-54199600D01*
X123600560Y-54199600D02*
X123600560Y-60600400D01*
X123600560Y-60600400D02*
X123300840Y-60600400D01*
X123300840Y-60600400D02*
X123300840Y-61700220D01*
X123300840Y-61700220D02*
X126800960Y-61700220D01*
G04 #@! TO.C,SW2*
X128799940Y-69700480D02*
X128401160Y-69400760D01*
X128401160Y-69400760D02*
X128799940Y-69101040D01*
X128799940Y-69101040D02*
X128401160Y-68900380D01*
X128401160Y-68900380D02*
X128799940Y-68600660D01*
X128799940Y-68600660D02*
X128401160Y-68400000D01*
X128401160Y-70398980D02*
X128799940Y-70200860D01*
X128799940Y-70200860D02*
X128401160Y-69901140D01*
X128401160Y-69901140D02*
X128799940Y-69700480D01*
X126800960Y-70398980D02*
X128401160Y-70398980D01*
X126800960Y-68400000D02*
X128401160Y-68400000D01*
X126800960Y-72700220D02*
X126800960Y-64099780D01*
X126800960Y-64099780D02*
X123300840Y-64099780D01*
X123300840Y-64099780D02*
X123300840Y-65199600D01*
X123300840Y-65199600D02*
X123600560Y-65199600D01*
X123600560Y-65199600D02*
X123600560Y-71600400D01*
X123600560Y-71600400D02*
X123300840Y-71600400D01*
X123300840Y-71600400D02*
X123300840Y-72700220D01*
X123300840Y-72700220D02*
X126800960Y-72700220D01*
D11*
G04 #@! TO.C,U4*
X152091000Y-97700000D02*
X152091000Y-99210000D01*
X148390000Y-97700000D02*
X148390000Y-99210000D01*
X145120000Y-99210000D02*
X155360000Y-99210000D01*
X155360000Y-97700000D02*
X155360000Y-102341000D01*
X145120000Y-97700000D02*
X145120000Y-102341000D01*
X145120000Y-102341000D02*
X155360000Y-102341000D01*
X145120000Y-97700000D02*
X155360000Y-97700000D01*
G04 #@! TO.C,C1*
X141825000Y-46139337D02*
X144025000Y-46139337D01*
X142925000Y-47239337D02*
X142925000Y-45039337D01*
X149120000Y-24220000D02*
X149200000Y-24220000D01*
X148257000Y-24260000D02*
X150063000Y-24260000D01*
X147868000Y-24300000D02*
X150452000Y-24300000D01*
X147570000Y-24340000D02*
X150750000Y-24340000D01*
X147320000Y-24380000D02*
X151000000Y-24380000D01*
X147100000Y-24420000D02*
X151220000Y-24420000D01*
X146902000Y-24460000D02*
X151418000Y-24460000D01*
X146720000Y-24500000D02*
X151600000Y-24500000D01*
X146551000Y-24540000D02*
X151769000Y-24540000D01*
X146393000Y-24580000D02*
X151927000Y-24580000D01*
X146244000Y-24620000D02*
X152076000Y-24620000D01*
X146102000Y-24660000D02*
X152218000Y-24660000D01*
X145968000Y-24700000D02*
X152352000Y-24700000D01*
X145839000Y-24740000D02*
X152481000Y-24740000D01*
X145715000Y-24780000D02*
X152605000Y-24780000D01*
X145596000Y-24820000D02*
X152724000Y-24820000D01*
X145481000Y-24860000D02*
X152839000Y-24860000D01*
X145371000Y-24900000D02*
X152949000Y-24900000D01*
X145263000Y-24940000D02*
X153057000Y-24940000D01*
X145159000Y-24980000D02*
X153161000Y-24980000D01*
X145058000Y-25020000D02*
X153262000Y-25020000D01*
X144960000Y-25060000D02*
X153360000Y-25060000D01*
X144864000Y-25100000D02*
X153456000Y-25100000D01*
X144771000Y-25140000D02*
X153549000Y-25140000D01*
X144680000Y-25180000D02*
X153640000Y-25180000D01*
X144591000Y-25220000D02*
X153729000Y-25220000D01*
X144504000Y-25260000D02*
X153816000Y-25260000D01*
X144419000Y-25300000D02*
X153901000Y-25300000D01*
X144336000Y-25340000D02*
X153984000Y-25340000D01*
X144255000Y-25380000D02*
X154065000Y-25380000D01*
X144175000Y-25420000D02*
X154145000Y-25420000D01*
X144097000Y-25460000D02*
X154223000Y-25460000D01*
X144020000Y-25500000D02*
X154300000Y-25500000D01*
X143945000Y-25540000D02*
X154375000Y-25540000D01*
X143871000Y-25580000D02*
X154449000Y-25580000D01*
X143798000Y-25620000D02*
X154522000Y-25620000D01*
X143727000Y-25660000D02*
X154593000Y-25660000D01*
X143657000Y-25700000D02*
X154663000Y-25700000D01*
X143588000Y-25740000D02*
X154732000Y-25740000D01*
X143520000Y-25780000D02*
X154800000Y-25780000D01*
X143453000Y-25820000D02*
X154867000Y-25820000D01*
X143387000Y-25860000D02*
X154933000Y-25860000D01*
X143322000Y-25900000D02*
X154998000Y-25900000D01*
X143259000Y-25940000D02*
X155061000Y-25940000D01*
X143196000Y-25980000D02*
X155124000Y-25980000D01*
X143134000Y-26020000D02*
X155186000Y-26020000D01*
X143073000Y-26060000D02*
X155247000Y-26060000D01*
X143013000Y-26100000D02*
X155307000Y-26100000D01*
X142953000Y-26140000D02*
X155367000Y-26140000D01*
X142895000Y-26180000D02*
X155425000Y-26180000D01*
X142837000Y-26220000D02*
X155483000Y-26220000D01*
X142780000Y-26260000D02*
X155540000Y-26260000D01*
X142724000Y-26300000D02*
X155596000Y-26300000D01*
X142668000Y-26340000D02*
X155652000Y-26340000D01*
X142614000Y-26380000D02*
X155706000Y-26380000D01*
X142560000Y-26420000D02*
X155760000Y-26420000D01*
X142506000Y-26460000D02*
X155814000Y-26460000D01*
X142453000Y-26500000D02*
X155867000Y-26500000D01*
X142401000Y-26540000D02*
X155919000Y-26540000D01*
X142350000Y-26580000D02*
X155970000Y-26580000D01*
X142299000Y-26620000D02*
X156021000Y-26620000D01*
X142249000Y-26660000D02*
X156071000Y-26660000D01*
X142199000Y-26700000D02*
X156121000Y-26700000D01*
X142150000Y-26740000D02*
X156170000Y-26740000D01*
X142102000Y-26780000D02*
X156218000Y-26780000D01*
X142054000Y-26820000D02*
X156266000Y-26820000D01*
X142006000Y-26860000D02*
X156314000Y-26860000D01*
X141959000Y-26900000D02*
X156361000Y-26900000D01*
X141913000Y-26940000D02*
X156407000Y-26940000D01*
X141867000Y-26980000D02*
X156453000Y-26980000D01*
X141822000Y-27020000D02*
X156498000Y-27020000D01*
X141777000Y-27060000D02*
X156543000Y-27060000D01*
X141732000Y-27100000D02*
X156588000Y-27100000D01*
X141689000Y-27140000D02*
X156631000Y-27140000D01*
X141645000Y-27179000D02*
X156675000Y-27179000D01*
X141602000Y-27219000D02*
X156718000Y-27219000D01*
X141560000Y-27259000D02*
X156760000Y-27259000D01*
X141518000Y-27299000D02*
X156802000Y-27299000D01*
X141476000Y-27339000D02*
X156844000Y-27339000D01*
X141435000Y-27379000D02*
X156885000Y-27379000D01*
X141394000Y-27419000D02*
X156926000Y-27419000D01*
X141353000Y-27459000D02*
X156967000Y-27459000D01*
X141314000Y-27499000D02*
X157006000Y-27499000D01*
X141274000Y-27539000D02*
X157046000Y-27539000D01*
X141235000Y-27579000D02*
X157085000Y-27579000D01*
X141196000Y-27619000D02*
X157124000Y-27619000D01*
X141158000Y-27659000D02*
X157162000Y-27659000D01*
X141120000Y-27699000D02*
X157200000Y-27699000D01*
X141082000Y-27739000D02*
X157238000Y-27739000D01*
X141045000Y-27779000D02*
X157275000Y-27779000D01*
X141008000Y-27819000D02*
X157312000Y-27819000D01*
X140971000Y-27859000D02*
X157349000Y-27859000D01*
X140935000Y-27899000D02*
X157385000Y-27899000D01*
X140899000Y-27939000D02*
X157421000Y-27939000D01*
X140864000Y-27979000D02*
X157456000Y-27979000D01*
X140829000Y-28019000D02*
X157491000Y-28019000D01*
X140794000Y-28059000D02*
X157526000Y-28059000D01*
X140759000Y-28099000D02*
X157561000Y-28099000D01*
X151400000Y-28139000D02*
X157595000Y-28139000D01*
X140725000Y-28139000D02*
X146920000Y-28139000D01*
X151400000Y-28179000D02*
X157629000Y-28179000D01*
X140691000Y-28179000D02*
X146920000Y-28179000D01*
X151400000Y-28219000D02*
X157662000Y-28219000D01*
X140658000Y-28219000D02*
X146920000Y-28219000D01*
X151400000Y-28259000D02*
X157695000Y-28259000D01*
X140625000Y-28259000D02*
X146920000Y-28259000D01*
X151400000Y-28299000D02*
X157728000Y-28299000D01*
X140592000Y-28299000D02*
X146920000Y-28299000D01*
X151400000Y-28339000D02*
X157761000Y-28339000D01*
X140559000Y-28339000D02*
X146920000Y-28339000D01*
X151400000Y-28379000D02*
X157793000Y-28379000D01*
X140527000Y-28379000D02*
X146920000Y-28379000D01*
X151400000Y-28419000D02*
X157825000Y-28419000D01*
X140495000Y-28419000D02*
X146920000Y-28419000D01*
X151400000Y-28459000D02*
X157857000Y-28459000D01*
X140463000Y-28459000D02*
X146920000Y-28459000D01*
X151400000Y-28499000D02*
X157888000Y-28499000D01*
X140432000Y-28499000D02*
X146920000Y-28499000D01*
X151400000Y-28539000D02*
X157919000Y-28539000D01*
X140401000Y-28539000D02*
X146920000Y-28539000D01*
X151400000Y-28579000D02*
X157950000Y-28579000D01*
X140370000Y-28579000D02*
X146920000Y-28579000D01*
X151400000Y-28619000D02*
X157980000Y-28619000D01*
X140340000Y-28619000D02*
X146920000Y-28619000D01*
X151400000Y-28659000D02*
X158010000Y-28659000D01*
X140310000Y-28659000D02*
X146920000Y-28659000D01*
X151400000Y-28699000D02*
X158040000Y-28699000D01*
X140280000Y-28699000D02*
X146920000Y-28699000D01*
X151400000Y-28739000D02*
X158070000Y-28739000D01*
X140250000Y-28739000D02*
X146920000Y-28739000D01*
X151400000Y-28779000D02*
X158099000Y-28779000D01*
X140221000Y-28779000D02*
X146920000Y-28779000D01*
X151400000Y-28819000D02*
X158128000Y-28819000D01*
X140192000Y-28819000D02*
X146920000Y-28819000D01*
X151400000Y-28859000D02*
X158157000Y-28859000D01*
X140163000Y-28859000D02*
X146920000Y-28859000D01*
X151400000Y-28899000D02*
X158186000Y-28899000D01*
X140134000Y-28899000D02*
X146920000Y-28899000D01*
X151400000Y-28939000D02*
X158214000Y-28939000D01*
X140106000Y-28939000D02*
X146920000Y-28939000D01*
X151400000Y-28979000D02*
X158242000Y-28979000D01*
X140078000Y-28979000D02*
X146920000Y-28979000D01*
X151400000Y-29019000D02*
X158270000Y-29019000D01*
X140050000Y-29019000D02*
X146920000Y-29019000D01*
X151400000Y-29059000D02*
X158297000Y-29059000D01*
X140023000Y-29059000D02*
X146920000Y-29059000D01*
X151400000Y-29099000D02*
X158325000Y-29099000D01*
X139995000Y-29099000D02*
X146920000Y-29099000D01*
X151400000Y-29139000D02*
X158352000Y-29139000D01*
X139968000Y-29139000D02*
X146920000Y-29139000D01*
X151400000Y-29179000D02*
X158378000Y-29179000D01*
X139942000Y-29179000D02*
X146920000Y-29179000D01*
X151400000Y-29219000D02*
X158405000Y-29219000D01*
X139915000Y-29219000D02*
X146920000Y-29219000D01*
X151400000Y-29259000D02*
X158431000Y-29259000D01*
X139889000Y-29259000D02*
X146920000Y-29259000D01*
X151400000Y-29299000D02*
X158457000Y-29299000D01*
X139863000Y-29299000D02*
X146920000Y-29299000D01*
X151400000Y-29339000D02*
X158483000Y-29339000D01*
X139837000Y-29339000D02*
X146920000Y-29339000D01*
X151400000Y-29379000D02*
X158508000Y-29379000D01*
X139812000Y-29379000D02*
X146920000Y-29379000D01*
X151400000Y-29419000D02*
X158534000Y-29419000D01*
X139786000Y-29419000D02*
X146920000Y-29419000D01*
X151400000Y-29459000D02*
X158559000Y-29459000D01*
X139761000Y-29459000D02*
X146920000Y-29459000D01*
X151400000Y-29499000D02*
X158584000Y-29499000D01*
X139736000Y-29499000D02*
X146920000Y-29499000D01*
X151400000Y-29539000D02*
X158608000Y-29539000D01*
X139712000Y-29539000D02*
X146920000Y-29539000D01*
X151400000Y-29579000D02*
X158632000Y-29579000D01*
X139688000Y-29579000D02*
X146920000Y-29579000D01*
X151400000Y-29619000D02*
X158657000Y-29619000D01*
X139663000Y-29619000D02*
X146920000Y-29619000D01*
X151400000Y-29659000D02*
X158680000Y-29659000D01*
X139640000Y-29659000D02*
X146920000Y-29659000D01*
X151400000Y-29699000D02*
X158704000Y-29699000D01*
X139616000Y-29699000D02*
X146920000Y-29699000D01*
X151400000Y-29739000D02*
X158727000Y-29739000D01*
X139593000Y-29739000D02*
X146920000Y-29739000D01*
X151400000Y-29779000D02*
X158751000Y-29779000D01*
X139569000Y-29779000D02*
X146920000Y-29779000D01*
X151400000Y-29819000D02*
X158774000Y-29819000D01*
X139546000Y-29819000D02*
X146920000Y-29819000D01*
X151400000Y-29859000D02*
X158796000Y-29859000D01*
X139524000Y-29859000D02*
X146920000Y-29859000D01*
X151400000Y-29899000D02*
X158819000Y-29899000D01*
X139501000Y-29899000D02*
X146920000Y-29899000D01*
X151400000Y-29939000D02*
X158841000Y-29939000D01*
X139479000Y-29939000D02*
X146920000Y-29939000D01*
X151400000Y-29979000D02*
X158863000Y-29979000D01*
X139457000Y-29979000D02*
X146920000Y-29979000D01*
X151400000Y-30019000D02*
X158885000Y-30019000D01*
X139435000Y-30019000D02*
X146920000Y-30019000D01*
X151400000Y-30059000D02*
X158907000Y-30059000D01*
X139413000Y-30059000D02*
X146920000Y-30059000D01*
X151400000Y-30099000D02*
X158928000Y-30099000D01*
X139392000Y-30099000D02*
X146920000Y-30099000D01*
X151400000Y-30139000D02*
X158950000Y-30139000D01*
X139370000Y-30139000D02*
X146920000Y-30139000D01*
X151400000Y-30179000D02*
X158971000Y-30179000D01*
X139349000Y-30179000D02*
X146920000Y-30179000D01*
X151400000Y-30219000D02*
X158992000Y-30219000D01*
X139328000Y-30219000D02*
X146920000Y-30219000D01*
X151400000Y-30259000D02*
X159012000Y-30259000D01*
X139308000Y-30259000D02*
X146920000Y-30259000D01*
X151400000Y-30299000D02*
X159033000Y-30299000D01*
X139287000Y-30299000D02*
X146920000Y-30299000D01*
X151400000Y-30339000D02*
X159053000Y-30339000D01*
X139267000Y-30339000D02*
X146920000Y-30339000D01*
X151400000Y-30379000D02*
X159073000Y-30379000D01*
X139247000Y-30379000D02*
X146920000Y-30379000D01*
X151400000Y-30419000D02*
X159093000Y-30419000D01*
X139227000Y-30419000D02*
X146920000Y-30419000D01*
X151400000Y-30459000D02*
X159112000Y-30459000D01*
X139208000Y-30459000D02*
X146920000Y-30459000D01*
X151400000Y-30499000D02*
X159132000Y-30499000D01*
X139188000Y-30499000D02*
X146920000Y-30499000D01*
X151400000Y-30539000D02*
X159151000Y-30539000D01*
X139169000Y-30539000D02*
X146920000Y-30539000D01*
X151400000Y-30579000D02*
X159170000Y-30579000D01*
X139150000Y-30579000D02*
X146920000Y-30579000D01*
X151400000Y-30619000D02*
X159189000Y-30619000D01*
X139131000Y-30619000D02*
X146920000Y-30619000D01*
X151400000Y-30659000D02*
X159208000Y-30659000D01*
X139112000Y-30659000D02*
X146920000Y-30659000D01*
X151400000Y-30699000D02*
X159226000Y-30699000D01*
X139094000Y-30699000D02*
X146920000Y-30699000D01*
X151400000Y-30739000D02*
X159244000Y-30739000D01*
X139076000Y-30739000D02*
X146920000Y-30739000D01*
X151400000Y-30779000D02*
X159263000Y-30779000D01*
X139057000Y-30779000D02*
X146920000Y-30779000D01*
X151400000Y-30819000D02*
X159280000Y-30819000D01*
X139040000Y-30819000D02*
X146920000Y-30819000D01*
X151400000Y-30859000D02*
X159298000Y-30859000D01*
X139022000Y-30859000D02*
X146920000Y-30859000D01*
X151400000Y-30899000D02*
X159316000Y-30899000D01*
X139004000Y-30899000D02*
X146920000Y-30899000D01*
X151400000Y-30939000D02*
X159333000Y-30939000D01*
X138987000Y-30939000D02*
X146920000Y-30939000D01*
X151400000Y-30979000D02*
X159350000Y-30979000D01*
X138970000Y-30979000D02*
X146920000Y-30979000D01*
X151400000Y-31019000D02*
X159367000Y-31019000D01*
X138953000Y-31019000D02*
X146920000Y-31019000D01*
X151400000Y-31059000D02*
X159384000Y-31059000D01*
X138936000Y-31059000D02*
X146920000Y-31059000D01*
X151400000Y-31099000D02*
X159400000Y-31099000D01*
X138920000Y-31099000D02*
X146920000Y-31099000D01*
X151400000Y-31139000D02*
X159417000Y-31139000D01*
X138903000Y-31139000D02*
X146920000Y-31139000D01*
X151400000Y-31179000D02*
X159433000Y-31179000D01*
X138887000Y-31179000D02*
X146920000Y-31179000D01*
X151400000Y-31219000D02*
X159449000Y-31219000D01*
X138871000Y-31219000D02*
X146920000Y-31219000D01*
X151400000Y-31259000D02*
X159465000Y-31259000D01*
X138855000Y-31259000D02*
X146920000Y-31259000D01*
X151400000Y-31299000D02*
X159481000Y-31299000D01*
X138839000Y-31299000D02*
X146920000Y-31299000D01*
X151400000Y-31339000D02*
X159496000Y-31339000D01*
X138824000Y-31339000D02*
X146920000Y-31339000D01*
X151400000Y-31379000D02*
X159511000Y-31379000D01*
X138809000Y-31379000D02*
X146920000Y-31379000D01*
X151400000Y-31419000D02*
X159527000Y-31419000D01*
X138793000Y-31419000D02*
X146920000Y-31419000D01*
X151400000Y-31459000D02*
X159542000Y-31459000D01*
X138778000Y-31459000D02*
X146920000Y-31459000D01*
X151400000Y-31499000D02*
X159556000Y-31499000D01*
X138764000Y-31499000D02*
X146920000Y-31499000D01*
X151400000Y-31539000D02*
X159571000Y-31539000D01*
X138749000Y-31539000D02*
X146920000Y-31539000D01*
X151400000Y-31579000D02*
X159586000Y-31579000D01*
X138734000Y-31579000D02*
X146920000Y-31579000D01*
X151400000Y-31619000D02*
X159600000Y-31619000D01*
X138720000Y-31619000D02*
X146920000Y-31619000D01*
X151400000Y-31659000D02*
X159614000Y-31659000D01*
X138706000Y-31659000D02*
X146920000Y-31659000D01*
X151400000Y-31699000D02*
X159628000Y-31699000D01*
X138692000Y-31699000D02*
X146920000Y-31699000D01*
X151400000Y-31739000D02*
X159642000Y-31739000D01*
X138678000Y-31739000D02*
X146920000Y-31739000D01*
X151400000Y-31779000D02*
X159655000Y-31779000D01*
X138665000Y-31779000D02*
X146920000Y-31779000D01*
X151400000Y-31819000D02*
X159669000Y-31819000D01*
X138651000Y-31819000D02*
X146920000Y-31819000D01*
X151400000Y-31859000D02*
X159682000Y-31859000D01*
X138638000Y-31859000D02*
X146920000Y-31859000D01*
X151400000Y-31899000D02*
X159695000Y-31899000D01*
X138625000Y-31899000D02*
X146920000Y-31899000D01*
X151400000Y-31939000D02*
X159708000Y-31939000D01*
X138612000Y-31939000D02*
X146920000Y-31939000D01*
X151400000Y-31979000D02*
X159721000Y-31979000D01*
X138599000Y-31979000D02*
X146920000Y-31979000D01*
X151400000Y-32019000D02*
X159733000Y-32019000D01*
X138587000Y-32019000D02*
X146920000Y-32019000D01*
X151400000Y-32059000D02*
X159746000Y-32059000D01*
X138574000Y-32059000D02*
X146920000Y-32059000D01*
X151400000Y-32099000D02*
X159758000Y-32099000D01*
X138562000Y-32099000D02*
X146920000Y-32099000D01*
X151400000Y-32139000D02*
X159770000Y-32139000D01*
X138550000Y-32139000D02*
X146920000Y-32139000D01*
X151400000Y-32179000D02*
X159782000Y-32179000D01*
X138538000Y-32179000D02*
X146920000Y-32179000D01*
X151400000Y-32219000D02*
X159794000Y-32219000D01*
X138526000Y-32219000D02*
X146920000Y-32219000D01*
X151400000Y-32259000D02*
X159805000Y-32259000D01*
X138515000Y-32259000D02*
X146920000Y-32259000D01*
X151400000Y-32299000D02*
X159817000Y-32299000D01*
X138503000Y-32299000D02*
X146920000Y-32299000D01*
X151400000Y-32339000D02*
X159828000Y-32339000D01*
X138492000Y-32339000D02*
X146920000Y-32339000D01*
X151400000Y-32379000D02*
X159839000Y-32379000D01*
X138481000Y-32379000D02*
X146920000Y-32379000D01*
X151400000Y-32419000D02*
X159850000Y-32419000D01*
X138470000Y-32419000D02*
X146920000Y-32419000D01*
X151400000Y-32459000D02*
X159861000Y-32459000D01*
X138459000Y-32459000D02*
X146920000Y-32459000D01*
X151400000Y-32499000D02*
X159872000Y-32499000D01*
X138448000Y-32499000D02*
X146920000Y-32499000D01*
X151400000Y-32539000D02*
X159882000Y-32539000D01*
X138438000Y-32539000D02*
X146920000Y-32539000D01*
X151400000Y-32579000D02*
X159893000Y-32579000D01*
X138427000Y-32579000D02*
X146920000Y-32579000D01*
X138417000Y-32619000D02*
X159903000Y-32619000D01*
X138407000Y-32659000D02*
X159913000Y-32659000D01*
X138397000Y-32699000D02*
X159923000Y-32699000D01*
X138388000Y-32739000D02*
X159932000Y-32739000D01*
X138378000Y-32779000D02*
X159942000Y-32779000D01*
X138369000Y-32819000D02*
X159951000Y-32819000D01*
X138360000Y-32859000D02*
X159960000Y-32859000D01*
X138351000Y-32899000D02*
X159969000Y-32899000D01*
X138342000Y-32939000D02*
X159978000Y-32939000D01*
X138333000Y-32979000D02*
X159987000Y-32979000D01*
X138324000Y-33019000D02*
X159996000Y-33019000D01*
X138316000Y-33059000D02*
X160004000Y-33059000D01*
X138307000Y-33099000D02*
X160013000Y-33099000D01*
X138299000Y-33139000D02*
X160021000Y-33139000D01*
X138291000Y-33179000D02*
X160029000Y-33179000D01*
X138283000Y-33219000D02*
X160037000Y-33219000D01*
X138276000Y-33259000D02*
X160044000Y-33259000D01*
X138268000Y-33299000D02*
X160052000Y-33299000D01*
X138261000Y-33339000D02*
X160059000Y-33339000D01*
X138254000Y-33379000D02*
X160066000Y-33379000D01*
X138247000Y-33419000D02*
X160073000Y-33419000D01*
X138240000Y-33459000D02*
X160080000Y-33459000D01*
X138233000Y-33499000D02*
X160087000Y-33499000D01*
X138226000Y-33539000D02*
X160094000Y-33539000D01*
X138220000Y-33579000D02*
X160100000Y-33579000D01*
X138213000Y-33619000D02*
X160107000Y-33619000D01*
X138207000Y-33659000D02*
X160113000Y-33659000D01*
X138201000Y-33699000D02*
X160119000Y-33699000D01*
X138195000Y-33739000D02*
X160125000Y-33739000D01*
X138189000Y-33779000D02*
X160131000Y-33779000D01*
X138184000Y-33819000D02*
X160136000Y-33819000D01*
X138178000Y-33859000D02*
X160142000Y-33859000D01*
X138173000Y-33899000D02*
X160147000Y-33899000D01*
X138168000Y-33939000D02*
X160152000Y-33939000D01*
X138163000Y-33979000D02*
X160157000Y-33979000D01*
X138158000Y-34019000D02*
X160162000Y-34019000D01*
X138153000Y-34059000D02*
X160167000Y-34059000D01*
X138149000Y-34099000D02*
X160171000Y-34099000D01*
X138144000Y-34139000D02*
X160176000Y-34139000D01*
X138140000Y-34179000D02*
X160180000Y-34179000D01*
X138136000Y-34219000D02*
X160184000Y-34219000D01*
X138132000Y-34259000D02*
X160188000Y-34259000D01*
X138128000Y-34299000D02*
X160192000Y-34299000D01*
X138125000Y-34339000D02*
X160195000Y-34339000D01*
X138121000Y-34379000D02*
X160199000Y-34379000D01*
X138118000Y-34419000D02*
X160202000Y-34419000D01*
X138114000Y-34459000D02*
X160206000Y-34459000D01*
X138111000Y-34499000D02*
X160209000Y-34499000D01*
X138108000Y-34539000D02*
X160212000Y-34539000D01*
X138106000Y-34579000D02*
X160214000Y-34579000D01*
X138103000Y-34619000D02*
X160217000Y-34619000D01*
X138100000Y-34660000D02*
X160220000Y-34660000D01*
X138098000Y-34700000D02*
X160222000Y-34700000D01*
X138096000Y-34740000D02*
X160224000Y-34740000D01*
X138094000Y-34780000D02*
X160226000Y-34780000D01*
X138092000Y-34820000D02*
X160228000Y-34820000D01*
X138090000Y-34860000D02*
X160230000Y-34860000D01*
X138088000Y-34900000D02*
X160232000Y-34900000D01*
X138087000Y-34940000D02*
X160233000Y-34940000D01*
X138085000Y-34980000D02*
X160235000Y-34980000D01*
X138084000Y-35020000D02*
X160236000Y-35020000D01*
X138083000Y-35060000D02*
X160237000Y-35060000D01*
X138082000Y-35100000D02*
X160238000Y-35100000D01*
X138081000Y-35140000D02*
X160239000Y-35140000D01*
X138081000Y-35180000D02*
X160239000Y-35180000D01*
X138080000Y-35220000D02*
X160240000Y-35220000D01*
X138080000Y-35260000D02*
X160240000Y-35260000D01*
X138080000Y-35300000D02*
X160240000Y-35300000D01*
X138079000Y-35340000D02*
X160241000Y-35340000D01*
X160280000Y-35340000D02*
G75*
G03X160280000Y-35340000I-11120000J0D01*
G01*
G04 #@! TO.C,C2*
X185790000Y-35480000D02*
G75*
G03X185790000Y-35480000I-11120000J0D01*
G01*
X163589000Y-35480000D02*
X185751000Y-35480000D01*
X163590000Y-35440000D02*
X185750000Y-35440000D01*
X163590000Y-35400000D02*
X185750000Y-35400000D01*
X163590000Y-35360000D02*
X185750000Y-35360000D01*
X163591000Y-35320000D02*
X185749000Y-35320000D01*
X163591000Y-35280000D02*
X185749000Y-35280000D01*
X163592000Y-35240000D02*
X185748000Y-35240000D01*
X163593000Y-35200000D02*
X185747000Y-35200000D01*
X163594000Y-35160000D02*
X185746000Y-35160000D01*
X163595000Y-35120000D02*
X185745000Y-35120000D01*
X163597000Y-35080000D02*
X185743000Y-35080000D01*
X163598000Y-35040000D02*
X185742000Y-35040000D01*
X163600000Y-35000000D02*
X185740000Y-35000000D01*
X163602000Y-34960000D02*
X185738000Y-34960000D01*
X163604000Y-34920000D02*
X185736000Y-34920000D01*
X163606000Y-34880000D02*
X185734000Y-34880000D01*
X163608000Y-34840000D02*
X185732000Y-34840000D01*
X163610000Y-34800000D02*
X185730000Y-34800000D01*
X163613000Y-34759000D02*
X185727000Y-34759000D01*
X163616000Y-34719000D02*
X185724000Y-34719000D01*
X163618000Y-34679000D02*
X185722000Y-34679000D01*
X163621000Y-34639000D02*
X185719000Y-34639000D01*
X163624000Y-34599000D02*
X185716000Y-34599000D01*
X163628000Y-34559000D02*
X185712000Y-34559000D01*
X163631000Y-34519000D02*
X185709000Y-34519000D01*
X163635000Y-34479000D02*
X185705000Y-34479000D01*
X163638000Y-34439000D02*
X185702000Y-34439000D01*
X163642000Y-34399000D02*
X185698000Y-34399000D01*
X163646000Y-34359000D02*
X185694000Y-34359000D01*
X163650000Y-34319000D02*
X185690000Y-34319000D01*
X163654000Y-34279000D02*
X185686000Y-34279000D01*
X163659000Y-34239000D02*
X185681000Y-34239000D01*
X163663000Y-34199000D02*
X185677000Y-34199000D01*
X163668000Y-34159000D02*
X185672000Y-34159000D01*
X163673000Y-34119000D02*
X185667000Y-34119000D01*
X163678000Y-34079000D02*
X185662000Y-34079000D01*
X163683000Y-34039000D02*
X185657000Y-34039000D01*
X163688000Y-33999000D02*
X185652000Y-33999000D01*
X163694000Y-33959000D02*
X185646000Y-33959000D01*
X163699000Y-33919000D02*
X185641000Y-33919000D01*
X163705000Y-33879000D02*
X185635000Y-33879000D01*
X163711000Y-33839000D02*
X185629000Y-33839000D01*
X163717000Y-33799000D02*
X185623000Y-33799000D01*
X163723000Y-33759000D02*
X185617000Y-33759000D01*
X163730000Y-33719000D02*
X185610000Y-33719000D01*
X163736000Y-33679000D02*
X185604000Y-33679000D01*
X163743000Y-33639000D02*
X185597000Y-33639000D01*
X163750000Y-33599000D02*
X185590000Y-33599000D01*
X163757000Y-33559000D02*
X185583000Y-33559000D01*
X163764000Y-33519000D02*
X185576000Y-33519000D01*
X163771000Y-33479000D02*
X185569000Y-33479000D01*
X163778000Y-33439000D02*
X185562000Y-33439000D01*
X163786000Y-33399000D02*
X185554000Y-33399000D01*
X163793000Y-33359000D02*
X185547000Y-33359000D01*
X163801000Y-33319000D02*
X185539000Y-33319000D01*
X163809000Y-33279000D02*
X185531000Y-33279000D01*
X163817000Y-33239000D02*
X185523000Y-33239000D01*
X163826000Y-33199000D02*
X185514000Y-33199000D01*
X163834000Y-33159000D02*
X185506000Y-33159000D01*
X163843000Y-33119000D02*
X185497000Y-33119000D01*
X163852000Y-33079000D02*
X185488000Y-33079000D01*
X163861000Y-33039000D02*
X185479000Y-33039000D01*
X163870000Y-32999000D02*
X185470000Y-32999000D01*
X163879000Y-32959000D02*
X185461000Y-32959000D01*
X163888000Y-32919000D02*
X185452000Y-32919000D01*
X163898000Y-32879000D02*
X185442000Y-32879000D01*
X163907000Y-32839000D02*
X185433000Y-32839000D01*
X163917000Y-32799000D02*
X185423000Y-32799000D01*
X163927000Y-32759000D02*
X185413000Y-32759000D01*
X163937000Y-32719000D02*
X172430000Y-32719000D01*
X176910000Y-32719000D02*
X185403000Y-32719000D01*
X163948000Y-32679000D02*
X172430000Y-32679000D01*
X176910000Y-32679000D02*
X185392000Y-32679000D01*
X163958000Y-32639000D02*
X172430000Y-32639000D01*
X176910000Y-32639000D02*
X185382000Y-32639000D01*
X163969000Y-32599000D02*
X172430000Y-32599000D01*
X176910000Y-32599000D02*
X185371000Y-32599000D01*
X163980000Y-32559000D02*
X172430000Y-32559000D01*
X176910000Y-32559000D02*
X185360000Y-32559000D01*
X163991000Y-32519000D02*
X172430000Y-32519000D01*
X176910000Y-32519000D02*
X185349000Y-32519000D01*
X164002000Y-32479000D02*
X172430000Y-32479000D01*
X176910000Y-32479000D02*
X185338000Y-32479000D01*
X164013000Y-32439000D02*
X172430000Y-32439000D01*
X176910000Y-32439000D02*
X185327000Y-32439000D01*
X164025000Y-32399000D02*
X172430000Y-32399000D01*
X176910000Y-32399000D02*
X185315000Y-32399000D01*
X164036000Y-32359000D02*
X172430000Y-32359000D01*
X176910000Y-32359000D02*
X185304000Y-32359000D01*
X164048000Y-32319000D02*
X172430000Y-32319000D01*
X176910000Y-32319000D02*
X185292000Y-32319000D01*
X164060000Y-32279000D02*
X172430000Y-32279000D01*
X176910000Y-32279000D02*
X185280000Y-32279000D01*
X164072000Y-32239000D02*
X172430000Y-32239000D01*
X176910000Y-32239000D02*
X185268000Y-32239000D01*
X164084000Y-32199000D02*
X172430000Y-32199000D01*
X176910000Y-32199000D02*
X185256000Y-32199000D01*
X164097000Y-32159000D02*
X172430000Y-32159000D01*
X176910000Y-32159000D02*
X185243000Y-32159000D01*
X164109000Y-32119000D02*
X172430000Y-32119000D01*
X176910000Y-32119000D02*
X185231000Y-32119000D01*
X164122000Y-32079000D02*
X172430000Y-32079000D01*
X176910000Y-32079000D02*
X185218000Y-32079000D01*
X164135000Y-32039000D02*
X172430000Y-32039000D01*
X176910000Y-32039000D02*
X185205000Y-32039000D01*
X164148000Y-31999000D02*
X172430000Y-31999000D01*
X176910000Y-31999000D02*
X185192000Y-31999000D01*
X164161000Y-31959000D02*
X172430000Y-31959000D01*
X176910000Y-31959000D02*
X185179000Y-31959000D01*
X164175000Y-31919000D02*
X172430000Y-31919000D01*
X176910000Y-31919000D02*
X185165000Y-31919000D01*
X164188000Y-31879000D02*
X172430000Y-31879000D01*
X176910000Y-31879000D02*
X185152000Y-31879000D01*
X164202000Y-31839000D02*
X172430000Y-31839000D01*
X176910000Y-31839000D02*
X185138000Y-31839000D01*
X164216000Y-31799000D02*
X172430000Y-31799000D01*
X176910000Y-31799000D02*
X185124000Y-31799000D01*
X164230000Y-31759000D02*
X172430000Y-31759000D01*
X176910000Y-31759000D02*
X185110000Y-31759000D01*
X164244000Y-31719000D02*
X172430000Y-31719000D01*
X176910000Y-31719000D02*
X185096000Y-31719000D01*
X164259000Y-31679000D02*
X172430000Y-31679000D01*
X176910000Y-31679000D02*
X185081000Y-31679000D01*
X164274000Y-31639000D02*
X172430000Y-31639000D01*
X176910000Y-31639000D02*
X185066000Y-31639000D01*
X164288000Y-31599000D02*
X172430000Y-31599000D01*
X176910000Y-31599000D02*
X185052000Y-31599000D01*
X164303000Y-31559000D02*
X172430000Y-31559000D01*
X176910000Y-31559000D02*
X185037000Y-31559000D01*
X164319000Y-31519000D02*
X172430000Y-31519000D01*
X176910000Y-31519000D02*
X185021000Y-31519000D01*
X164334000Y-31479000D02*
X172430000Y-31479000D01*
X176910000Y-31479000D02*
X185006000Y-31479000D01*
X164349000Y-31439000D02*
X172430000Y-31439000D01*
X176910000Y-31439000D02*
X184991000Y-31439000D01*
X164365000Y-31399000D02*
X172430000Y-31399000D01*
X176910000Y-31399000D02*
X184975000Y-31399000D01*
X164381000Y-31359000D02*
X172430000Y-31359000D01*
X176910000Y-31359000D02*
X184959000Y-31359000D01*
X164397000Y-31319000D02*
X172430000Y-31319000D01*
X176910000Y-31319000D02*
X184943000Y-31319000D01*
X164413000Y-31279000D02*
X172430000Y-31279000D01*
X176910000Y-31279000D02*
X184927000Y-31279000D01*
X164430000Y-31239000D02*
X172430000Y-31239000D01*
X176910000Y-31239000D02*
X184910000Y-31239000D01*
X164446000Y-31199000D02*
X172430000Y-31199000D01*
X176910000Y-31199000D02*
X184894000Y-31199000D01*
X164463000Y-31159000D02*
X172430000Y-31159000D01*
X176910000Y-31159000D02*
X184877000Y-31159000D01*
X164480000Y-31119000D02*
X172430000Y-31119000D01*
X176910000Y-31119000D02*
X184860000Y-31119000D01*
X164497000Y-31079000D02*
X172430000Y-31079000D01*
X176910000Y-31079000D02*
X184843000Y-31079000D01*
X164514000Y-31039000D02*
X172430000Y-31039000D01*
X176910000Y-31039000D02*
X184826000Y-31039000D01*
X164532000Y-30999000D02*
X172430000Y-30999000D01*
X176910000Y-30999000D02*
X184808000Y-30999000D01*
X164550000Y-30959000D02*
X172430000Y-30959000D01*
X176910000Y-30959000D02*
X184790000Y-30959000D01*
X164567000Y-30919000D02*
X172430000Y-30919000D01*
X176910000Y-30919000D02*
X184773000Y-30919000D01*
X164586000Y-30879000D02*
X172430000Y-30879000D01*
X176910000Y-30879000D02*
X184754000Y-30879000D01*
X164604000Y-30839000D02*
X172430000Y-30839000D01*
X176910000Y-30839000D02*
X184736000Y-30839000D01*
X164622000Y-30799000D02*
X172430000Y-30799000D01*
X176910000Y-30799000D02*
X184718000Y-30799000D01*
X164641000Y-30759000D02*
X172430000Y-30759000D01*
X176910000Y-30759000D02*
X184699000Y-30759000D01*
X164660000Y-30719000D02*
X172430000Y-30719000D01*
X176910000Y-30719000D02*
X184680000Y-30719000D01*
X164679000Y-30679000D02*
X172430000Y-30679000D01*
X176910000Y-30679000D02*
X184661000Y-30679000D01*
X164698000Y-30639000D02*
X172430000Y-30639000D01*
X176910000Y-30639000D02*
X184642000Y-30639000D01*
X164718000Y-30599000D02*
X172430000Y-30599000D01*
X176910000Y-30599000D02*
X184622000Y-30599000D01*
X164737000Y-30559000D02*
X172430000Y-30559000D01*
X176910000Y-30559000D02*
X184603000Y-30559000D01*
X164757000Y-30519000D02*
X172430000Y-30519000D01*
X176910000Y-30519000D02*
X184583000Y-30519000D01*
X164777000Y-30479000D02*
X172430000Y-30479000D01*
X176910000Y-30479000D02*
X184563000Y-30479000D01*
X164797000Y-30439000D02*
X172430000Y-30439000D01*
X176910000Y-30439000D02*
X184543000Y-30439000D01*
X164818000Y-30399000D02*
X172430000Y-30399000D01*
X176910000Y-30399000D02*
X184522000Y-30399000D01*
X164838000Y-30359000D02*
X172430000Y-30359000D01*
X176910000Y-30359000D02*
X184502000Y-30359000D01*
X164859000Y-30319000D02*
X172430000Y-30319000D01*
X176910000Y-30319000D02*
X184481000Y-30319000D01*
X164880000Y-30279000D02*
X172430000Y-30279000D01*
X176910000Y-30279000D02*
X184460000Y-30279000D01*
X164902000Y-30239000D02*
X172430000Y-30239000D01*
X176910000Y-30239000D02*
X184438000Y-30239000D01*
X164923000Y-30199000D02*
X172430000Y-30199000D01*
X176910000Y-30199000D02*
X184417000Y-30199000D01*
X164945000Y-30159000D02*
X172430000Y-30159000D01*
X176910000Y-30159000D02*
X184395000Y-30159000D01*
X164967000Y-30119000D02*
X172430000Y-30119000D01*
X176910000Y-30119000D02*
X184373000Y-30119000D01*
X164989000Y-30079000D02*
X172430000Y-30079000D01*
X176910000Y-30079000D02*
X184351000Y-30079000D01*
X165011000Y-30039000D02*
X172430000Y-30039000D01*
X176910000Y-30039000D02*
X184329000Y-30039000D01*
X165034000Y-29999000D02*
X172430000Y-29999000D01*
X176910000Y-29999000D02*
X184306000Y-29999000D01*
X165056000Y-29959000D02*
X172430000Y-29959000D01*
X176910000Y-29959000D02*
X184284000Y-29959000D01*
X165079000Y-29919000D02*
X172430000Y-29919000D01*
X176910000Y-29919000D02*
X184261000Y-29919000D01*
X165103000Y-29879000D02*
X172430000Y-29879000D01*
X176910000Y-29879000D02*
X184237000Y-29879000D01*
X165126000Y-29839000D02*
X172430000Y-29839000D01*
X176910000Y-29839000D02*
X184214000Y-29839000D01*
X165150000Y-29799000D02*
X172430000Y-29799000D01*
X176910000Y-29799000D02*
X184190000Y-29799000D01*
X165173000Y-29759000D02*
X172430000Y-29759000D01*
X176910000Y-29759000D02*
X184167000Y-29759000D01*
X165198000Y-29719000D02*
X172430000Y-29719000D01*
X176910000Y-29719000D02*
X184142000Y-29719000D01*
X165222000Y-29679000D02*
X172430000Y-29679000D01*
X176910000Y-29679000D02*
X184118000Y-29679000D01*
X165246000Y-29639000D02*
X172430000Y-29639000D01*
X176910000Y-29639000D02*
X184094000Y-29639000D01*
X165271000Y-29599000D02*
X172430000Y-29599000D01*
X176910000Y-29599000D02*
X184069000Y-29599000D01*
X165296000Y-29559000D02*
X172430000Y-29559000D01*
X176910000Y-29559000D02*
X184044000Y-29559000D01*
X165322000Y-29519000D02*
X172430000Y-29519000D01*
X176910000Y-29519000D02*
X184018000Y-29519000D01*
X165347000Y-29479000D02*
X172430000Y-29479000D01*
X176910000Y-29479000D02*
X183993000Y-29479000D01*
X165373000Y-29439000D02*
X172430000Y-29439000D01*
X176910000Y-29439000D02*
X183967000Y-29439000D01*
X165399000Y-29399000D02*
X172430000Y-29399000D01*
X176910000Y-29399000D02*
X183941000Y-29399000D01*
X165425000Y-29359000D02*
X172430000Y-29359000D01*
X176910000Y-29359000D02*
X183915000Y-29359000D01*
X165452000Y-29319000D02*
X172430000Y-29319000D01*
X176910000Y-29319000D02*
X183888000Y-29319000D01*
X165478000Y-29279000D02*
X172430000Y-29279000D01*
X176910000Y-29279000D02*
X183862000Y-29279000D01*
X165505000Y-29239000D02*
X172430000Y-29239000D01*
X176910000Y-29239000D02*
X183835000Y-29239000D01*
X165533000Y-29199000D02*
X172430000Y-29199000D01*
X176910000Y-29199000D02*
X183807000Y-29199000D01*
X165560000Y-29159000D02*
X172430000Y-29159000D01*
X176910000Y-29159000D02*
X183780000Y-29159000D01*
X165588000Y-29119000D02*
X172430000Y-29119000D01*
X176910000Y-29119000D02*
X183752000Y-29119000D01*
X165616000Y-29079000D02*
X172430000Y-29079000D01*
X176910000Y-29079000D02*
X183724000Y-29079000D01*
X165644000Y-29039000D02*
X172430000Y-29039000D01*
X176910000Y-29039000D02*
X183696000Y-29039000D01*
X165673000Y-28999000D02*
X172430000Y-28999000D01*
X176910000Y-28999000D02*
X183667000Y-28999000D01*
X165702000Y-28959000D02*
X172430000Y-28959000D01*
X176910000Y-28959000D02*
X183638000Y-28959000D01*
X165731000Y-28919000D02*
X172430000Y-28919000D01*
X176910000Y-28919000D02*
X183609000Y-28919000D01*
X165760000Y-28879000D02*
X172430000Y-28879000D01*
X176910000Y-28879000D02*
X183580000Y-28879000D01*
X165790000Y-28839000D02*
X172430000Y-28839000D01*
X176910000Y-28839000D02*
X183550000Y-28839000D01*
X165820000Y-28799000D02*
X172430000Y-28799000D01*
X176910000Y-28799000D02*
X183520000Y-28799000D01*
X165850000Y-28759000D02*
X172430000Y-28759000D01*
X176910000Y-28759000D02*
X183490000Y-28759000D01*
X165880000Y-28719000D02*
X172430000Y-28719000D01*
X176910000Y-28719000D02*
X183460000Y-28719000D01*
X165911000Y-28679000D02*
X172430000Y-28679000D01*
X176910000Y-28679000D02*
X183429000Y-28679000D01*
X165942000Y-28639000D02*
X172430000Y-28639000D01*
X176910000Y-28639000D02*
X183398000Y-28639000D01*
X165973000Y-28599000D02*
X172430000Y-28599000D01*
X176910000Y-28599000D02*
X183367000Y-28599000D01*
X166005000Y-28559000D02*
X172430000Y-28559000D01*
X176910000Y-28559000D02*
X183335000Y-28559000D01*
X166037000Y-28519000D02*
X172430000Y-28519000D01*
X176910000Y-28519000D02*
X183303000Y-28519000D01*
X166069000Y-28479000D02*
X172430000Y-28479000D01*
X176910000Y-28479000D02*
X183271000Y-28479000D01*
X166102000Y-28439000D02*
X172430000Y-28439000D01*
X176910000Y-28439000D02*
X183238000Y-28439000D01*
X166135000Y-28399000D02*
X172430000Y-28399000D01*
X176910000Y-28399000D02*
X183205000Y-28399000D01*
X166168000Y-28359000D02*
X172430000Y-28359000D01*
X176910000Y-28359000D02*
X183172000Y-28359000D01*
X166201000Y-28319000D02*
X172430000Y-28319000D01*
X176910000Y-28319000D02*
X183139000Y-28319000D01*
X166235000Y-28279000D02*
X172430000Y-28279000D01*
X176910000Y-28279000D02*
X183105000Y-28279000D01*
X166269000Y-28239000D02*
X183071000Y-28239000D01*
X166304000Y-28199000D02*
X183036000Y-28199000D01*
X166339000Y-28159000D02*
X183001000Y-28159000D01*
X166374000Y-28119000D02*
X182966000Y-28119000D01*
X166409000Y-28079000D02*
X182931000Y-28079000D01*
X166445000Y-28039000D02*
X182895000Y-28039000D01*
X166481000Y-27999000D02*
X182859000Y-27999000D01*
X166518000Y-27959000D02*
X182822000Y-27959000D01*
X166555000Y-27919000D02*
X182785000Y-27919000D01*
X166592000Y-27879000D02*
X182748000Y-27879000D01*
X166630000Y-27839000D02*
X182710000Y-27839000D01*
X166668000Y-27799000D02*
X182672000Y-27799000D01*
X166706000Y-27759000D02*
X182634000Y-27759000D01*
X166745000Y-27719000D02*
X182595000Y-27719000D01*
X166784000Y-27679000D02*
X182556000Y-27679000D01*
X166824000Y-27639000D02*
X182516000Y-27639000D01*
X166863000Y-27599000D02*
X182477000Y-27599000D01*
X166904000Y-27559000D02*
X182436000Y-27559000D01*
X166945000Y-27519000D02*
X182395000Y-27519000D01*
X166986000Y-27479000D02*
X182354000Y-27479000D01*
X167028000Y-27439000D02*
X182312000Y-27439000D01*
X167070000Y-27399000D02*
X182270000Y-27399000D01*
X167112000Y-27359000D02*
X182228000Y-27359000D01*
X167155000Y-27319000D02*
X182185000Y-27319000D01*
X167199000Y-27280000D02*
X182141000Y-27280000D01*
X167242000Y-27240000D02*
X182098000Y-27240000D01*
X167287000Y-27200000D02*
X182053000Y-27200000D01*
X167332000Y-27160000D02*
X182008000Y-27160000D01*
X167377000Y-27120000D02*
X181963000Y-27120000D01*
X167423000Y-27080000D02*
X181917000Y-27080000D01*
X167469000Y-27040000D02*
X181871000Y-27040000D01*
X167516000Y-27000000D02*
X181824000Y-27000000D01*
X167564000Y-26960000D02*
X181776000Y-26960000D01*
X167612000Y-26920000D02*
X181728000Y-26920000D01*
X167660000Y-26880000D02*
X181680000Y-26880000D01*
X167709000Y-26840000D02*
X181631000Y-26840000D01*
X167759000Y-26800000D02*
X181581000Y-26800000D01*
X167809000Y-26760000D02*
X181531000Y-26760000D01*
X167860000Y-26720000D02*
X181480000Y-26720000D01*
X167911000Y-26680000D02*
X181429000Y-26680000D01*
X167963000Y-26640000D02*
X181377000Y-26640000D01*
X168016000Y-26600000D02*
X181324000Y-26600000D01*
X168070000Y-26560000D02*
X181270000Y-26560000D01*
X168124000Y-26520000D02*
X181216000Y-26520000D01*
X168178000Y-26480000D02*
X181162000Y-26480000D01*
X168234000Y-26440000D02*
X181106000Y-26440000D01*
X168290000Y-26400000D02*
X181050000Y-26400000D01*
X168347000Y-26360000D02*
X180993000Y-26360000D01*
X168405000Y-26320000D02*
X180935000Y-26320000D01*
X168463000Y-26280000D02*
X180877000Y-26280000D01*
X168523000Y-26240000D02*
X180817000Y-26240000D01*
X168583000Y-26200000D02*
X180757000Y-26200000D01*
X168644000Y-26160000D02*
X180696000Y-26160000D01*
X168706000Y-26120000D02*
X180634000Y-26120000D01*
X168769000Y-26080000D02*
X180571000Y-26080000D01*
X168832000Y-26040000D02*
X180508000Y-26040000D01*
X168897000Y-26000000D02*
X180443000Y-26000000D01*
X168963000Y-25960000D02*
X180377000Y-25960000D01*
X169030000Y-25920000D02*
X180310000Y-25920000D01*
X169098000Y-25880000D02*
X180242000Y-25880000D01*
X169167000Y-25840000D02*
X180173000Y-25840000D01*
X169237000Y-25800000D02*
X180103000Y-25800000D01*
X169308000Y-25760000D02*
X180032000Y-25760000D01*
X169381000Y-25720000D02*
X179959000Y-25720000D01*
X169455000Y-25680000D02*
X179885000Y-25680000D01*
X169530000Y-25640000D02*
X179810000Y-25640000D01*
X169607000Y-25600000D02*
X179733000Y-25600000D01*
X169685000Y-25560000D02*
X179655000Y-25560000D01*
X169765000Y-25520000D02*
X179575000Y-25520000D01*
X169846000Y-25480000D02*
X179494000Y-25480000D01*
X169929000Y-25440000D02*
X179411000Y-25440000D01*
X170014000Y-25400000D02*
X179326000Y-25400000D01*
X170101000Y-25360000D02*
X179239000Y-25360000D01*
X170190000Y-25320000D02*
X179150000Y-25320000D01*
X170281000Y-25280000D02*
X179059000Y-25280000D01*
X170374000Y-25240000D02*
X178966000Y-25240000D01*
X170470000Y-25200000D02*
X178870000Y-25200000D01*
X170568000Y-25160000D02*
X178772000Y-25160000D01*
X170669000Y-25120000D02*
X178671000Y-25120000D01*
X170773000Y-25080000D02*
X178567000Y-25080000D01*
X170881000Y-25040000D02*
X178459000Y-25040000D01*
X170991000Y-25000000D02*
X178349000Y-25000000D01*
X171106000Y-24960000D02*
X178234000Y-24960000D01*
X171225000Y-24920000D02*
X178115000Y-24920000D01*
X171349000Y-24880000D02*
X177991000Y-24880000D01*
X171478000Y-24840000D02*
X177862000Y-24840000D01*
X171612000Y-24800000D02*
X177728000Y-24800000D01*
X171754000Y-24760000D02*
X177586000Y-24760000D01*
X171903000Y-24720000D02*
X177437000Y-24720000D01*
X172061000Y-24680000D02*
X177279000Y-24680000D01*
X172230000Y-24640000D02*
X177110000Y-24640000D01*
X172412000Y-24600000D02*
X176928000Y-24600000D01*
X172610000Y-24560000D02*
X176730000Y-24560000D01*
X172830000Y-24520000D02*
X176510000Y-24520000D01*
X173080000Y-24480000D02*
X176260000Y-24480000D01*
X173378000Y-24440000D02*
X175962000Y-24440000D01*
X173767000Y-24400000D02*
X175573000Y-24400000D01*
X174630000Y-24360000D02*
X174710000Y-24360000D01*
X168435000Y-47379337D02*
X168435000Y-45179337D01*
X167335000Y-46279337D02*
X169535000Y-46279337D01*
G04 #@! TO.C,C8*
X175920000Y-92000000D02*
G75*
G03X175920000Y-92000000I-2120000J0D01*
G01*
X173800000Y-94080000D02*
X173800000Y-89920000D01*
X173760000Y-94080000D02*
X173760000Y-89920000D01*
X173720000Y-94079000D02*
X173720000Y-89921000D01*
X173680000Y-94077000D02*
X173680000Y-89923000D01*
X173640000Y-94074000D02*
X173640000Y-89926000D01*
X173600000Y-94071000D02*
X173600000Y-92840000D01*
X173600000Y-91160000D02*
X173600000Y-89929000D01*
X173560000Y-94067000D02*
X173560000Y-92840000D01*
X173560000Y-91160000D02*
X173560000Y-89933000D01*
X173520000Y-94062000D02*
X173520000Y-92840000D01*
X173520000Y-91160000D02*
X173520000Y-89938000D01*
X173480000Y-94056000D02*
X173480000Y-92840000D01*
X173480000Y-91160000D02*
X173480000Y-89944000D01*
X173440000Y-94050000D02*
X173440000Y-92840000D01*
X173440000Y-91160000D02*
X173440000Y-89950000D01*
X173400000Y-94042000D02*
X173400000Y-92840000D01*
X173400000Y-91160000D02*
X173400000Y-89958000D01*
X173360000Y-94034000D02*
X173360000Y-92840000D01*
X173360000Y-91160000D02*
X173360000Y-89966000D01*
X173320000Y-94025000D02*
X173320000Y-92840000D01*
X173320000Y-91160000D02*
X173320000Y-89975000D01*
X173280000Y-94016000D02*
X173280000Y-92840000D01*
X173280000Y-91160000D02*
X173280000Y-89984000D01*
X173240000Y-94005000D02*
X173240000Y-92840000D01*
X173240000Y-91160000D02*
X173240000Y-89995000D01*
X173200000Y-93994000D02*
X173200000Y-92840000D01*
X173200000Y-91160000D02*
X173200000Y-90006000D01*
X173160000Y-93982000D02*
X173160000Y-92840000D01*
X173160000Y-91160000D02*
X173160000Y-90018000D01*
X173120000Y-93968000D02*
X173120000Y-92840000D01*
X173120000Y-91160000D02*
X173120000Y-90032000D01*
X173079000Y-93954000D02*
X173079000Y-92840000D01*
X173079000Y-91160000D02*
X173079000Y-90046000D01*
X173039000Y-93940000D02*
X173039000Y-92840000D01*
X173039000Y-91160000D02*
X173039000Y-90060000D01*
X172999000Y-93924000D02*
X172999000Y-92840000D01*
X172999000Y-91160000D02*
X172999000Y-90076000D01*
X172959000Y-93907000D02*
X172959000Y-92840000D01*
X172959000Y-91160000D02*
X172959000Y-90093000D01*
X172919000Y-93889000D02*
X172919000Y-92840000D01*
X172919000Y-91160000D02*
X172919000Y-90111000D01*
X172879000Y-93870000D02*
X172879000Y-92840000D01*
X172879000Y-91160000D02*
X172879000Y-90130000D01*
X172839000Y-93851000D02*
X172839000Y-92840000D01*
X172839000Y-91160000D02*
X172839000Y-90149000D01*
X172799000Y-93830000D02*
X172799000Y-92840000D01*
X172799000Y-91160000D02*
X172799000Y-90170000D01*
X172759000Y-93808000D02*
X172759000Y-92840000D01*
X172759000Y-91160000D02*
X172759000Y-90192000D01*
X172719000Y-93785000D02*
X172719000Y-92840000D01*
X172719000Y-91160000D02*
X172719000Y-90215000D01*
X172679000Y-93760000D02*
X172679000Y-92840000D01*
X172679000Y-91160000D02*
X172679000Y-90240000D01*
X172639000Y-93735000D02*
X172639000Y-92840000D01*
X172639000Y-91160000D02*
X172639000Y-90265000D01*
X172599000Y-93708000D02*
X172599000Y-92840000D01*
X172599000Y-91160000D02*
X172599000Y-90292000D01*
X172559000Y-93680000D02*
X172559000Y-92840000D01*
X172559000Y-91160000D02*
X172559000Y-90320000D01*
X172519000Y-93650000D02*
X172519000Y-92840000D01*
X172519000Y-91160000D02*
X172519000Y-90350000D01*
X172479000Y-93619000D02*
X172479000Y-92840000D01*
X172479000Y-91160000D02*
X172479000Y-90381000D01*
X172439000Y-93587000D02*
X172439000Y-92840000D01*
X172439000Y-91160000D02*
X172439000Y-90413000D01*
X172399000Y-93552000D02*
X172399000Y-92840000D01*
X172399000Y-91160000D02*
X172399000Y-90448000D01*
X172359000Y-93516000D02*
X172359000Y-92840000D01*
X172359000Y-91160000D02*
X172359000Y-90484000D01*
X172319000Y-93478000D02*
X172319000Y-92840000D01*
X172319000Y-91160000D02*
X172319000Y-90522000D01*
X172279000Y-93438000D02*
X172279000Y-92840000D01*
X172279000Y-91160000D02*
X172279000Y-90562000D01*
X172239000Y-93396000D02*
X172239000Y-92840000D01*
X172239000Y-91160000D02*
X172239000Y-90604000D01*
X172199000Y-93351000D02*
X172199000Y-92840000D01*
X172199000Y-91160000D02*
X172199000Y-90649000D01*
X172159000Y-93304000D02*
X172159000Y-92840000D01*
X172159000Y-91160000D02*
X172159000Y-90696000D01*
X172119000Y-93254000D02*
X172119000Y-92840000D01*
X172119000Y-91160000D02*
X172119000Y-90746000D01*
X172079000Y-93200000D02*
X172079000Y-92840000D01*
X172079000Y-91160000D02*
X172079000Y-90800000D01*
X172039000Y-93142000D02*
X172039000Y-92840000D01*
X172039000Y-91160000D02*
X172039000Y-90858000D01*
X171999000Y-93080000D02*
X171999000Y-92840000D01*
X171999000Y-91160000D02*
X171999000Y-90920000D01*
X171959000Y-93013000D02*
X171959000Y-90987000D01*
X171919000Y-92940000D02*
X171919000Y-91060000D01*
X171879000Y-92859000D02*
X171879000Y-91141000D01*
X171839000Y-92768000D02*
X171839000Y-91232000D01*
X171799000Y-92664000D02*
X171799000Y-91336000D01*
X171759000Y-92537000D02*
X171759000Y-91463000D01*
X171719000Y-92370000D02*
X171719000Y-91630000D01*
X176069801Y-93195000D02*
X175669801Y-93195000D01*
X175869801Y-93395000D02*
X175869801Y-92995000D01*
G04 #@! TO.C,C7*
X157019801Y-93495000D02*
X157019801Y-93095000D01*
X157219801Y-93295000D02*
X156819801Y-93295000D01*
X152869000Y-92470000D02*
X152869000Y-91730000D01*
X152909000Y-92637000D02*
X152909000Y-91563000D01*
X152949000Y-92764000D02*
X152949000Y-91436000D01*
X152989000Y-92868000D02*
X152989000Y-91332000D01*
X153029000Y-92959000D02*
X153029000Y-91241000D01*
X153069000Y-93040000D02*
X153069000Y-91160000D01*
X153109000Y-93113000D02*
X153109000Y-91087000D01*
X153149000Y-91260000D02*
X153149000Y-91020000D01*
X153149000Y-93180000D02*
X153149000Y-92940000D01*
X153189000Y-91260000D02*
X153189000Y-90958000D01*
X153189000Y-93242000D02*
X153189000Y-92940000D01*
X153229000Y-91260000D02*
X153229000Y-90900000D01*
X153229000Y-93300000D02*
X153229000Y-92940000D01*
X153269000Y-91260000D02*
X153269000Y-90846000D01*
X153269000Y-93354000D02*
X153269000Y-92940000D01*
X153309000Y-91260000D02*
X153309000Y-90796000D01*
X153309000Y-93404000D02*
X153309000Y-92940000D01*
X153349000Y-91260000D02*
X153349000Y-90749000D01*
X153349000Y-93451000D02*
X153349000Y-92940000D01*
X153389000Y-91260000D02*
X153389000Y-90704000D01*
X153389000Y-93496000D02*
X153389000Y-92940000D01*
X153429000Y-91260000D02*
X153429000Y-90662000D01*
X153429000Y-93538000D02*
X153429000Y-92940000D01*
X153469000Y-91260000D02*
X153469000Y-90622000D01*
X153469000Y-93578000D02*
X153469000Y-92940000D01*
X153509000Y-91260000D02*
X153509000Y-90584000D01*
X153509000Y-93616000D02*
X153509000Y-92940000D01*
X153549000Y-91260000D02*
X153549000Y-90548000D01*
X153549000Y-93652000D02*
X153549000Y-92940000D01*
X153589000Y-91260000D02*
X153589000Y-90513000D01*
X153589000Y-93687000D02*
X153589000Y-92940000D01*
X153629000Y-91260000D02*
X153629000Y-90481000D01*
X153629000Y-93719000D02*
X153629000Y-92940000D01*
X153669000Y-91260000D02*
X153669000Y-90450000D01*
X153669000Y-93750000D02*
X153669000Y-92940000D01*
X153709000Y-91260000D02*
X153709000Y-90420000D01*
X153709000Y-93780000D02*
X153709000Y-92940000D01*
X153749000Y-91260000D02*
X153749000Y-90392000D01*
X153749000Y-93808000D02*
X153749000Y-92940000D01*
X153789000Y-91260000D02*
X153789000Y-90365000D01*
X153789000Y-93835000D02*
X153789000Y-92940000D01*
X153829000Y-91260000D02*
X153829000Y-90340000D01*
X153829000Y-93860000D02*
X153829000Y-92940000D01*
X153869000Y-91260000D02*
X153869000Y-90315000D01*
X153869000Y-93885000D02*
X153869000Y-92940000D01*
X153909000Y-91260000D02*
X153909000Y-90292000D01*
X153909000Y-93908000D02*
X153909000Y-92940000D01*
X153949000Y-91260000D02*
X153949000Y-90270000D01*
X153949000Y-93930000D02*
X153949000Y-92940000D01*
X153989000Y-91260000D02*
X153989000Y-90249000D01*
X153989000Y-93951000D02*
X153989000Y-92940000D01*
X154029000Y-91260000D02*
X154029000Y-90230000D01*
X154029000Y-93970000D02*
X154029000Y-92940000D01*
X154069000Y-91260000D02*
X154069000Y-90211000D01*
X154069000Y-93989000D02*
X154069000Y-92940000D01*
X154109000Y-91260000D02*
X154109000Y-90193000D01*
X154109000Y-94007000D02*
X154109000Y-92940000D01*
X154149000Y-91260000D02*
X154149000Y-90176000D01*
X154149000Y-94024000D02*
X154149000Y-92940000D01*
X154189000Y-91260000D02*
X154189000Y-90160000D01*
X154189000Y-94040000D02*
X154189000Y-92940000D01*
X154229000Y-91260000D02*
X154229000Y-90146000D01*
X154229000Y-94054000D02*
X154229000Y-92940000D01*
X154270000Y-91260000D02*
X154270000Y-90132000D01*
X154270000Y-94068000D02*
X154270000Y-92940000D01*
X154310000Y-91260000D02*
X154310000Y-90118000D01*
X154310000Y-94082000D02*
X154310000Y-92940000D01*
X154350000Y-91260000D02*
X154350000Y-90106000D01*
X154350000Y-94094000D02*
X154350000Y-92940000D01*
X154390000Y-91260000D02*
X154390000Y-90095000D01*
X154390000Y-94105000D02*
X154390000Y-92940000D01*
X154430000Y-91260000D02*
X154430000Y-90084000D01*
X154430000Y-94116000D02*
X154430000Y-92940000D01*
X154470000Y-91260000D02*
X154470000Y-90075000D01*
X154470000Y-94125000D02*
X154470000Y-92940000D01*
X154510000Y-91260000D02*
X154510000Y-90066000D01*
X154510000Y-94134000D02*
X154510000Y-92940000D01*
X154550000Y-91260000D02*
X154550000Y-90058000D01*
X154550000Y-94142000D02*
X154550000Y-92940000D01*
X154590000Y-91260000D02*
X154590000Y-90050000D01*
X154590000Y-94150000D02*
X154590000Y-92940000D01*
X154630000Y-91260000D02*
X154630000Y-90044000D01*
X154630000Y-94156000D02*
X154630000Y-92940000D01*
X154670000Y-91260000D02*
X154670000Y-90038000D01*
X154670000Y-94162000D02*
X154670000Y-92940000D01*
X154710000Y-91260000D02*
X154710000Y-90033000D01*
X154710000Y-94167000D02*
X154710000Y-92940000D01*
X154750000Y-91260000D02*
X154750000Y-90029000D01*
X154750000Y-94171000D02*
X154750000Y-92940000D01*
X154790000Y-94174000D02*
X154790000Y-90026000D01*
X154830000Y-94177000D02*
X154830000Y-90023000D01*
X154870000Y-94179000D02*
X154870000Y-90021000D01*
X154910000Y-94180000D02*
X154910000Y-90020000D01*
X154950000Y-94180000D02*
X154950000Y-90020000D01*
X157070000Y-92100000D02*
G75*
G03X157070000Y-92100000I-2120000J0D01*
G01*
G04 #@! TO.C,C6*
X140470000Y-91860000D02*
G75*
G03X140470000Y-91860000I-2120000J0D01*
G01*
X138350000Y-89780000D02*
X138350000Y-93940000D01*
X138390000Y-89780000D02*
X138390000Y-93940000D01*
X138430000Y-89781000D02*
X138430000Y-93939000D01*
X138470000Y-89783000D02*
X138470000Y-93937000D01*
X138510000Y-89786000D02*
X138510000Y-93934000D01*
X138550000Y-89789000D02*
X138550000Y-91020000D01*
X138550000Y-92700000D02*
X138550000Y-93931000D01*
X138590000Y-89793000D02*
X138590000Y-91020000D01*
X138590000Y-92700000D02*
X138590000Y-93927000D01*
X138630000Y-89798000D02*
X138630000Y-91020000D01*
X138630000Y-92700000D02*
X138630000Y-93922000D01*
X138670000Y-89804000D02*
X138670000Y-91020000D01*
X138670000Y-92700000D02*
X138670000Y-93916000D01*
X138710000Y-89810000D02*
X138710000Y-91020000D01*
X138710000Y-92700000D02*
X138710000Y-93910000D01*
X138750000Y-89818000D02*
X138750000Y-91020000D01*
X138750000Y-92700000D02*
X138750000Y-93902000D01*
X138790000Y-89826000D02*
X138790000Y-91020000D01*
X138790000Y-92700000D02*
X138790000Y-93894000D01*
X138830000Y-89835000D02*
X138830000Y-91020000D01*
X138830000Y-92700000D02*
X138830000Y-93885000D01*
X138870000Y-89844000D02*
X138870000Y-91020000D01*
X138870000Y-92700000D02*
X138870000Y-93876000D01*
X138910000Y-89855000D02*
X138910000Y-91020000D01*
X138910000Y-92700000D02*
X138910000Y-93865000D01*
X138950000Y-89866000D02*
X138950000Y-91020000D01*
X138950000Y-92700000D02*
X138950000Y-93854000D01*
X138990000Y-89878000D02*
X138990000Y-91020000D01*
X138990000Y-92700000D02*
X138990000Y-93842000D01*
X139030000Y-89892000D02*
X139030000Y-91020000D01*
X139030000Y-92700000D02*
X139030000Y-93828000D01*
X139071000Y-89906000D02*
X139071000Y-91020000D01*
X139071000Y-92700000D02*
X139071000Y-93814000D01*
X139111000Y-89920000D02*
X139111000Y-91020000D01*
X139111000Y-92700000D02*
X139111000Y-93800000D01*
X139151000Y-89936000D02*
X139151000Y-91020000D01*
X139151000Y-92700000D02*
X139151000Y-93784000D01*
X139191000Y-89953000D02*
X139191000Y-91020000D01*
X139191000Y-92700000D02*
X139191000Y-93767000D01*
X139231000Y-89971000D02*
X139231000Y-91020000D01*
X139231000Y-92700000D02*
X139231000Y-93749000D01*
X139271000Y-89990000D02*
X139271000Y-91020000D01*
X139271000Y-92700000D02*
X139271000Y-93730000D01*
X139311000Y-90009000D02*
X139311000Y-91020000D01*
X139311000Y-92700000D02*
X139311000Y-93711000D01*
X139351000Y-90030000D02*
X139351000Y-91020000D01*
X139351000Y-92700000D02*
X139351000Y-93690000D01*
X139391000Y-90052000D02*
X139391000Y-91020000D01*
X139391000Y-92700000D02*
X139391000Y-93668000D01*
X139431000Y-90075000D02*
X139431000Y-91020000D01*
X139431000Y-92700000D02*
X139431000Y-93645000D01*
X139471000Y-90100000D02*
X139471000Y-91020000D01*
X139471000Y-92700000D02*
X139471000Y-93620000D01*
X139511000Y-90125000D02*
X139511000Y-91020000D01*
X139511000Y-92700000D02*
X139511000Y-93595000D01*
X139551000Y-90152000D02*
X139551000Y-91020000D01*
X139551000Y-92700000D02*
X139551000Y-93568000D01*
X139591000Y-90180000D02*
X139591000Y-91020000D01*
X139591000Y-92700000D02*
X139591000Y-93540000D01*
X139631000Y-90210000D02*
X139631000Y-91020000D01*
X139631000Y-92700000D02*
X139631000Y-93510000D01*
X139671000Y-90241000D02*
X139671000Y-91020000D01*
X139671000Y-92700000D02*
X139671000Y-93479000D01*
X139711000Y-90273000D02*
X139711000Y-91020000D01*
X139711000Y-92700000D02*
X139711000Y-93447000D01*
X139751000Y-90308000D02*
X139751000Y-91020000D01*
X139751000Y-92700000D02*
X139751000Y-93412000D01*
X139791000Y-90344000D02*
X139791000Y-91020000D01*
X139791000Y-92700000D02*
X139791000Y-93376000D01*
X139831000Y-90382000D02*
X139831000Y-91020000D01*
X139831000Y-92700000D02*
X139831000Y-93338000D01*
X139871000Y-90422000D02*
X139871000Y-91020000D01*
X139871000Y-92700000D02*
X139871000Y-93298000D01*
X139911000Y-90464000D02*
X139911000Y-91020000D01*
X139911000Y-92700000D02*
X139911000Y-93256000D01*
X139951000Y-90509000D02*
X139951000Y-91020000D01*
X139951000Y-92700000D02*
X139951000Y-93211000D01*
X139991000Y-90556000D02*
X139991000Y-91020000D01*
X139991000Y-92700000D02*
X139991000Y-93164000D01*
X140031000Y-90606000D02*
X140031000Y-91020000D01*
X140031000Y-92700000D02*
X140031000Y-93114000D01*
X140071000Y-90660000D02*
X140071000Y-91020000D01*
X140071000Y-92700000D02*
X140071000Y-93060000D01*
X140111000Y-90718000D02*
X140111000Y-91020000D01*
X140111000Y-92700000D02*
X140111000Y-93002000D01*
X140151000Y-90780000D02*
X140151000Y-91020000D01*
X140151000Y-92700000D02*
X140151000Y-92940000D01*
X140191000Y-90847000D02*
X140191000Y-92873000D01*
X140231000Y-90920000D02*
X140231000Y-92800000D01*
X140271000Y-91001000D02*
X140271000Y-92719000D01*
X140311000Y-91092000D02*
X140311000Y-92628000D01*
X140351000Y-91196000D02*
X140351000Y-92524000D01*
X140391000Y-91323000D02*
X140391000Y-92397000D01*
X140431000Y-91490000D02*
X140431000Y-92230000D01*
X136080199Y-90665000D02*
X136480199Y-90665000D01*
X136280199Y-90465000D02*
X136280199Y-90865000D01*
G04 #@! TO.C,C9*
X146620000Y-91800000D02*
G75*
G03X146620000Y-91800000I-2120000J0D01*
G01*
X144500000Y-93880000D02*
X144500000Y-89720000D01*
X144460000Y-93880000D02*
X144460000Y-89720000D01*
X144420000Y-93879000D02*
X144420000Y-89721000D01*
X144380000Y-93877000D02*
X144380000Y-89723000D01*
X144340000Y-93874000D02*
X144340000Y-89726000D01*
X144300000Y-93871000D02*
X144300000Y-92640000D01*
X144300000Y-90960000D02*
X144300000Y-89729000D01*
X144260000Y-93867000D02*
X144260000Y-92640000D01*
X144260000Y-90960000D02*
X144260000Y-89733000D01*
X144220000Y-93862000D02*
X144220000Y-92640000D01*
X144220000Y-90960000D02*
X144220000Y-89738000D01*
X144180000Y-93856000D02*
X144180000Y-92640000D01*
X144180000Y-90960000D02*
X144180000Y-89744000D01*
X144140000Y-93850000D02*
X144140000Y-92640000D01*
X144140000Y-90960000D02*
X144140000Y-89750000D01*
X144100000Y-93842000D02*
X144100000Y-92640000D01*
X144100000Y-90960000D02*
X144100000Y-89758000D01*
X144060000Y-93834000D02*
X144060000Y-92640000D01*
X144060000Y-90960000D02*
X144060000Y-89766000D01*
X144020000Y-93825000D02*
X144020000Y-92640000D01*
X144020000Y-90960000D02*
X144020000Y-89775000D01*
X143980000Y-93816000D02*
X143980000Y-92640000D01*
X143980000Y-90960000D02*
X143980000Y-89784000D01*
X143940000Y-93805000D02*
X143940000Y-92640000D01*
X143940000Y-90960000D02*
X143940000Y-89795000D01*
X143900000Y-93794000D02*
X143900000Y-92640000D01*
X143900000Y-90960000D02*
X143900000Y-89806000D01*
X143860000Y-93782000D02*
X143860000Y-92640000D01*
X143860000Y-90960000D02*
X143860000Y-89818000D01*
X143820000Y-93768000D02*
X143820000Y-92640000D01*
X143820000Y-90960000D02*
X143820000Y-89832000D01*
X143779000Y-93754000D02*
X143779000Y-92640000D01*
X143779000Y-90960000D02*
X143779000Y-89846000D01*
X143739000Y-93740000D02*
X143739000Y-92640000D01*
X143739000Y-90960000D02*
X143739000Y-89860000D01*
X143699000Y-93724000D02*
X143699000Y-92640000D01*
X143699000Y-90960000D02*
X143699000Y-89876000D01*
X143659000Y-93707000D02*
X143659000Y-92640000D01*
X143659000Y-90960000D02*
X143659000Y-89893000D01*
X143619000Y-93689000D02*
X143619000Y-92640000D01*
X143619000Y-90960000D02*
X143619000Y-89911000D01*
X143579000Y-93670000D02*
X143579000Y-92640000D01*
X143579000Y-90960000D02*
X143579000Y-89930000D01*
X143539000Y-93651000D02*
X143539000Y-92640000D01*
X143539000Y-90960000D02*
X143539000Y-89949000D01*
X143499000Y-93630000D02*
X143499000Y-92640000D01*
X143499000Y-90960000D02*
X143499000Y-89970000D01*
X143459000Y-93608000D02*
X143459000Y-92640000D01*
X143459000Y-90960000D02*
X143459000Y-89992000D01*
X143419000Y-93585000D02*
X143419000Y-92640000D01*
X143419000Y-90960000D02*
X143419000Y-90015000D01*
X143379000Y-93560000D02*
X143379000Y-92640000D01*
X143379000Y-90960000D02*
X143379000Y-90040000D01*
X143339000Y-93535000D02*
X143339000Y-92640000D01*
X143339000Y-90960000D02*
X143339000Y-90065000D01*
X143299000Y-93508000D02*
X143299000Y-92640000D01*
X143299000Y-90960000D02*
X143299000Y-90092000D01*
X143259000Y-93480000D02*
X143259000Y-92640000D01*
X143259000Y-90960000D02*
X143259000Y-90120000D01*
X143219000Y-93450000D02*
X143219000Y-92640000D01*
X143219000Y-90960000D02*
X143219000Y-90150000D01*
X143179000Y-93419000D02*
X143179000Y-92640000D01*
X143179000Y-90960000D02*
X143179000Y-90181000D01*
X143139000Y-93387000D02*
X143139000Y-92640000D01*
X143139000Y-90960000D02*
X143139000Y-90213000D01*
X143099000Y-93352000D02*
X143099000Y-92640000D01*
X143099000Y-90960000D02*
X143099000Y-90248000D01*
X143059000Y-93316000D02*
X143059000Y-92640000D01*
X143059000Y-90960000D02*
X143059000Y-90284000D01*
X143019000Y-93278000D02*
X143019000Y-92640000D01*
X143019000Y-90960000D02*
X143019000Y-90322000D01*
X142979000Y-93238000D02*
X142979000Y-92640000D01*
X142979000Y-90960000D02*
X142979000Y-90362000D01*
X142939000Y-93196000D02*
X142939000Y-92640000D01*
X142939000Y-90960000D02*
X142939000Y-90404000D01*
X142899000Y-93151000D02*
X142899000Y-92640000D01*
X142899000Y-90960000D02*
X142899000Y-90449000D01*
X142859000Y-93104000D02*
X142859000Y-92640000D01*
X142859000Y-90960000D02*
X142859000Y-90496000D01*
X142819000Y-93054000D02*
X142819000Y-92640000D01*
X142819000Y-90960000D02*
X142819000Y-90546000D01*
X142779000Y-93000000D02*
X142779000Y-92640000D01*
X142779000Y-90960000D02*
X142779000Y-90600000D01*
X142739000Y-92942000D02*
X142739000Y-92640000D01*
X142739000Y-90960000D02*
X142739000Y-90658000D01*
X142699000Y-92880000D02*
X142699000Y-92640000D01*
X142699000Y-90960000D02*
X142699000Y-90720000D01*
X142659000Y-92813000D02*
X142659000Y-90787000D01*
X142619000Y-92740000D02*
X142619000Y-90860000D01*
X142579000Y-92659000D02*
X142579000Y-90941000D01*
X142539000Y-92568000D02*
X142539000Y-91032000D01*
X142499000Y-92464000D02*
X142499000Y-91136000D01*
X142459000Y-92337000D02*
X142459000Y-91263000D01*
X142419000Y-92170000D02*
X142419000Y-91430000D01*
X146769801Y-92995000D02*
X146369801Y-92995000D01*
X146569801Y-93195000D02*
X146569801Y-92795000D01*
G04 #@! TO.C,J4*
X130590000Y-30350000D02*
X130590000Y-31850000D01*
X128890000Y-30350000D02*
X130590000Y-30350000D01*
X120690000Y-30600000D02*
X120690000Y-39400000D01*
X124490000Y-39400000D02*
X116790000Y-39400000D01*
X116790000Y-39400000D02*
X116790000Y-30600000D01*
X116790000Y-30600000D02*
X116990000Y-30600000D01*
X130390000Y-37550000D02*
X130390000Y-39400000D01*
X130390000Y-39400000D02*
X129540000Y-39400000D01*
X116890000Y-30600000D02*
X130390000Y-30600000D01*
X130390000Y-30600000D02*
X130390000Y-32450000D01*
G04 #@! TO.C,J2*
X188210000Y-113280000D02*
X188210000Y-110620000D01*
X183070000Y-113280000D02*
X188210000Y-113280000D01*
X183070000Y-110620000D02*
X188210000Y-110620000D01*
X183070000Y-113280000D02*
X183070000Y-110620000D01*
X181800000Y-113280000D02*
X180470000Y-113280000D01*
X180470000Y-113280000D02*
X180470000Y-111950000D01*
G04 #@! TO.C,J1*
X200970000Y-113230000D02*
X200970000Y-110570000D01*
X190750000Y-113230000D02*
X200970000Y-113230000D01*
X190750000Y-110570000D02*
X200970000Y-110570000D01*
X190750000Y-113230000D02*
X190750000Y-110570000D01*
X189480000Y-113230000D02*
X188150000Y-113230000D01*
X188150000Y-113230000D02*
X188150000Y-111900000D01*
G04 #@! TO.C,D2*
X146670000Y-47750000D02*
X146670000Y-50690000D01*
X146910000Y-47750000D02*
X146910000Y-50690000D01*
X146790000Y-47750000D02*
X146790000Y-50690000D01*
X153620000Y-49220000D02*
X151330000Y-49220000D01*
X143600000Y-49220000D02*
X145890000Y-49220000D01*
X151330000Y-47750000D02*
X145890000Y-47750000D01*
X151330000Y-50690000D02*
X151330000Y-47750000D01*
X145890000Y-50690000D02*
X151330000Y-50690000D01*
X145890000Y-47750000D02*
X145890000Y-50690000D01*
G04 #@! TO.C,D4*
X172890000Y-47890000D02*
X172890000Y-50830000D01*
X172890000Y-50830000D02*
X178330000Y-50830000D01*
X178330000Y-50830000D02*
X178330000Y-47890000D01*
X178330000Y-47890000D02*
X172890000Y-47890000D01*
X170600000Y-49360000D02*
X172890000Y-49360000D01*
X180620000Y-49360000D02*
X178330000Y-49360000D01*
X173790000Y-47890000D02*
X173790000Y-50830000D01*
X173910000Y-47890000D02*
X173910000Y-50830000D01*
X173670000Y-47890000D02*
X173670000Y-50830000D01*
G04 #@! TO.C,U1*
X211430000Y-97240000D02*
X212040000Y-97240000D01*
X211430000Y-97240000D02*
X211430000Y-104860000D01*
X211430000Y-80620000D02*
X211430000Y-81240000D01*
X209310000Y-80620000D02*
X211430000Y-80620000D01*
X195190000Y-80620000D02*
X197310000Y-80620000D01*
X195190000Y-81240000D02*
X195190000Y-80620000D01*
X195190000Y-104860000D02*
X195190000Y-97240000D01*
X211430000Y-104860000D02*
X195190000Y-104860000D01*
G04 #@! TO.C,D3*
X188341392Y-57447665D02*
G75*
G03X188184484Y-60680000I1078608J-1672335D01*
G01*
X190498608Y-57447665D02*
G75*
G02X190655516Y-60680000I-1078608J-1672335D01*
G01*
X188340163Y-58078870D02*
G75*
G03X188340000Y-60160961I1079837J-1041130D01*
G01*
X190499837Y-58078870D02*
G75*
G02X190500000Y-60160961I-1079837J-1041130D01*
G01*
X188184000Y-60680000D02*
X188340000Y-60680000D01*
X190500000Y-60680000D02*
X190656000Y-60680000D01*
G04 #@! TO.C,D5*
X136080000Y-60290000D02*
X136236000Y-60290000D01*
X133764000Y-60290000D02*
X133920000Y-60290000D01*
X136079837Y-57688870D02*
G75*
G02X136080000Y-59770961I-1079837J-1041130D01*
G01*
X133920163Y-57688870D02*
G75*
G03X133920000Y-59770961I1079837J-1041130D01*
G01*
X136078608Y-57057665D02*
G75*
G02X136235516Y-60290000I-1078608J-1672335D01*
G01*
X133921392Y-57057665D02*
G75*
G03X133764484Y-60290000I1078608J-1672335D01*
G01*
G04 #@! TO.C,D1*
X160591392Y-57097665D02*
G75*
G03X160434484Y-60330000I1078608J-1672335D01*
G01*
X162748608Y-57097665D02*
G75*
G02X162905516Y-60330000I-1078608J-1672335D01*
G01*
X160590163Y-57728870D02*
G75*
G03X160590000Y-59810961I1079837J-1041130D01*
G01*
X162749837Y-57728870D02*
G75*
G02X162750000Y-59810961I-1079837J-1041130D01*
G01*
X160434000Y-60330000D02*
X160590000Y-60330000D01*
X162750000Y-60330000D02*
X162906000Y-60330000D01*
G04 #@! TO.C,U5*
X165990000Y-101310000D02*
X165990000Y-100050000D01*
X165990000Y-94490000D02*
X165990000Y-95750000D01*
X162230000Y-101310000D02*
X165990000Y-101310000D01*
X159980000Y-94490000D02*
X165990000Y-94490000D01*
G04 #@! TO.C,Q1*
X142161522Y-82838478D02*
G75*
G03X146600000Y-81000000I1838478J1838478D01*
G01*
X142161522Y-79161522D02*
G75*
G02X146600000Y-81000000I1838478J-1838478D01*
G01*
X142150000Y-79200000D02*
X142150000Y-82800000D01*
G04 #@! TO.C,Q2*
X167550000Y-79270000D02*
X167550000Y-82870000D01*
X167561522Y-79231522D02*
G75*
G02X172000000Y-81070000I1838478J-1838478D01*
G01*
X167561522Y-82908478D02*
G75*
G03X172000000Y-81070000I1838478J1838478D01*
G01*
G04 #@! TO.C,K1*
X149850000Y-57660000D02*
X153000000Y-57660000D01*
X144000000Y-57660000D02*
X147150000Y-57660000D01*
X147500000Y-52550000D02*
X149500000Y-52550000D01*
X148150000Y-58260000D02*
X148850000Y-58260000D01*
X148150000Y-57060000D02*
X148150000Y-58260000D01*
X148850000Y-57060000D02*
X148150000Y-57060000D01*
X148850000Y-58260000D02*
X148850000Y-57060000D01*
X148150000Y-57860000D02*
X148850000Y-57460000D01*
X140150000Y-75510000D02*
X156850000Y-75510000D01*
X140150000Y-52810000D02*
X140150000Y-75510000D01*
X156850000Y-52810000D02*
X140150000Y-52810000D01*
X156850000Y-75510000D02*
X156850000Y-52810000D01*
G04 #@! TO.C,K2*
X183590000Y-75790000D02*
X183590000Y-53090000D01*
X183590000Y-53090000D02*
X166890000Y-53090000D01*
X166890000Y-53090000D02*
X166890000Y-75790000D01*
X166890000Y-75790000D02*
X183590000Y-75790000D01*
X174890000Y-58140000D02*
X175590000Y-57740000D01*
X175590000Y-58540000D02*
X175590000Y-57340000D01*
X175590000Y-57340000D02*
X174890000Y-57340000D01*
X174890000Y-57340000D02*
X174890000Y-58540000D01*
X174890000Y-58540000D02*
X175590000Y-58540000D01*
X174240000Y-52830000D02*
X176240000Y-52830000D01*
X170740000Y-57940000D02*
X173890000Y-57940000D01*
X176590000Y-57940000D02*
X179740000Y-57940000D01*
G04 #@! TO.C,R10*
X201870000Y-53100000D02*
X199130000Y-53100000D01*
X199130000Y-53100000D02*
X199130000Y-59640000D01*
X199130000Y-59640000D02*
X201870000Y-59640000D01*
X201870000Y-59640000D02*
X201870000Y-53100000D01*
X200500000Y-49790000D02*
X200500000Y-53100000D01*
X200500000Y-62950000D02*
X200500000Y-59640000D01*
G04 #@! TO.C,R9*
X200500000Y-32050000D02*
X200500000Y-35360000D01*
X200500000Y-45210000D02*
X200500000Y-41900000D01*
X199130000Y-35360000D02*
X199130000Y-41900000D01*
X201870000Y-35360000D02*
X199130000Y-35360000D01*
X201870000Y-41900000D02*
X201870000Y-35360000D01*
X199130000Y-41900000D02*
X201870000Y-41900000D01*
G04 #@! TO.C,R8*
X133630000Y-74650000D02*
X136370000Y-74650000D01*
X136370000Y-74650000D02*
X136370000Y-68110000D01*
X136370000Y-68110000D02*
X133630000Y-68110000D01*
X133630000Y-68110000D02*
X133630000Y-74650000D01*
X135000000Y-77960000D02*
X135000000Y-74650000D01*
X135000000Y-64800000D02*
X135000000Y-68110000D01*
G04 #@! TO.C,R5*
X192000000Y-72800000D02*
X192000000Y-76110000D01*
X192000000Y-85960000D02*
X192000000Y-82650000D01*
X190630000Y-76110000D02*
X190630000Y-82650000D01*
X193370000Y-76110000D02*
X190630000Y-76110000D01*
X193370000Y-82650000D02*
X193370000Y-76110000D01*
X190630000Y-82650000D02*
X193370000Y-82650000D01*
G04 #@! TO.C,R3*
X147710000Y-85040000D02*
X147710000Y-87780000D01*
X147710000Y-87780000D02*
X154250000Y-87780000D01*
X154250000Y-87780000D02*
X154250000Y-85040000D01*
X154250000Y-85040000D02*
X147710000Y-85040000D01*
X144400000Y-86410000D02*
X147710000Y-86410000D01*
X157560000Y-86410000D02*
X154250000Y-86410000D01*
G04 #@! TO.C,R2*
X159800000Y-65600000D02*
X159800000Y-68910000D01*
X159800000Y-78760000D02*
X159800000Y-75450000D01*
X158430000Y-68910000D02*
X158430000Y-75450000D01*
X161170000Y-68910000D02*
X158430000Y-68910000D01*
X161170000Y-75450000D02*
X161170000Y-68910000D01*
X158430000Y-75450000D02*
X161170000Y-75450000D01*
G04 #@! TO.C,R4*
X188030000Y-74450000D02*
X190770000Y-74450000D01*
X190770000Y-74450000D02*
X190770000Y-67910000D01*
X190770000Y-67910000D02*
X188030000Y-67910000D01*
X188030000Y-67910000D02*
X188030000Y-74450000D01*
X189400000Y-77760000D02*
X189400000Y-74450000D01*
X189400000Y-64600000D02*
X189400000Y-67910000D01*
G04 #@! TO.C,J3*
X230700000Y-46650000D02*
X243300000Y-46650000D01*
X243300000Y-46650000D02*
X243300000Y-36300000D01*
X243300000Y-36300000D02*
X242350000Y-36300000D01*
X242350000Y-36300000D02*
X242600000Y-35800000D01*
X242600000Y-35800000D02*
X240700000Y-35800000D01*
X240700000Y-35800000D02*
X240650000Y-35800000D01*
X240650000Y-35800000D02*
X240900000Y-36300000D01*
X240900000Y-36300000D02*
X235500000Y-36300000D01*
X235500000Y-36300000D02*
X235800000Y-35800000D01*
X235800000Y-35800000D02*
X230700000Y-35800000D01*
X230700000Y-35800000D02*
X230700000Y-46650000D01*
D12*
G04 #@! TO.C,U2*
X226760000Y-81990000D02*
X243270000Y-81990000D01*
X226760000Y-81990000D02*
X226760000Y-106120000D01*
X226760000Y-106120000D02*
X243270000Y-106120000D01*
X243270000Y-106120000D02*
X243270000Y-81990000D01*
G04 #@! TO.C,J11*
X200122380Y-112809523D02*
X200836666Y-112809523D01*
X200979523Y-112857142D01*
X201074761Y-112952380D01*
X201122380Y-113095238D01*
X201122380Y-113190476D01*
X201122380Y-111809523D02*
X201122380Y-112380952D01*
X201122380Y-112095238D02*
X200122380Y-112095238D01*
X200265238Y-112190476D01*
X200360476Y-112285714D01*
X200408095Y-112380952D01*
X201122380Y-110857142D02*
X201122380Y-111428571D01*
X201122380Y-111142857D02*
X200122380Y-111142857D01*
X200265238Y-111238095D01*
X200360476Y-111333333D01*
X200408095Y-111428571D01*
G04 #@! TO.C,J12*
X196440476Y-28432380D02*
X196440476Y-29146666D01*
X196392857Y-29289523D01*
X196297619Y-29384761D01*
X196154761Y-29432380D01*
X196059523Y-29432380D01*
X197440476Y-29432380D02*
X196869047Y-29432380D01*
X197154761Y-29432380D02*
X197154761Y-28432380D01*
X197059523Y-28575238D01*
X196964285Y-28670476D01*
X196869047Y-28718095D01*
X197821428Y-28527619D02*
X197869047Y-28480000D01*
X197964285Y-28432380D01*
X198202380Y-28432380D01*
X198297619Y-28480000D01*
X198345238Y-28527619D01*
X198392857Y-28622857D01*
X198392857Y-28718095D01*
X198345238Y-28860952D01*
X197773809Y-29432380D01*
X198392857Y-29432380D01*
G04 #@! TO.C,R1*
X218082380Y-88546666D02*
X217606190Y-88880000D01*
X218082380Y-89118095D02*
X217082380Y-89118095D01*
X217082380Y-88737142D01*
X217130000Y-88641904D01*
X217177619Y-88594285D01*
X217272857Y-88546666D01*
X217415714Y-88546666D01*
X217510952Y-88594285D01*
X217558571Y-88641904D01*
X217606190Y-88737142D01*
X217606190Y-89118095D01*
X218082380Y-87594285D02*
X218082380Y-88165714D01*
X218082380Y-87880000D02*
X217082380Y-87880000D01*
X217225238Y-87975238D01*
X217320476Y-88070476D01*
X217368095Y-88165714D01*
G04 #@! TO.C,R6*
X222082380Y-88546666D02*
X221606190Y-88880000D01*
X222082380Y-89118095D02*
X221082380Y-89118095D01*
X221082380Y-88737142D01*
X221130000Y-88641904D01*
X221177619Y-88594285D01*
X221272857Y-88546666D01*
X221415714Y-88546666D01*
X221510952Y-88594285D01*
X221558571Y-88641904D01*
X221606190Y-88737142D01*
X221606190Y-89118095D01*
X221082380Y-87689523D02*
X221082380Y-87880000D01*
X221130000Y-87975238D01*
X221177619Y-88022857D01*
X221320476Y-88118095D01*
X221510952Y-88165714D01*
X221891904Y-88165714D01*
X221987142Y-88118095D01*
X222034761Y-88070476D01*
X222082380Y-87975238D01*
X222082380Y-87784761D01*
X222034761Y-87689523D01*
X221987142Y-87641904D01*
X221891904Y-87594285D01*
X221653809Y-87594285D01*
X221558571Y-87641904D01*
X221510952Y-87689523D01*
X221463333Y-87784761D01*
X221463333Y-87975238D01*
X221510952Y-88070476D01*
X221558571Y-88118095D01*
X221653809Y-88165714D01*
G04 #@! TO.C,U3*
X201802380Y-69336904D02*
X202611904Y-69336904D01*
X202707142Y-69289285D01*
X202754761Y-69241666D01*
X202802380Y-69146428D01*
X202802380Y-68955952D01*
X202754761Y-68860714D01*
X202707142Y-68813095D01*
X202611904Y-68765476D01*
X201802380Y-68765476D01*
X201802380Y-68384523D02*
X201802380Y-67765476D01*
X202183333Y-68098809D01*
X202183333Y-67955952D01*
X202230952Y-67860714D01*
X202278571Y-67813095D01*
X202373809Y-67765476D01*
X202611904Y-67765476D01*
X202707142Y-67813095D01*
X202754761Y-67860714D01*
X202802380Y-67955952D01*
X202802380Y-68241666D01*
X202754761Y-68336904D01*
X202707142Y-68384523D01*
X215742857Y-71967857D02*
X215861904Y-72086904D01*
X215980952Y-72444047D01*
X215980952Y-72682142D01*
X215861904Y-73039285D01*
X215623809Y-73277380D01*
X215385714Y-73396428D01*
X214909523Y-73515476D01*
X214552380Y-73515476D01*
X214076190Y-73396428D01*
X213838095Y-73277380D01*
X213600000Y-73039285D01*
X213480952Y-72682142D01*
X213480952Y-72444047D01*
X213600000Y-72086904D01*
X213719047Y-71967857D01*
X213480952Y-70420238D02*
X213480952Y-69944047D01*
X213600000Y-69705952D01*
X213838095Y-69467857D01*
X214314285Y-69348809D01*
X215147619Y-69348809D01*
X215623809Y-69467857D01*
X215861904Y-69705952D01*
X215980952Y-69944047D01*
X215980952Y-70420238D01*
X215861904Y-70658333D01*
X215623809Y-70896428D01*
X215147619Y-71015476D01*
X214314285Y-71015476D01*
X213838095Y-70896428D01*
X213600000Y-70658333D01*
X213480952Y-70420238D01*
X215980952Y-68277380D02*
X213480952Y-68277380D01*
X215980952Y-66848809D01*
X213480952Y-66848809D01*
X213480952Y-66015476D02*
X215980952Y-65182142D01*
X213480952Y-64348809D01*
X214671428Y-63515476D02*
X214671428Y-62682142D01*
X215980952Y-62325000D02*
X215980952Y-63515476D01*
X213480952Y-63515476D01*
X213480952Y-62325000D01*
X215980952Y-59825000D02*
X214790476Y-60658333D01*
X215980952Y-61253571D02*
X213480952Y-61253571D01*
X213480952Y-60301190D01*
X213600000Y-60063095D01*
X213719047Y-59944047D01*
X213957142Y-59825000D01*
X214314285Y-59825000D01*
X214552380Y-59944047D01*
X214671428Y-60063095D01*
X214790476Y-60301190D01*
X214790476Y-61253571D01*
X215861904Y-58872619D02*
X215980952Y-58515476D01*
X215980952Y-57920238D01*
X215861904Y-57682142D01*
X215742857Y-57563095D01*
X215504761Y-57444047D01*
X215266666Y-57444047D01*
X215028571Y-57563095D01*
X214909523Y-57682142D01*
X214790476Y-57920238D01*
X214671428Y-58396428D01*
X214552380Y-58634523D01*
X214433333Y-58753571D01*
X214195238Y-58872619D01*
X213957142Y-58872619D01*
X213719047Y-58753571D01*
X213600000Y-58634523D01*
X213480952Y-58396428D01*
X213480952Y-57801190D01*
X213600000Y-57444047D01*
X213480952Y-55896428D02*
X213480952Y-55420238D01*
X213600000Y-55182142D01*
X213838095Y-54944047D01*
X214314285Y-54825000D01*
X215147619Y-54825000D01*
X215623809Y-54944047D01*
X215861904Y-55182142D01*
X215980952Y-55420238D01*
X215980952Y-55896428D01*
X215861904Y-56134523D01*
X215623809Y-56372619D01*
X215147619Y-56491666D01*
X214314285Y-56491666D01*
X213838095Y-56372619D01*
X213600000Y-56134523D01*
X213480952Y-55896428D01*
X215980952Y-52325000D02*
X214790476Y-53158333D01*
X215980952Y-53753571D02*
X213480952Y-53753571D01*
X213480952Y-52801190D01*
X213600000Y-52563095D01*
X213719047Y-52444047D01*
X213957142Y-52325000D01*
X214314285Y-52325000D01*
X214552380Y-52444047D01*
X214671428Y-52563095D01*
X214790476Y-52801190D01*
X214790476Y-53753571D01*
X214671428Y-48515476D02*
X214790476Y-48158333D01*
X214909523Y-48039285D01*
X215147619Y-47920238D01*
X215504761Y-47920238D01*
X215742857Y-48039285D01*
X215861904Y-48158333D01*
X215980952Y-48396428D01*
X215980952Y-49348809D01*
X213480952Y-49348809D01*
X213480952Y-48515476D01*
X213600000Y-48277380D01*
X213719047Y-48158333D01*
X213957142Y-48039285D01*
X214195238Y-48039285D01*
X214433333Y-48158333D01*
X214552380Y-48277380D01*
X214671428Y-48515476D01*
X214671428Y-49348809D01*
X213480952Y-46372619D02*
X213480952Y-45896428D01*
X213600000Y-45658333D01*
X213838095Y-45420238D01*
X214314285Y-45301190D01*
X215147619Y-45301190D01*
X215623809Y-45420238D01*
X215861904Y-45658333D01*
X215980952Y-45896428D01*
X215980952Y-46372619D01*
X215861904Y-46610714D01*
X215623809Y-46848809D01*
X215147619Y-46967857D01*
X214314285Y-46967857D01*
X213838095Y-46848809D01*
X213600000Y-46610714D01*
X213480952Y-46372619D01*
X213480952Y-43753571D02*
X213480952Y-43277380D01*
X213600000Y-43039285D01*
X213838095Y-42801190D01*
X214314285Y-42682142D01*
X215147619Y-42682142D01*
X215623809Y-42801190D01*
X215861904Y-43039285D01*
X215980952Y-43277380D01*
X215980952Y-43753571D01*
X215861904Y-43991666D01*
X215623809Y-44229761D01*
X215147619Y-44348809D01*
X214314285Y-44348809D01*
X213838095Y-44229761D01*
X213600000Y-43991666D01*
X213480952Y-43753571D01*
X215861904Y-41729761D02*
X215980952Y-41372619D01*
X215980952Y-40777380D01*
X215861904Y-40539285D01*
X215742857Y-40420238D01*
X215504761Y-40301190D01*
X215266666Y-40301190D01*
X215028571Y-40420238D01*
X214909523Y-40539285D01*
X214790476Y-40777380D01*
X214671428Y-41253571D01*
X214552380Y-41491666D01*
X214433333Y-41610714D01*
X214195238Y-41729761D01*
X213957142Y-41729761D01*
X213719047Y-41610714D01*
X213600000Y-41491666D01*
X213480952Y-41253571D01*
X213480952Y-40658333D01*
X213600000Y-40301190D01*
X213480952Y-39586904D02*
X213480952Y-38158333D01*
X215980952Y-38872619D02*
X213480952Y-38872619D01*
X214671428Y-37325000D02*
X214671428Y-36491666D01*
X215980952Y-36134523D02*
X215980952Y-37325000D01*
X213480952Y-37325000D01*
X213480952Y-36134523D01*
X215980952Y-33634523D02*
X214790476Y-34467857D01*
X215980952Y-35063095D02*
X213480952Y-35063095D01*
X213480952Y-34110714D01*
X213600000Y-33872619D01*
X213719047Y-33753571D01*
X213957142Y-33634523D01*
X214314285Y-33634523D01*
X214552380Y-33753571D01*
X214671428Y-33872619D01*
X214790476Y-34110714D01*
X214790476Y-35063095D01*
G04 #@! TO.C,SW3*
X221916666Y-106354761D02*
X222059523Y-106402380D01*
X222297619Y-106402380D01*
X222392857Y-106354761D01*
X222440476Y-106307142D01*
X222488095Y-106211904D01*
X222488095Y-106116666D01*
X222440476Y-106021428D01*
X222392857Y-105973809D01*
X222297619Y-105926190D01*
X222107142Y-105878571D01*
X222011904Y-105830952D01*
X221964285Y-105783333D01*
X221916666Y-105688095D01*
X221916666Y-105592857D01*
X221964285Y-105497619D01*
X222011904Y-105450000D01*
X222107142Y-105402380D01*
X222345238Y-105402380D01*
X222488095Y-105450000D01*
X222821428Y-105402380D02*
X223059523Y-106402380D01*
X223250000Y-105688095D01*
X223440476Y-106402380D01*
X223678571Y-105402380D01*
X223964285Y-105402380D02*
X224583333Y-105402380D01*
X224250000Y-105783333D01*
X224392857Y-105783333D01*
X224488095Y-105830952D01*
X224535714Y-105878571D01*
X224583333Y-105973809D01*
X224583333Y-106211904D01*
X224535714Y-106307142D01*
X224488095Y-106354761D01*
X224392857Y-106402380D01*
X224107142Y-106402380D01*
X224011904Y-106354761D01*
X223964285Y-106307142D01*
G04 #@! TO.C,J10*
X185660476Y-46372380D02*
X185660476Y-47086666D01*
X185612857Y-47229523D01*
X185517619Y-47324761D01*
X185374761Y-47372380D01*
X185279523Y-47372380D01*
X186660476Y-47372380D02*
X186089047Y-47372380D01*
X186374761Y-47372380D02*
X186374761Y-46372380D01*
X186279523Y-46515238D01*
X186184285Y-46610476D01*
X186089047Y-46658095D01*
X187279523Y-46372380D02*
X187374761Y-46372380D01*
X187470000Y-46420000D01*
X187517619Y-46467619D01*
X187565238Y-46562857D01*
X187612857Y-46753333D01*
X187612857Y-46991428D01*
X187565238Y-47181904D01*
X187517619Y-47277142D01*
X187470000Y-47324761D01*
X187374761Y-47372380D01*
X187279523Y-47372380D01*
X187184285Y-47324761D01*
X187136666Y-47277142D01*
X187089047Y-47181904D01*
X187041428Y-46991428D01*
X187041428Y-46753333D01*
X187089047Y-46562857D01*
X187136666Y-46467619D01*
X187184285Y-46420000D01*
X187279523Y-46372380D01*
G04 #@! TO.C,J9*
X161336666Y-46562380D02*
X161336666Y-47276666D01*
X161289047Y-47419523D01*
X161193809Y-47514761D01*
X161050952Y-47562380D01*
X160955714Y-47562380D01*
X161860476Y-47562380D02*
X162050952Y-47562380D01*
X162146190Y-47514761D01*
X162193809Y-47467142D01*
X162289047Y-47324285D01*
X162336666Y-47133809D01*
X162336666Y-46752857D01*
X162289047Y-46657619D01*
X162241428Y-46610000D01*
X162146190Y-46562380D01*
X161955714Y-46562380D01*
X161860476Y-46610000D01*
X161812857Y-46657619D01*
X161765238Y-46752857D01*
X161765238Y-46990952D01*
X161812857Y-47086190D01*
X161860476Y-47133809D01*
X161955714Y-47181428D01*
X162146190Y-47181428D01*
X162241428Y-47133809D01*
X162289047Y-47086190D01*
X162336666Y-46990952D01*
G04 #@! TO.C,J7*
X123966666Y-78122380D02*
X123966666Y-78836666D01*
X123919047Y-78979523D01*
X123823809Y-79074761D01*
X123680952Y-79122380D01*
X123585714Y-79122380D01*
X124347619Y-78122380D02*
X125014285Y-78122380D01*
X124585714Y-79122380D01*
G04 #@! TO.C,J8*
X123936666Y-84472380D02*
X123936666Y-85186666D01*
X123889047Y-85329523D01*
X123793809Y-85424761D01*
X123650952Y-85472380D01*
X123555714Y-85472380D01*
X124555714Y-84900952D02*
X124460476Y-84853333D01*
X124412857Y-84805714D01*
X124365238Y-84710476D01*
X124365238Y-84662857D01*
X124412857Y-84567619D01*
X124460476Y-84520000D01*
X124555714Y-84472380D01*
X124746190Y-84472380D01*
X124841428Y-84520000D01*
X124889047Y-84567619D01*
X124936666Y-84662857D01*
X124936666Y-84710476D01*
X124889047Y-84805714D01*
X124841428Y-84853333D01*
X124746190Y-84900952D01*
X124555714Y-84900952D01*
X124460476Y-84948571D01*
X124412857Y-84996190D01*
X124365238Y-85091428D01*
X124365238Y-85281904D01*
X124412857Y-85377142D01*
X124460476Y-85424761D01*
X124555714Y-85472380D01*
X124746190Y-85472380D01*
X124841428Y-85424761D01*
X124889047Y-85377142D01*
X124936666Y-85281904D01*
X124936666Y-85091428D01*
X124889047Y-84996190D01*
X124841428Y-84948571D01*
X124746190Y-84900952D01*
G04 #@! TO.C,J6*
X193866666Y-28482380D02*
X193866666Y-29196666D01*
X193819047Y-29339523D01*
X193723809Y-29434761D01*
X193580952Y-29482380D01*
X193485714Y-29482380D01*
X194771428Y-28482380D02*
X194580952Y-28482380D01*
X194485714Y-28530000D01*
X194438095Y-28577619D01*
X194342857Y-28720476D01*
X194295238Y-28910952D01*
X194295238Y-29291904D01*
X194342857Y-29387142D01*
X194390476Y-29434761D01*
X194485714Y-29482380D01*
X194676190Y-29482380D01*
X194771428Y-29434761D01*
X194819047Y-29387142D01*
X194866666Y-29291904D01*
X194866666Y-29053809D01*
X194819047Y-28958571D01*
X194771428Y-28910952D01*
X194676190Y-28863333D01*
X194485714Y-28863333D01*
X194390476Y-28910952D01*
X194342857Y-28958571D01*
X194295238Y-29053809D01*
G04 #@! TO.C,R11*
X192282380Y-48022857D02*
X191806190Y-48356190D01*
X192282380Y-48594285D02*
X191282380Y-48594285D01*
X191282380Y-48213333D01*
X191330000Y-48118095D01*
X191377619Y-48070476D01*
X191472857Y-48022857D01*
X191615714Y-48022857D01*
X191710952Y-48070476D01*
X191758571Y-48118095D01*
X191806190Y-48213333D01*
X191806190Y-48594285D01*
X192282380Y-47070476D02*
X192282380Y-47641904D01*
X192282380Y-47356190D02*
X191282380Y-47356190D01*
X191425238Y-47451428D01*
X191520476Y-47546666D01*
X191568095Y-47641904D01*
X192282380Y-46118095D02*
X192282380Y-46689523D01*
X192282380Y-46403809D02*
X191282380Y-46403809D01*
X191425238Y-46499047D01*
X191520476Y-46594285D01*
X191568095Y-46689523D01*
G04 #@! TO.C,J5*
X228032380Y-65193333D02*
X228746666Y-65193333D01*
X228889523Y-65240952D01*
X228984761Y-65336190D01*
X229032380Y-65479047D01*
X229032380Y-65574285D01*
X228032380Y-64240952D02*
X228032380Y-64717142D01*
X228508571Y-64764761D01*
X228460952Y-64717142D01*
X228413333Y-64621904D01*
X228413333Y-64383809D01*
X228460952Y-64288571D01*
X228508571Y-64240952D01*
X228603809Y-64193333D01*
X228841904Y-64193333D01*
X228937142Y-64240952D01*
X228984761Y-64288571D01*
X229032380Y-64383809D01*
X229032380Y-64621904D01*
X228984761Y-64717142D01*
X228937142Y-64764761D01*
G04 #@! TO.C,SW1*
D14*
X122317497Y-59432000D02*
X122390068Y-59214285D01*
X122390068Y-58851428D01*
X122317497Y-58706285D01*
X122244925Y-58633714D01*
X122099782Y-58561142D01*
X121954640Y-58561142D01*
X121809497Y-58633714D01*
X121736925Y-58706285D01*
X121664354Y-58851428D01*
X121591782Y-59141714D01*
X121519211Y-59286857D01*
X121446640Y-59359428D01*
X121301497Y-59432000D01*
X121156354Y-59432000D01*
X121011211Y-59359428D01*
X120938640Y-59286857D01*
X120866068Y-59141714D01*
X120866068Y-58778857D01*
X120938640Y-58561142D01*
X120866068Y-58053142D02*
X122390068Y-57690285D01*
X121301497Y-57400000D01*
X122390068Y-57109714D01*
X120866068Y-56746857D01*
X122390068Y-55368000D02*
X122390068Y-56238857D01*
X122390068Y-55803428D02*
X120866068Y-55803428D01*
X121083782Y-55948571D01*
X121228925Y-56093714D01*
X121301497Y-56238857D01*
X129240428Y-61496285D02*
X129240428Y-61206000D01*
X129313000Y-61060857D01*
X129458142Y-60915714D01*
X129748428Y-60843142D01*
X130256428Y-60843142D01*
X130546714Y-60915714D01*
X130691857Y-61060857D01*
X130764428Y-61206000D01*
X130764428Y-61496285D01*
X130691857Y-61641428D01*
X130546714Y-61786571D01*
X130256428Y-61859142D01*
X129748428Y-61859142D01*
X129458142Y-61786571D01*
X129313000Y-61641428D01*
X129240428Y-61496285D01*
X130764428Y-60190000D02*
X129240428Y-60190000D01*
X130764428Y-59319142D01*
X129240428Y-59319142D01*
X129167857Y-57504857D02*
X131127285Y-58811142D01*
X129240428Y-56706571D02*
X129240428Y-56416285D01*
X129313000Y-56271142D01*
X129458142Y-56126000D01*
X129748428Y-56053428D01*
X130256428Y-56053428D01*
X130546714Y-56126000D01*
X130691857Y-56271142D01*
X130764428Y-56416285D01*
X130764428Y-56706571D01*
X130691857Y-56851714D01*
X130546714Y-56996857D01*
X130256428Y-57069428D01*
X129748428Y-57069428D01*
X129458142Y-56996857D01*
X129313000Y-56851714D01*
X129240428Y-56706571D01*
X129966142Y-54892285D02*
X129966142Y-55400285D01*
X130764428Y-55400285D02*
X129240428Y-55400285D01*
X129240428Y-54674571D01*
X129966142Y-53586000D02*
X129966142Y-54094000D01*
X130764428Y-54094000D02*
X129240428Y-54094000D01*
X129240428Y-53368285D01*
G04 #@! TO.C,SW2*
X122317497Y-70432000D02*
X122390068Y-70214285D01*
X122390068Y-69851428D01*
X122317497Y-69706285D01*
X122244925Y-69633714D01*
X122099782Y-69561142D01*
X121954640Y-69561142D01*
X121809497Y-69633714D01*
X121736925Y-69706285D01*
X121664354Y-69851428D01*
X121591782Y-70141714D01*
X121519211Y-70286857D01*
X121446640Y-70359428D01*
X121301497Y-70432000D01*
X121156354Y-70432000D01*
X121011211Y-70359428D01*
X120938640Y-70286857D01*
X120866068Y-70141714D01*
X120866068Y-69778857D01*
X120938640Y-69561142D01*
X120866068Y-69053142D02*
X122390068Y-68690285D01*
X121301497Y-68400000D01*
X122390068Y-68109714D01*
X120866068Y-67746857D01*
X121011211Y-67238857D02*
X120938640Y-67166285D01*
X120866068Y-67021142D01*
X120866068Y-66658285D01*
X120938640Y-66513142D01*
X121011211Y-66440571D01*
X121156354Y-66368000D01*
X121301497Y-66368000D01*
X121519211Y-66440571D01*
X122390068Y-67311428D01*
X122390068Y-66368000D01*
X129165428Y-72171285D02*
X129165428Y-71881000D01*
X129238000Y-71735857D01*
X129383142Y-71590714D01*
X129673428Y-71518142D01*
X130181428Y-71518142D01*
X130471714Y-71590714D01*
X130616857Y-71735857D01*
X130689428Y-71881000D01*
X130689428Y-72171285D01*
X130616857Y-72316428D01*
X130471714Y-72461571D01*
X130181428Y-72534142D01*
X129673428Y-72534142D01*
X129383142Y-72461571D01*
X129238000Y-72316428D01*
X129165428Y-72171285D01*
X130689428Y-70865000D02*
X129165428Y-70865000D01*
X130689428Y-69994142D01*
X129165428Y-69994142D01*
X129092857Y-68179857D02*
X131052285Y-69486142D01*
X129165428Y-67381571D02*
X129165428Y-67091285D01*
X129238000Y-66946142D01*
X129383142Y-66801000D01*
X129673428Y-66728428D01*
X130181428Y-66728428D01*
X130471714Y-66801000D01*
X130616857Y-66946142D01*
X130689428Y-67091285D01*
X130689428Y-67381571D01*
X130616857Y-67526714D01*
X130471714Y-67671857D01*
X130181428Y-67744428D01*
X129673428Y-67744428D01*
X129383142Y-67671857D01*
X129238000Y-67526714D01*
X129165428Y-67381571D01*
X129891142Y-65567285D02*
X129891142Y-66075285D01*
X130689428Y-66075285D02*
X129165428Y-66075285D01*
X129165428Y-65349571D01*
X129891142Y-64261000D02*
X129891142Y-64769000D01*
X130689428Y-64769000D02*
X129165428Y-64769000D01*
X129165428Y-64043285D01*
G04 #@! TO.C,U4*
D12*
X149478095Y-96152380D02*
X149478095Y-96961904D01*
X149525714Y-97057142D01*
X149573333Y-97104761D01*
X149668571Y-97152380D01*
X149859047Y-97152380D01*
X149954285Y-97104761D01*
X150001904Y-97057142D01*
X150049523Y-96961904D01*
X150049523Y-96152380D01*
X150954285Y-96485714D02*
X150954285Y-97152380D01*
X150716190Y-96104761D02*
X150478095Y-96819047D01*
X151097142Y-96819047D01*
G04 #@! TO.C,C1*
X137267142Y-35506666D02*
X137314761Y-35554285D01*
X137362380Y-35697142D01*
X137362380Y-35792380D01*
X137314761Y-35935238D01*
X137219523Y-36030476D01*
X137124285Y-36078095D01*
X136933809Y-36125714D01*
X136790952Y-36125714D01*
X136600476Y-36078095D01*
X136505238Y-36030476D01*
X136410000Y-35935238D01*
X136362380Y-35792380D01*
X136362380Y-35697142D01*
X136410000Y-35554285D01*
X136457619Y-35506666D01*
X137362380Y-34554285D02*
X137362380Y-35125714D01*
X137362380Y-34840000D02*
X136362380Y-34840000D01*
X136505238Y-34935238D01*
X136600476Y-35030476D01*
X136648095Y-35125714D01*
G04 #@! TO.C,C2*
X162777142Y-35646666D02*
X162824761Y-35694285D01*
X162872380Y-35837142D01*
X162872380Y-35932380D01*
X162824761Y-36075238D01*
X162729523Y-36170476D01*
X162634285Y-36218095D01*
X162443809Y-36265714D01*
X162300952Y-36265714D01*
X162110476Y-36218095D01*
X162015238Y-36170476D01*
X161920000Y-36075238D01*
X161872380Y-35932380D01*
X161872380Y-35837142D01*
X161920000Y-35694285D01*
X161967619Y-35646666D01*
X161967619Y-35265714D02*
X161920000Y-35218095D01*
X161872380Y-35122857D01*
X161872380Y-34884761D01*
X161920000Y-34789523D01*
X161967619Y-34741904D01*
X162062857Y-34694285D01*
X162158095Y-34694285D01*
X162300952Y-34741904D01*
X162872380Y-35313333D01*
X162872380Y-34694285D01*
G04 #@! TO.C,C8*
X173633333Y-95607142D02*
X173585714Y-95654761D01*
X173442857Y-95702380D01*
X173347619Y-95702380D01*
X173204761Y-95654761D01*
X173109523Y-95559523D01*
X173061904Y-95464285D01*
X173014285Y-95273809D01*
X173014285Y-95130952D01*
X173061904Y-94940476D01*
X173109523Y-94845238D01*
X173204761Y-94750000D01*
X173347619Y-94702380D01*
X173442857Y-94702380D01*
X173585714Y-94750000D01*
X173633333Y-94797619D01*
X174204761Y-95130952D02*
X174109523Y-95083333D01*
X174061904Y-95035714D01*
X174014285Y-94940476D01*
X174014285Y-94892857D01*
X174061904Y-94797619D01*
X174109523Y-94750000D01*
X174204761Y-94702380D01*
X174395238Y-94702380D01*
X174490476Y-94750000D01*
X174538095Y-94797619D01*
X174585714Y-94892857D01*
X174585714Y-94940476D01*
X174538095Y-95035714D01*
X174490476Y-95083333D01*
X174395238Y-95130952D01*
X174204761Y-95130952D01*
X174109523Y-95178571D01*
X174061904Y-95226190D01*
X174014285Y-95321428D01*
X174014285Y-95511904D01*
X174061904Y-95607142D01*
X174109523Y-95654761D01*
X174204761Y-95702380D01*
X174395238Y-95702380D01*
X174490476Y-95654761D01*
X174538095Y-95607142D01*
X174585714Y-95511904D01*
X174585714Y-95321428D01*
X174538095Y-95226190D01*
X174490476Y-95178571D01*
X174395238Y-95130952D01*
G04 #@! TO.C,C7*
X154658333Y-89232142D02*
X154610714Y-89279761D01*
X154467857Y-89327380D01*
X154372619Y-89327380D01*
X154229761Y-89279761D01*
X154134523Y-89184523D01*
X154086904Y-89089285D01*
X154039285Y-88898809D01*
X154039285Y-88755952D01*
X154086904Y-88565476D01*
X154134523Y-88470238D01*
X154229761Y-88375000D01*
X154372619Y-88327380D01*
X154467857Y-88327380D01*
X154610714Y-88375000D01*
X154658333Y-88422619D01*
X154991666Y-88327380D02*
X155658333Y-88327380D01*
X155229761Y-89327380D01*
G04 #@! TO.C,C6*
X138183333Y-88967142D02*
X138135714Y-89014761D01*
X137992857Y-89062380D01*
X137897619Y-89062380D01*
X137754761Y-89014761D01*
X137659523Y-88919523D01*
X137611904Y-88824285D01*
X137564285Y-88633809D01*
X137564285Y-88490952D01*
X137611904Y-88300476D01*
X137659523Y-88205238D01*
X137754761Y-88110000D01*
X137897619Y-88062380D01*
X137992857Y-88062380D01*
X138135714Y-88110000D01*
X138183333Y-88157619D01*
X139040476Y-88062380D02*
X138850000Y-88062380D01*
X138754761Y-88110000D01*
X138707142Y-88157619D01*
X138611904Y-88300476D01*
X138564285Y-88490952D01*
X138564285Y-88871904D01*
X138611904Y-88967142D01*
X138659523Y-89014761D01*
X138754761Y-89062380D01*
X138945238Y-89062380D01*
X139040476Y-89014761D01*
X139088095Y-88967142D01*
X139135714Y-88871904D01*
X139135714Y-88633809D01*
X139088095Y-88538571D01*
X139040476Y-88490952D01*
X138945238Y-88443333D01*
X138754761Y-88443333D01*
X138659523Y-88490952D01*
X138611904Y-88538571D01*
X138564285Y-88633809D01*
G04 #@! TO.C,C9*
X144283333Y-88982142D02*
X144235714Y-89029761D01*
X144092857Y-89077380D01*
X143997619Y-89077380D01*
X143854761Y-89029761D01*
X143759523Y-88934523D01*
X143711904Y-88839285D01*
X143664285Y-88648809D01*
X143664285Y-88505952D01*
X143711904Y-88315476D01*
X143759523Y-88220238D01*
X143854761Y-88125000D01*
X143997619Y-88077380D01*
X144092857Y-88077380D01*
X144235714Y-88125000D01*
X144283333Y-88172619D01*
X144759523Y-89077380D02*
X144950000Y-89077380D01*
X145045238Y-89029761D01*
X145092857Y-88982142D01*
X145188095Y-88839285D01*
X145235714Y-88648809D01*
X145235714Y-88267857D01*
X145188095Y-88172619D01*
X145140476Y-88125000D01*
X145045238Y-88077380D01*
X144854761Y-88077380D01*
X144759523Y-88125000D01*
X144711904Y-88172619D01*
X144664285Y-88267857D01*
X144664285Y-88505952D01*
X144711904Y-88601190D01*
X144759523Y-88648809D01*
X144854761Y-88696428D01*
X145045238Y-88696428D01*
X145140476Y-88648809D01*
X145188095Y-88601190D01*
X145235714Y-88505952D01*
G04 #@! TO.C,J4*
X124666666Y-28862380D02*
X124666666Y-29576666D01*
X124619047Y-29719523D01*
X124523809Y-29814761D01*
X124380952Y-29862380D01*
X124285714Y-29862380D01*
X125571428Y-29195714D02*
X125571428Y-29862380D01*
X125333333Y-28814761D02*
X125095238Y-29529047D01*
X125714285Y-29529047D01*
G04 #@! TO.C,J2*
X178922380Y-112283333D02*
X179636666Y-112283333D01*
X179779523Y-112330952D01*
X179874761Y-112426190D01*
X179922380Y-112569047D01*
X179922380Y-112664285D01*
X179017619Y-111854761D02*
X178970000Y-111807142D01*
X178922380Y-111711904D01*
X178922380Y-111473809D01*
X178970000Y-111378571D01*
X179017619Y-111330952D01*
X179112857Y-111283333D01*
X179208095Y-111283333D01*
X179350952Y-111330952D01*
X179922380Y-111902380D01*
X179922380Y-111283333D01*
G04 #@! TO.C,J1*
X186602380Y-112233333D02*
X187316666Y-112233333D01*
X187459523Y-112280952D01*
X187554761Y-112376190D01*
X187602380Y-112519047D01*
X187602380Y-112614285D01*
X187602380Y-111233333D02*
X187602380Y-111804761D01*
X187602380Y-111519047D02*
X186602380Y-111519047D01*
X186745238Y-111614285D01*
X186840476Y-111709523D01*
X186888095Y-111804761D01*
G04 #@! TO.C,D2*
X147871904Y-47202380D02*
X147871904Y-46202380D01*
X148110000Y-46202380D01*
X148252857Y-46250000D01*
X148348095Y-46345238D01*
X148395714Y-46440476D01*
X148443333Y-46630952D01*
X148443333Y-46773809D01*
X148395714Y-46964285D01*
X148348095Y-47059523D01*
X148252857Y-47154761D01*
X148110000Y-47202380D01*
X147871904Y-47202380D01*
X148824285Y-46297619D02*
X148871904Y-46250000D01*
X148967142Y-46202380D01*
X149205238Y-46202380D01*
X149300476Y-46250000D01*
X149348095Y-46297619D01*
X149395714Y-46392857D01*
X149395714Y-46488095D01*
X149348095Y-46630952D01*
X148776666Y-47202380D01*
X149395714Y-47202380D01*
X141998095Y-47572380D02*
X141998095Y-46572380D01*
X142569523Y-47572380D02*
X142140952Y-47000952D01*
X142569523Y-46572380D02*
X141998095Y-47143809D01*
G04 #@! TO.C,D4*
X174871904Y-47342380D02*
X174871904Y-46342380D01*
X175110000Y-46342380D01*
X175252857Y-46390000D01*
X175348095Y-46485238D01*
X175395714Y-46580476D01*
X175443333Y-46770952D01*
X175443333Y-46913809D01*
X175395714Y-47104285D01*
X175348095Y-47199523D01*
X175252857Y-47294761D01*
X175110000Y-47342380D01*
X174871904Y-47342380D01*
X176300476Y-46675714D02*
X176300476Y-47342380D01*
X176062380Y-46294761D02*
X175824285Y-47009047D01*
X176443333Y-47009047D01*
X168998095Y-47712380D02*
X168998095Y-46712380D01*
X169569523Y-47712380D02*
X169140952Y-47140952D01*
X169569523Y-46712380D02*
X168998095Y-47283809D01*
G04 #@! TO.C,U1*
X213108095Y-97452380D02*
X213108095Y-98261904D01*
X213155714Y-98357142D01*
X213203333Y-98404761D01*
X213298571Y-98452380D01*
X213489047Y-98452380D01*
X213584285Y-98404761D01*
X213631904Y-98357142D01*
X213679523Y-98261904D01*
X213679523Y-97452380D01*
X214679523Y-98452380D02*
X214108095Y-98452380D01*
X214393809Y-98452380D02*
X214393809Y-97452380D01*
X214298571Y-97595238D01*
X214203333Y-97690476D01*
X214108095Y-97738095D01*
G04 #@! TO.C,D3*
X186912380Y-59858095D02*
X185912380Y-59858095D01*
X185912380Y-59620000D01*
X185960000Y-59477142D01*
X186055238Y-59381904D01*
X186150476Y-59334285D01*
X186340952Y-59286666D01*
X186483809Y-59286666D01*
X186674285Y-59334285D01*
X186769523Y-59381904D01*
X186864761Y-59477142D01*
X186912380Y-59620000D01*
X186912380Y-59858095D01*
X185912380Y-58953333D02*
X185912380Y-58334285D01*
X186293333Y-58667619D01*
X186293333Y-58524761D01*
X186340952Y-58429523D01*
X186388571Y-58381904D01*
X186483809Y-58334285D01*
X186721904Y-58334285D01*
X186817142Y-58381904D01*
X186864761Y-58429523D01*
X186912380Y-58524761D01*
X186912380Y-58810476D01*
X186864761Y-58905714D01*
X186817142Y-58953333D01*
G04 #@! TO.C,D5*
X132492380Y-59468095D02*
X131492380Y-59468095D01*
X131492380Y-59230000D01*
X131540000Y-59087142D01*
X131635238Y-58991904D01*
X131730476Y-58944285D01*
X131920952Y-58896666D01*
X132063809Y-58896666D01*
X132254285Y-58944285D01*
X132349523Y-58991904D01*
X132444761Y-59087142D01*
X132492380Y-59230000D01*
X132492380Y-59468095D01*
X131492380Y-57991904D02*
X131492380Y-58468095D01*
X131968571Y-58515714D01*
X131920952Y-58468095D01*
X131873333Y-58372857D01*
X131873333Y-58134761D01*
X131920952Y-58039523D01*
X131968571Y-57991904D01*
X132063809Y-57944285D01*
X132301904Y-57944285D01*
X132397142Y-57991904D01*
X132444761Y-58039523D01*
X132492380Y-58134761D01*
X132492380Y-58372857D01*
X132444761Y-58468095D01*
X132397142Y-58515714D01*
G04 #@! TO.C,D1*
X159162380Y-59508095D02*
X158162380Y-59508095D01*
X158162380Y-59270000D01*
X158210000Y-59127142D01*
X158305238Y-59031904D01*
X158400476Y-58984285D01*
X158590952Y-58936666D01*
X158733809Y-58936666D01*
X158924285Y-58984285D01*
X159019523Y-59031904D01*
X159114761Y-59127142D01*
X159162380Y-59270000D01*
X159162380Y-59508095D01*
X159162380Y-57984285D02*
X159162380Y-58555714D01*
X159162380Y-58270000D02*
X158162380Y-58270000D01*
X158305238Y-58365238D01*
X158400476Y-58460476D01*
X158448095Y-58555714D01*
G04 #@! TO.C,U5*
X163318095Y-92852380D02*
X163318095Y-93661904D01*
X163365714Y-93757142D01*
X163413333Y-93804761D01*
X163508571Y-93852380D01*
X163699047Y-93852380D01*
X163794285Y-93804761D01*
X163841904Y-93757142D01*
X163889523Y-93661904D01*
X163889523Y-92852380D01*
X164841904Y-92852380D02*
X164365714Y-92852380D01*
X164318095Y-93328571D01*
X164365714Y-93280952D01*
X164460952Y-93233333D01*
X164699047Y-93233333D01*
X164794285Y-93280952D01*
X164841904Y-93328571D01*
X164889523Y-93423809D01*
X164889523Y-93661904D01*
X164841904Y-93757142D01*
X164794285Y-93804761D01*
X164699047Y-93852380D01*
X164460952Y-93852380D01*
X164365714Y-93804761D01*
X164318095Y-93757142D01*
G04 #@! TO.C,Q1*
X148107619Y-81095238D02*
X148060000Y-81190476D01*
X147964761Y-81285714D01*
X147821904Y-81428571D01*
X147774285Y-81523809D01*
X147774285Y-81619047D01*
X148012380Y-81571428D02*
X147964761Y-81666666D01*
X147869523Y-81761904D01*
X147679047Y-81809523D01*
X147345714Y-81809523D01*
X147155238Y-81761904D01*
X147060000Y-81666666D01*
X147012380Y-81571428D01*
X147012380Y-81380952D01*
X147060000Y-81285714D01*
X147155238Y-81190476D01*
X147345714Y-81142857D01*
X147679047Y-81142857D01*
X147869523Y-81190476D01*
X147964761Y-81285714D01*
X148012380Y-81380952D01*
X148012380Y-81571428D01*
X148012380Y-80190476D02*
X148012380Y-80761904D01*
X148012380Y-80476190D02*
X147012380Y-80476190D01*
X147155238Y-80571428D01*
X147250476Y-80666666D01*
X147298095Y-80761904D01*
G04 #@! TO.C,Q2*
X173507619Y-81165238D02*
X173460000Y-81260476D01*
X173364761Y-81355714D01*
X173221904Y-81498571D01*
X173174285Y-81593809D01*
X173174285Y-81689047D01*
X173412380Y-81641428D02*
X173364761Y-81736666D01*
X173269523Y-81831904D01*
X173079047Y-81879523D01*
X172745714Y-81879523D01*
X172555238Y-81831904D01*
X172460000Y-81736666D01*
X172412380Y-81641428D01*
X172412380Y-81450952D01*
X172460000Y-81355714D01*
X172555238Y-81260476D01*
X172745714Y-81212857D01*
X173079047Y-81212857D01*
X173269523Y-81260476D01*
X173364761Y-81355714D01*
X173412380Y-81450952D01*
X173412380Y-81641428D01*
X172507619Y-80831904D02*
X172460000Y-80784285D01*
X172412380Y-80689047D01*
X172412380Y-80450952D01*
X172460000Y-80355714D01*
X172507619Y-80308095D01*
X172602857Y-80260476D01*
X172698095Y-80260476D01*
X172840952Y-80308095D01*
X173412380Y-80879523D01*
X173412380Y-80260476D01*
G04 #@! TO.C,K1*
X147761904Y-52112380D02*
X147761904Y-51112380D01*
X148333333Y-52112380D02*
X147904761Y-51540952D01*
X148333333Y-51112380D02*
X147761904Y-51683809D01*
X149285714Y-52112380D02*
X148714285Y-52112380D01*
X149000000Y-52112380D02*
X149000000Y-51112380D01*
X148904761Y-51255238D01*
X148809523Y-51350476D01*
X148714285Y-51398095D01*
G04 #@! TO.C,K2*
X174501904Y-52392380D02*
X174501904Y-51392380D01*
X175073333Y-52392380D02*
X174644761Y-51820952D01*
X175073333Y-51392380D02*
X174501904Y-51963809D01*
X175454285Y-51487619D02*
X175501904Y-51440000D01*
X175597142Y-51392380D01*
X175835238Y-51392380D01*
X175930476Y-51440000D01*
X175978095Y-51487619D01*
X176025714Y-51582857D01*
X176025714Y-51678095D01*
X175978095Y-51820952D01*
X175406666Y-52392380D01*
X176025714Y-52392380D01*
G04 #@! TO.C,R10*
X203197380Y-49437857D02*
X202721190Y-49771190D01*
X203197380Y-50009285D02*
X202197380Y-50009285D01*
X202197380Y-49628333D01*
X202245000Y-49533095D01*
X202292619Y-49485476D01*
X202387857Y-49437857D01*
X202530714Y-49437857D01*
X202625952Y-49485476D01*
X202673571Y-49533095D01*
X202721190Y-49628333D01*
X202721190Y-50009285D01*
X203197380Y-48485476D02*
X203197380Y-49056904D01*
X203197380Y-48771190D02*
X202197380Y-48771190D01*
X202340238Y-48866428D01*
X202435476Y-48961666D01*
X202483095Y-49056904D01*
X202197380Y-47866428D02*
X202197380Y-47771190D01*
X202245000Y-47675952D01*
X202292619Y-47628333D01*
X202387857Y-47580714D01*
X202578333Y-47533095D01*
X202816428Y-47533095D01*
X203006904Y-47580714D01*
X203102142Y-47628333D01*
X203149761Y-47675952D01*
X203197380Y-47771190D01*
X203197380Y-47866428D01*
X203149761Y-47961666D01*
X203102142Y-48009285D01*
X203006904Y-48056904D01*
X202816428Y-48104523D01*
X202578333Y-48104523D01*
X202387857Y-48056904D01*
X202292619Y-48009285D01*
X202245000Y-47961666D01*
X202197380Y-47866428D01*
G04 #@! TO.C,R9*
X198747380Y-46566666D02*
X198271190Y-46900000D01*
X198747380Y-47138095D02*
X197747380Y-47138095D01*
X197747380Y-46757142D01*
X197795000Y-46661904D01*
X197842619Y-46614285D01*
X197937857Y-46566666D01*
X198080714Y-46566666D01*
X198175952Y-46614285D01*
X198223571Y-46661904D01*
X198271190Y-46757142D01*
X198271190Y-47138095D01*
X198747380Y-46090476D02*
X198747380Y-45900000D01*
X198699761Y-45804761D01*
X198652142Y-45757142D01*
X198509285Y-45661904D01*
X198318809Y-45614285D01*
X197937857Y-45614285D01*
X197842619Y-45661904D01*
X197795000Y-45709523D01*
X197747380Y-45804761D01*
X197747380Y-45995238D01*
X197795000Y-46090476D01*
X197842619Y-46138095D01*
X197937857Y-46185714D01*
X198175952Y-46185714D01*
X198271190Y-46138095D01*
X198318809Y-46090476D01*
X198366428Y-45995238D01*
X198366428Y-45804761D01*
X198318809Y-45709523D01*
X198271190Y-45661904D01*
X198175952Y-45614285D01*
G04 #@! TO.C,R8*
X133082380Y-71546666D02*
X132606190Y-71880000D01*
X133082380Y-72118095D02*
X132082380Y-72118095D01*
X132082380Y-71737142D01*
X132130000Y-71641904D01*
X132177619Y-71594285D01*
X132272857Y-71546666D01*
X132415714Y-71546666D01*
X132510952Y-71594285D01*
X132558571Y-71641904D01*
X132606190Y-71737142D01*
X132606190Y-72118095D01*
X132510952Y-70975238D02*
X132463333Y-71070476D01*
X132415714Y-71118095D01*
X132320476Y-71165714D01*
X132272857Y-71165714D01*
X132177619Y-71118095D01*
X132130000Y-71070476D01*
X132082380Y-70975238D01*
X132082380Y-70784761D01*
X132130000Y-70689523D01*
X132177619Y-70641904D01*
X132272857Y-70594285D01*
X132320476Y-70594285D01*
X132415714Y-70641904D01*
X132463333Y-70689523D01*
X132510952Y-70784761D01*
X132510952Y-70975238D01*
X132558571Y-71070476D01*
X132606190Y-71118095D01*
X132701428Y-71165714D01*
X132891904Y-71165714D01*
X132987142Y-71118095D01*
X133034761Y-71070476D01*
X133082380Y-70975238D01*
X133082380Y-70784761D01*
X133034761Y-70689523D01*
X132987142Y-70641904D01*
X132891904Y-70594285D01*
X132701428Y-70594285D01*
X132606190Y-70641904D01*
X132558571Y-70689523D01*
X132510952Y-70784761D01*
G04 #@! TO.C,R5*
X190082380Y-79546666D02*
X189606190Y-79880000D01*
X190082380Y-80118095D02*
X189082380Y-80118095D01*
X189082380Y-79737142D01*
X189130000Y-79641904D01*
X189177619Y-79594285D01*
X189272857Y-79546666D01*
X189415714Y-79546666D01*
X189510952Y-79594285D01*
X189558571Y-79641904D01*
X189606190Y-79737142D01*
X189606190Y-80118095D01*
X189082380Y-78641904D02*
X189082380Y-79118095D01*
X189558571Y-79165714D01*
X189510952Y-79118095D01*
X189463333Y-79022857D01*
X189463333Y-78784761D01*
X189510952Y-78689523D01*
X189558571Y-78641904D01*
X189653809Y-78594285D01*
X189891904Y-78594285D01*
X189987142Y-78641904D01*
X190034761Y-78689523D01*
X190082380Y-78784761D01*
X190082380Y-79022857D01*
X190034761Y-79118095D01*
X189987142Y-79165714D01*
G04 #@! TO.C,R3*
X150813333Y-84492380D02*
X150480000Y-84016190D01*
X150241904Y-84492380D02*
X150241904Y-83492380D01*
X150622857Y-83492380D01*
X150718095Y-83540000D01*
X150765714Y-83587619D01*
X150813333Y-83682857D01*
X150813333Y-83825714D01*
X150765714Y-83920952D01*
X150718095Y-83968571D01*
X150622857Y-84016190D01*
X150241904Y-84016190D01*
X151146666Y-83492380D02*
X151765714Y-83492380D01*
X151432380Y-83873333D01*
X151575238Y-83873333D01*
X151670476Y-83920952D01*
X151718095Y-83968571D01*
X151765714Y-84063809D01*
X151765714Y-84301904D01*
X151718095Y-84397142D01*
X151670476Y-84444761D01*
X151575238Y-84492380D01*
X151289523Y-84492380D01*
X151194285Y-84444761D01*
X151146666Y-84397142D01*
G04 #@! TO.C,R2*
X157882380Y-72346666D02*
X157406190Y-72680000D01*
X157882380Y-72918095D02*
X156882380Y-72918095D01*
X156882380Y-72537142D01*
X156930000Y-72441904D01*
X156977619Y-72394285D01*
X157072857Y-72346666D01*
X157215714Y-72346666D01*
X157310952Y-72394285D01*
X157358571Y-72441904D01*
X157406190Y-72537142D01*
X157406190Y-72918095D01*
X156977619Y-71965714D02*
X156930000Y-71918095D01*
X156882380Y-71822857D01*
X156882380Y-71584761D01*
X156930000Y-71489523D01*
X156977619Y-71441904D01*
X157072857Y-71394285D01*
X157168095Y-71394285D01*
X157310952Y-71441904D01*
X157882380Y-72013333D01*
X157882380Y-71394285D01*
G04 #@! TO.C,R4*
X187482380Y-71346666D02*
X187006190Y-71680000D01*
X187482380Y-71918095D02*
X186482380Y-71918095D01*
X186482380Y-71537142D01*
X186530000Y-71441904D01*
X186577619Y-71394285D01*
X186672857Y-71346666D01*
X186815714Y-71346666D01*
X186910952Y-71394285D01*
X186958571Y-71441904D01*
X187006190Y-71537142D01*
X187006190Y-71918095D01*
X186815714Y-70489523D02*
X187482380Y-70489523D01*
X186434761Y-70727619D02*
X187149047Y-70965714D01*
X187149047Y-70346666D01*
G04 #@! TO.C,J3*
X229462380Y-46253333D02*
X230176666Y-46253333D01*
X230319523Y-46300952D01*
X230414761Y-46396190D01*
X230462380Y-46539047D01*
X230462380Y-46634285D01*
X229462380Y-45872380D02*
X229462380Y-45253333D01*
X229843333Y-45586666D01*
X229843333Y-45443809D01*
X229890952Y-45348571D01*
X229938571Y-45300952D01*
X230033809Y-45253333D01*
X230271904Y-45253333D01*
X230367142Y-45300952D01*
X230414761Y-45348571D01*
X230462380Y-45443809D01*
X230462380Y-45729523D01*
X230414761Y-45824761D01*
X230367142Y-45872380D01*
G04 #@! TO.C,U2*
X234888095Y-79402380D02*
X234888095Y-80211904D01*
X234935714Y-80307142D01*
X234983333Y-80354761D01*
X235078571Y-80402380D01*
X235269047Y-80402380D01*
X235364285Y-80354761D01*
X235411904Y-80307142D01*
X235459523Y-80211904D01*
X235459523Y-79402380D01*
X235888095Y-79497619D02*
X235935714Y-79450000D01*
X236030952Y-79402380D01*
X236269047Y-79402380D01*
X236364285Y-79450000D01*
X236411904Y-79497619D01*
X236459523Y-79592857D01*
X236459523Y-79688095D01*
X236411904Y-79830952D01*
X235840476Y-80402380D01*
X236459523Y-80402380D01*
G04 #@! TD*
M02*
